M48
; DRILL file {KiCad (5.1.6-0-10_14)} date Sunday, September 13, 2020 at 03:42:22 PM
; FORMAT={3:3/ absolute / metric / suppress trailing zeros}
; #@! TF.CreationDate,2020-09-13T15:42:22+09:00
; #@! TF.GenerationSoftware,Kicad,Pcbnew,(5.1.6-0-10_14)
; #@! TF.FileFunction,Plated,1,2,PTH
FMAT,2
METRIC,LZ
T1C0.300
T2C0.330
T3C0.350
T4C0.400
T5C0.500
T6C0.600
T7C0.700
T8C0.800
T9C0.900
T10C0.920
T11C0.950
T12C0.998
T13C1.000
T14C1.100
T15C1.200
T16C1.300
T17C1.350
T18C1.800
T19C2.000
T20C2.300
%
G90
G05
T1
X093104Y-072834
X095809Y-073368
T2
X03938Y-054488
X03938Y-07844
X039599Y-092964
X039878Y-070168
X040195Y-055245
X040706Y-065319
X04125Y-091745
X041976Y-06951
X042228Y-057087
X042482Y-065532
X042482Y-067564
X042581Y-084724
X043028Y-144678
X04355Y-075927
X044501Y-052365
X044526Y-090653
X045149Y-06458
X04573Y-12856
X04573Y-145953
X046507Y-081879
X047401Y-146787
X047494Y-071886
X047508Y-08669
X048578Y-083566
X048924Y-079199
X048951Y-096185
X048971Y-093421
X048971Y-123063
X049276Y-054928
X049435Y-082899
X04953Y-0595
X049586Y-061402
X049642Y-139131
X049997Y-062946
X050145Y-046827
X050317Y-128549
X050571Y-140106
X051499Y-127216
X051826Y-087376
X052095Y-121742
X052207Y-063998
X052553Y-036048
X052578Y-082741
X052649Y-160838
X052832Y-050673
X052959Y-138582
X053076Y-058125
X053101Y-104811
X053188Y-142824
X053238Y-123596
X053848Y-061658
X053976Y-082803
X054061Y-152258
X054407Y-099416
X05447Y-137109
X055326Y-123815
X056373Y-106482
X056424Y-095595
X05654Y-087406
X056667Y-062001
X056693Y-100686
X056706Y-144399
X056799Y-117643
X056881Y-037876
X057328Y-129083
X057536Y-120853
X057709Y-144932
X057912Y-044958
X058014Y-173203
X058039Y-161544
X05812Y-149494
X058357Y-073406
X058776Y-093797
X058847Y-083871
X058877Y-145821
X058984Y-112044
X05906Y-097455
X05922Y-104673
X059233Y-165202
X059411Y-127991
X059563Y-035433
X059705Y-157287
X059837Y-138745
X060142Y-081996
X060254Y-099852
X0603Y-171323
X060401Y-0508
X060477Y-125425
X060858Y-112039
X061405Y-041402
X062573Y-056198
X062616Y-159161
X062687Y-163271
X062713Y-171247
X062992Y-073279
X063017Y-081996
X063119Y-078867
X063165Y-084912
X063241Y-062835
X063297Y-043332
X063368Y-101732
X063564Y-137795
X063627Y-066485
X063779Y-115634
X063941Y-085817
X063957Y-149822
X064198Y-071311
X064242Y-092314
X064338Y-105613
X064491Y-157226
X064592Y-17083
X065131Y-093955
X065761Y-150901
X065776Y-082998
X065786Y-082042
X065913Y-079096
X066218Y-134061
X066269Y-090107
X066518Y-14891
X066548Y-073089
X066802Y-064961
X066802Y-068517
X067081Y-159118
X067412Y-090945
X06778Y-168008
X067996Y-101854
X068306Y-138618
X068332Y-089757
X068407Y-159024
X068707Y-133439
X06919Y-082047
X069406Y-101016
X069652Y-153665
X069682Y-16096
X069787Y-052768
X070041Y-085725
X070066Y-10099
X070574Y-123076
X070828Y-133756
X070925Y-152952
X071298Y-168084
X071354Y-036413
X071412Y-097892
X071501Y-100825
X071742Y-087478
X072161Y-151651
X072361Y-057699
X072898Y-103251
X073012Y-098577
X073012Y-102019
X073076Y-169672
X073203Y-088227
X073216Y-100457
X073304Y-08476
X073348Y-057639
X073724Y-042482
X073736Y-102781
X073787Y-051499
X073939Y-099581
X074054Y-101257
X074066Y-058191
X074371Y-149555
X074574Y-10334
X074765Y-089675
X074854Y-102057
X074892Y-100495
X075189Y-161381
X075223Y-154913
X075375Y-098095
X07554Y-058458
X075616Y-157937
X075616Y-157937
X07573Y-102972
X075781Y-101333
X076327Y-051143
X076606Y-041834
X076657Y-102222
X077037Y-157047
X077094Y-033157
X077495Y-103061
X077572Y-152756
X077673Y-151536
X077838Y-05569
X077838Y-058585
X078232Y-159004
X078296Y-04718
X078486Y-091948
X078892Y-106248
X078994Y-08128
X079121Y-092583
X07936Y-039416
X079441Y-055474
X079756Y-056769
X079756Y-158877
X079813Y-09203
X080073Y-148958
X080721Y-085293
X080858Y-040894
X080975Y-13382
X081293Y-157099
X081394Y-092215
X081458Y-151562
X081483Y-036881
X081674Y-089764
X081905Y-045949
X082067Y-063189
X082169Y-057023
X082377Y-147264
X082753Y-125349
X082829Y-135369
X082982Y-085725
X083058Y-062992
X08351Y-158913
X083585Y-081435
X083744Y-134899
X083744Y-135814
X083818Y-15374
X083998Y-103556
X084451Y-154417
X084501Y-143347
X084523Y-059877
X084633Y-087198
X084798Y-092405
X085115Y-155004
X085192Y-135534
X085293Y-133756
X085496Y-132359
X085522Y-115494
X085573Y-103241
X085674Y-126848
X085801Y-155651
X085827Y-088659
X086131Y-090094
X086258Y-135738
X086323Y-059182
X086423Y-093866
X086538Y-052246
X086711Y-154396
X087131Y-135536
X087236Y-090119
X087249Y-056896
X087313Y-095974
X087391Y-100655
X087833Y-056032
X087973Y-093015
X088011Y-135433
X088494Y-14348
X088671Y-134595
X08891Y-127325
X089027Y-146698
X089297Y-089697
X089306Y-038252
X089332Y-130785
X089347Y-128392
X089357Y-129383
X089535Y-131597
X08956Y-053086
X089891Y-034595
X090068Y-108422
X090099Y-105435
X090233Y-088684
X090361Y-062548
X090495Y-140686
X090541Y-135926
X090551Y-121478
X090653Y-040894
X090678Y-11557
X091582Y-106954
X092324Y-164287
X092553Y-14984
X092913Y-065507
X093228Y-102138
X093294Y-081077
X093408Y-071717
X093467Y-126563
X093612Y-070663
X09393Y-069836
X09393Y-088607
X093942Y-093853
X09395Y-112735
X094107Y-068931
X094691Y-080721
X094712Y-095595
X095235Y-10797
X095601Y-104963
X095961Y-069291
X096799Y-169164
X096825Y-088062
X096869Y-12659
X096888Y-091262
X097109Y-14066
X097399Y-096596
X098222Y-040869
X098699Y-100264
X098725Y-098262
X098831Y-079997
X098958Y-091567
X099248Y-116469
X099314Y-059944
X100393Y-118237
X100406Y-086945
X100543Y-108651
X100889Y-075387
X101041Y-033553
X101143Y-125847
X101473Y-144018
X101524Y-046076
X101625Y-119304
X101641Y-136032
X102255Y-087076
X102368Y-044647
X10256Y-089155
X102692Y-14572
X102718Y-120294
X102997Y-060643
X103429Y-065481
X103683Y-146583
X103835Y-047981
X103861Y-075616
X104281Y-09131
X104623Y-090437
X104699Y-086893
X104724Y-104699
X104785Y-100559
X1048Y-103607
X104801Y-101445
X104892Y-096617
X104953Y-089129
X104966Y-081471
X105131Y-109596
X105131Y-120587
X105156Y-129794
X105166Y-136032
X105181Y-126959
X105245Y-153035
X105385Y-046355
X105446Y-043404
X105689Y-09177
X105766Y-103607
X106617Y-079756
X106721Y-130825
X106771Y-122392
X107142Y-172527
X107544Y-088671
X107594Y-093515
X107762Y-100106
X107823Y-097028
X107848Y-035941
X108052Y-152349
X108199Y-04794
X108529Y-135448
X108712Y-108737
X108814Y-161498
X10891Y-163454
X108966Y-065278
X109068Y-121234
X109093Y-079185
X109154Y-118019
X109283Y-119672
X109931Y-130366
X110046Y-131877
X110744Y-074041
X11084Y-081559
X110896Y-102616
X110901Y-070654
X110922Y-130353
X111079Y-118298
X1111Y-134912
X111112Y-136182
X111201Y-133414
X111216Y-139847
X111251Y-076885
X111347Y-07953
X111697Y-066104
X111852Y-130972
X111897Y-148133
X111938Y-086919
X111963Y-103022
X112268Y-06731
X112395Y-16096
X112586Y-089954
X112613Y-062144
X11303Y-091237
X113264Y-139649
X113284Y-053746
X113817Y-168326
X11406Y-136107
X114071Y-102895
X114198Y-131267
X114432Y-074686
X114604Y-076777
X114656Y-154991
X114879Y-046721
X115214Y-089967
X115371Y-080463
X115443Y-082677
X115697Y-086741
X115773Y-132791
X115824Y-128727
X115951Y-067183
X116312Y-091968
X116459Y-082931
X117638Y-069845
X117706Y-066929
X118364Y-083947
X118491Y-075438
X118537Y-065397
X118682Y-135166
X118745Y-0635
X118745Y-086053
X118831Y-090241
X119443Y-121666
X119532Y-058725
X119596Y-080823
X119723Y-078981
X119951Y-082702
X120599Y-093193
X120714Y-131648
X120904Y-094412
X121869Y-133223
X122657Y-110935
X123289Y-092878
X123419Y-134087
X123419Y-131191
X124371Y-131978
X124386Y-068555
X124414Y-077508
X124414Y-079858
X1246Y-082537
X124638Y-084963
X125006Y-054
X125197Y-131356
X125451Y-155575
X125628Y-116396
X125997Y-091554
X126721Y-061049
X127163Y-083241
X127343Y-116459
X127518Y-139695
X127518Y-147152
X127742Y-046929
X128664Y-085192
X128702Y-077051
X051035Y-070831
X051035Y-071631
X051035Y-072431
X051035Y-073231
X051035Y-074031
X051035Y-074831
X051035Y-075631
X051835Y-070831
X051835Y-071631
X051835Y-072431
X051835Y-073231
X051835Y-074031
X051835Y-074831
X051835Y-075631
X052635Y-070831
X052635Y-071631
X052635Y-074831
X052635Y-075631
X053435Y-070831
X053435Y-071631
X053435Y-074831
X053435Y-075631
X054235Y-070831
X054235Y-071631
X054235Y-074831
X054235Y-075631
X055035Y-070831
X055035Y-071631
X055035Y-072431
X055035Y-073231
X055035Y-074031
X055035Y-074831
X055035Y-075631
X055835Y-070831
X055835Y-071631
X055835Y-072431
X055835Y-073231
X055835Y-074031
X055835Y-074831
X055835Y-075631
X07675Y-069483
X07675Y-070333
X07675Y-071183
X07675Y-072033
X07675Y-072883
X07675Y-073733
X07675Y-074583
X0776Y-069483
X0776Y-070333
X0776Y-071183
X0776Y-072033
X0776Y-072883
X0776Y-073733
X0776Y-074583
X07845Y-069483
X07845Y-070333
X07845Y-073733
X07845Y-074583
X0793Y-069483
X0793Y-070333
X0793Y-073733
X0793Y-074583
X08015Y-069483
X08015Y-070333
X08015Y-073733
X08015Y-074583
X081Y-069483
X081Y-070333
X081Y-071183
X081Y-072033
X081Y-072883
X081Y-073733
X081Y-074583
X08185Y-069483
X08185Y-070333
X08185Y-071183
X08185Y-072033
X08185Y-072883
X08185Y-073733
X08185Y-074583
T3
X046816Y-076037
X04718Y-074627
X047422Y-079057
X047629Y-067181
X048514Y-068809
X048609Y-063833
X049295Y-073703
X049848Y-079057
X049911Y-067056
X050546Y-069215
X050809Y-063761
X051435Y-079057
X052518Y-067135
X053277Y-078994
X054451Y-079108
X056229Y-079296
X056398Y-067767
X057191Y-069505
X057264Y-067132
X057455Y-073965
X057455Y-079121
X057753Y-076767
X058818Y-06702
X058992Y-071057
X059023Y-079073
X059525Y-075857
X059834Y-069649
X060355Y-066365
X066541Y-076088
X067704Y-059017
X0692Y-062333
X0693Y-061433
X069723Y-083668
X069979Y-076604
X069996Y-063172
X069996Y-068227
X070021Y-066855
X070104Y-072644
X070231Y-064453
X070231Y-074422
X070231Y-065786
X0705Y-079898
X070574Y-069533
X070739Y-067691
X070739Y-075809
X071349Y-059309
X071469Y-07951
X071545Y-078397
X071616Y-081462
X072Y-062933
X0726Y-081033
X072696Y-079141
X0728Y-065833
X073025Y-062865
X074041Y-081153
X0741Y-068233
X0741Y-072133
X074295Y-078042
X07446Y-062954
X074498Y-075286
X075382Y-081153
X07559Y-062827
X0771Y-080633
X077319Y-077608
X0774Y-067133
X0777Y-064833
X077735Y-06277
X079248Y-076233
X079585Y-062727
X080645Y-081153
X080816Y-067135
X080836Y-078232
X081059Y-062738
X082061Y-084585
X08395Y-078183
X084Y-079833
X0844Y-068533
X0844Y-072133
X0844Y-075933
X084804Y-081435
X085801Y-062865
X0859Y-079833
X086106Y-05461
X0862Y-078633
X086673Y-068547
X086696Y-072151
X087392Y-07399
X087428Y-062992
X087496Y-081511
X0875Y-064133
X087568Y-059817
X087967Y-079193
X08829Y-084303
X088346Y-073615
X088392Y-065786
X088392Y-078359
X088403Y-066733
X088407Y-076844
X088519Y-075311
X088556Y-072722
X088558Y-070843
X088567Y-069293
X088591Y-064737
X089154Y-061722
X09044Y-060104
X093218Y-055437
X093561Y-085357
X09557Y-081001
X097638Y-084836
X098552Y-081915
X098606Y-077259
X098688Y-071073
X09887Y-076187
X10094Y-078867
X101016Y-073381
X101626Y-066639
X101918Y-070752
X102506Y-067359
X102606Y-082459
X103406Y-070726
X103406Y-083259
X103506Y-072759
X104006Y-082459
X104806Y-070559
X105871Y-070526
X105912Y-087519
X107306Y-072959
X108306Y-070659
X108458Y-083058
X109706Y-066259
X109706Y-072959
X109906Y-070659
X11049Y-072009
X110737Y-075872
X111487Y-078359
X112577Y-085278
X112602Y-08428
X114173Y-06985
T4
X055301Y-046939
X062357Y-079947
X062522Y-097079
X064733Y-079857
X069025Y-097409
X070041Y-097409
X070459Y-090246
X071272Y-091059
X084074Y-089586
X089878Y-086233
X089941Y-081661
X097561Y-034823
X09972Y-122288
X100927Y-147536
X102794Y-046711
X105194Y-150266
X105679Y-115072
X106959Y-142458
X107874Y-162433
X10842Y-137008
X109093Y-091948
X110094Y-148641
X116383Y-147345
X11717Y-110541
X122682Y-12653
T5
X063119Y-071811
X064707Y-073216
X092593Y-153848
X095948Y-13335
X099268Y-144155
X100571Y-134341
X101387Y-109489
X103657Y-123571
X108788Y-171298
X108788Y-181966
X111023Y-168783
X114085Y-101408
X11844Y-09972
T6
X064992Y-044948
X064992Y-052568
X072612Y-044948
X072612Y-052568
T8
X122648Y-05876
X122648Y-0613
X122648Y-06384
T9
X120153Y-1622
X120153Y-169
X122653Y-1622
X122653Y-1643
X122653Y-169
X044797Y-1371
X044797Y-1418
X044797Y-1439
X047297Y-1371
X047297Y-1439
X128156Y-13016
X128156Y-1327
X12413Y-097498
X12413Y-100038
T10
X120523Y-1401
X120523Y-1426
X120523Y-1446
X120523Y-1471
T11
X116171Y-116015
X118671Y-116015
X121171Y-116015
X042291Y-116268
X044791Y-116268
X047291Y-116268
X049791Y-116268
X052291Y-116268
X054791Y-116268
X111404Y-035662
X111404Y-038162
X111404Y-040662
X111404Y-043162
X066167Y-107522
X066167Y-110022
X066167Y-112522
X042291Y-108394
X044791Y-108394
X047291Y-108394
X049791Y-108394
X052291Y-108394
X054791Y-108394
X050927Y-092449
X050927Y-094949
X050927Y-097449
X050927Y-099949
X043243Y-092449
X043243Y-094949
X043243Y-097449
X043243Y-099949
X074168Y-107522
X074168Y-110022
X074168Y-112522
T12
X085268Y-048031
X085268Y-050571
X087808Y-048031
X087808Y-050571
X090348Y-048031
X090348Y-050571
X092888Y-048031
X092888Y-050571
X095428Y-048031
X095428Y-050571
T13
X069545Y-140513
X072085Y-140513
X074625Y-140513
X077165Y-140513
X079705Y-140513
X082245Y-140513
X0404Y-123
X0404Y-1275
X067985Y-119888
X070485Y-119888
X127Y-0966
X127Y-1011
X083274Y-111709
X083274Y-114249
X064607Y-12761
X067107Y-12761
X075032Y-167488
X077572Y-167488
X080112Y-167488
X082652Y-167488
X085192Y-167488
X087732Y-167488
X093671Y-034423
X093671Y-036963
X093671Y-039503
X093671Y-042043
X111366Y-122354
X111366Y-124854
X127Y-036322
X127Y-040822
X099035Y-161925
X101535Y-161925
X091846Y-142911
X094346Y-142911
X064567Y-135788
X067107Y-135788
T14
X120764Y-1841
X122764Y-1775
X126764Y-18
X075108Y-129184
X075108Y-131724
X075108Y-134264
X120764Y-1965
X122764Y-1899
X126764Y-1924
X042291Y-151943
X042291Y-156443
X048791Y-151943
X048791Y-156443
T15
X063055Y-11938
X093536Y-11938
T16
X0429Y-12175
X0429Y-12875
X1245Y-09535
X1245Y-10235
X1245Y-035072
X1245Y-042072
T17
X1235Y-07415
X1235Y-08865
X12845Y-07355
X12845Y-08925
T18
X053435Y-073231
T19
X0793Y-072033
T20
X123233Y-13703
X123233Y-15017
T7
G00X126403Y-15885
M15
G01X124903Y-15885
M16
G05
G00X126403Y-17235
M15
G01X124903Y-17235
M16
G05
G00X126453Y-16465
M15
G01X126453Y-16655
M16
G05
G00X040997Y-14145
M15
G01X040997Y-13955
M16
G05
G00X041047Y-13375
M15
G01X042547Y-13375
M16
G05
G00X041047Y-14725
M15
G01X042547Y-14725
M16
G05
T13
G00X116975Y-1235
M15
G01X116975Y-1225
M16
G05
G00X120675Y-1255
M15
G01X120675Y-1245
M16
G05
G00X122475Y-1235
M15
G01X122475Y-1225
M16
G05
G00X126175Y-1255
M15
G01X126175Y-1245
M16
G05
G00X128575Y-1235
M15
G01X128575Y-1225
M16
G05
G00X116975Y-1085
M15
G01X116975Y-1075
M16
G05
G00X120675Y-1105
M15
G01X120675Y-1095
M16
G05
G00X122475Y-1085
M15
G01X122475Y-1075
M16
G05
G00X126175Y-1105
M15
G01X126175Y-1095
M16
G05
G00X128575Y-1085
M15
G01X128575Y-1075
M16
G05
T0
M30
