%TF.GenerationSoftware,KiCad,Pcbnew,(5.1.9-0-10_14)*%
%TF.CreationDate,2021-06-17T03:31:47+09:00*%
%TF.ProjectId,ossc_board,6f737363-5f62-46f6-9172-642e6b696361,rev?*%
%TF.SameCoordinates,Original*%
%TF.FileFunction,Paste,Bot*%
%TF.FilePolarity,Positive*%
%FSLAX46Y46*%
G04 Gerber Fmt 4.6, Leading zero omitted, Abs format (unit mm)*
G04 Created by KiCad (PCBNEW (5.1.9-0-10_14)) date 2021-06-17 03:31:47*
%MOMM*%
%LPD*%
G01*
G04 APERTURE LIST*
%ADD10R,2.300000X3.500000*%
%ADD11R,3.500000X2.300000*%
%ADD12R,3.050000X2.750000*%
%ADD13R,2.200000X1.200000*%
%ADD14R,0.650000X1.560000*%
%ADD15R,0.800000X1.800000*%
%ADD16R,1.560000X0.650000*%
%ADD17R,2.350000X0.600000*%
G04 APERTURE END LIST*
%TO.C,C181*%
G36*
G01*
X68901300Y-125788300D02*
X69376300Y-125788300D01*
G75*
G02*
X69613800Y-126025800I0J-237500D01*
G01*
X69613800Y-126625800D01*
G75*
G02*
X69376300Y-126863300I-237500J0D01*
G01*
X68901300Y-126863300D01*
G75*
G02*
X68663800Y-126625800I0J237500D01*
G01*
X68663800Y-126025800D01*
G75*
G02*
X68901300Y-125788300I237500J0D01*
G01*
G37*
G36*
G01*
X68901300Y-124063300D02*
X69376300Y-124063300D01*
G75*
G02*
X69613800Y-124300800I0J-237500D01*
G01*
X69613800Y-124900800D01*
G75*
G02*
X69376300Y-125138300I-237500J0D01*
G01*
X68901300Y-125138300D01*
G75*
G02*
X68663800Y-124900800I0J237500D01*
G01*
X68663800Y-124300800D01*
G75*
G02*
X68901300Y-124063300I237500J0D01*
G01*
G37*
%TD*%
%TO.C,C179*%
G36*
G01*
X69376300Y-121697700D02*
X68901300Y-121697700D01*
G75*
G02*
X68663800Y-121460200I0J237500D01*
G01*
X68663800Y-120860200D01*
G75*
G02*
X68901300Y-120622700I237500J0D01*
G01*
X69376300Y-120622700D01*
G75*
G02*
X69613800Y-120860200I0J-237500D01*
G01*
X69613800Y-121460200D01*
G75*
G02*
X69376300Y-121697700I-237500J0D01*
G01*
G37*
G36*
G01*
X69376300Y-123422700D02*
X68901300Y-123422700D01*
G75*
G02*
X68663800Y-123185200I0J237500D01*
G01*
X68663800Y-122585200D01*
G75*
G02*
X68901300Y-122347700I237500J0D01*
G01*
X69376300Y-122347700D01*
G75*
G02*
X69613800Y-122585200I0J-237500D01*
G01*
X69613800Y-123185200D01*
G75*
G02*
X69376300Y-123422700I-237500J0D01*
G01*
G37*
%TD*%
%TO.C,D12*%
G36*
G01*
X74058500Y-125626700D02*
X74658500Y-125626700D01*
G75*
G02*
X74958500Y-125926700I0J-300000D01*
G01*
X74958500Y-126826700D01*
G75*
G02*
X74658500Y-127126700I-300000J0D01*
G01*
X74058500Y-127126700D01*
G75*
G02*
X73758500Y-126826700I0J300000D01*
G01*
X73758500Y-125926700D01*
G75*
G02*
X74058500Y-125626700I300000J0D01*
G01*
G37*
G36*
G01*
X74058500Y-122326700D02*
X74658500Y-122326700D01*
G75*
G02*
X74958500Y-122626700I0J-300000D01*
G01*
X74958500Y-123526700D01*
G75*
G02*
X74658500Y-123826700I-300000J0D01*
G01*
X74058500Y-123826700D01*
G75*
G02*
X73758500Y-123526700I0J300000D01*
G01*
X73758500Y-122626700D01*
G75*
G02*
X74058500Y-122326700I300000J0D01*
G01*
G37*
%TD*%
D10*
%TO.C,D11*%
X78778100Y-126166900D03*
X78778100Y-131566900D03*
%TD*%
%TO.C,C177*%
G36*
G01*
X71669900Y-100210500D02*
X72144900Y-100210500D01*
G75*
G02*
X72382400Y-100448000I0J-237500D01*
G01*
X72382400Y-101048000D01*
G75*
G02*
X72144900Y-101285500I-237500J0D01*
G01*
X71669900Y-101285500D01*
G75*
G02*
X71432400Y-101048000I0J237500D01*
G01*
X71432400Y-100448000D01*
G75*
G02*
X71669900Y-100210500I237500J0D01*
G01*
G37*
G36*
G01*
X71669900Y-98485500D02*
X72144900Y-98485500D01*
G75*
G02*
X72382400Y-98723000I0J-237500D01*
G01*
X72382400Y-99323000D01*
G75*
G02*
X72144900Y-99560500I-237500J0D01*
G01*
X71669900Y-99560500D01*
G75*
G02*
X71432400Y-99323000I0J237500D01*
G01*
X71432400Y-98723000D01*
G75*
G02*
X71669900Y-98485500I237500J0D01*
G01*
G37*
%TD*%
D11*
%TO.C,D10*%
X63848000Y-134924800D03*
X69248000Y-134924800D03*
%TD*%
%TO.C,R53*%
G36*
G01*
X47418000Y-133812800D02*
X46943000Y-133812800D01*
G75*
G02*
X46705500Y-133575300I0J237500D01*
G01*
X46705500Y-133000300D01*
G75*
G02*
X46943000Y-132762800I237500J0D01*
G01*
X47418000Y-132762800D01*
G75*
G02*
X47655500Y-133000300I0J-237500D01*
G01*
X47655500Y-133575300D01*
G75*
G02*
X47418000Y-133812800I-237500J0D01*
G01*
G37*
G36*
G01*
X47418000Y-135562800D02*
X46943000Y-135562800D01*
G75*
G02*
X46705500Y-135325300I0J237500D01*
G01*
X46705500Y-134750300D01*
G75*
G02*
X46943000Y-134512800I237500J0D01*
G01*
X47418000Y-134512800D01*
G75*
G02*
X47655500Y-134750300I0J-237500D01*
G01*
X47655500Y-135325300D01*
G75*
G02*
X47418000Y-135562800I-237500J0D01*
G01*
G37*
%TD*%
%TO.C,D9*%
G36*
G01*
X78084400Y-120661000D02*
X78684400Y-120661000D01*
G75*
G02*
X78984400Y-120961000I0J-300000D01*
G01*
X78984400Y-121861000D01*
G75*
G02*
X78684400Y-122161000I-300000J0D01*
G01*
X78084400Y-122161000D01*
G75*
G02*
X77784400Y-121861000I0J300000D01*
G01*
X77784400Y-120961000D01*
G75*
G02*
X78084400Y-120661000I300000J0D01*
G01*
G37*
G36*
G01*
X78084400Y-117361000D02*
X78684400Y-117361000D01*
G75*
G02*
X78984400Y-117661000I0J-300000D01*
G01*
X78984400Y-118561000D01*
G75*
G02*
X78684400Y-118861000I-300000J0D01*
G01*
X78084400Y-118861000D01*
G75*
G02*
X77784400Y-118561000I0J300000D01*
G01*
X77784400Y-117661000D01*
G75*
G02*
X78084400Y-117361000I300000J0D01*
G01*
G37*
%TD*%
%TO.C,R14*%
G36*
G01*
X75686400Y-151240500D02*
X75686400Y-150765500D01*
G75*
G02*
X75923900Y-150528000I237500J0D01*
G01*
X76498900Y-150528000D01*
G75*
G02*
X76736400Y-150765500I0J-237500D01*
G01*
X76736400Y-151240500D01*
G75*
G02*
X76498900Y-151478000I-237500J0D01*
G01*
X75923900Y-151478000D01*
G75*
G02*
X75686400Y-151240500I0J237500D01*
G01*
G37*
G36*
G01*
X73936400Y-151240500D02*
X73936400Y-150765500D01*
G75*
G02*
X74173900Y-150528000I237500J0D01*
G01*
X74748900Y-150528000D01*
G75*
G02*
X74986400Y-150765500I0J-237500D01*
G01*
X74986400Y-151240500D01*
G75*
G02*
X74748900Y-151478000I-237500J0D01*
G01*
X74173900Y-151478000D01*
G75*
G02*
X73936400Y-151240500I0J237500D01*
G01*
G37*
%TD*%
%TO.C,R13*%
G36*
G01*
X70552300Y-155747200D02*
X71027300Y-155747200D01*
G75*
G02*
X71264800Y-155984700I0J-237500D01*
G01*
X71264800Y-156559700D01*
G75*
G02*
X71027300Y-156797200I-237500J0D01*
G01*
X70552300Y-156797200D01*
G75*
G02*
X70314800Y-156559700I0J237500D01*
G01*
X70314800Y-155984700D01*
G75*
G02*
X70552300Y-155747200I237500J0D01*
G01*
G37*
G36*
G01*
X70552300Y-153997200D02*
X71027300Y-153997200D01*
G75*
G02*
X71264800Y-154234700I0J-237500D01*
G01*
X71264800Y-154809700D01*
G75*
G02*
X71027300Y-155047200I-237500J0D01*
G01*
X70552300Y-155047200D01*
G75*
G02*
X70314800Y-154809700I0J237500D01*
G01*
X70314800Y-154234700D01*
G75*
G02*
X70552300Y-153997200I237500J0D01*
G01*
G37*
%TD*%
%TO.C,R49*%
G36*
G01*
X46705000Y-97671900D02*
X46705000Y-97196900D01*
G75*
G02*
X46942500Y-96959400I237500J0D01*
G01*
X47517500Y-96959400D01*
G75*
G02*
X47755000Y-97196900I0J-237500D01*
G01*
X47755000Y-97671900D01*
G75*
G02*
X47517500Y-97909400I-237500J0D01*
G01*
X46942500Y-97909400D01*
G75*
G02*
X46705000Y-97671900I0J237500D01*
G01*
G37*
G36*
G01*
X44955000Y-97671900D02*
X44955000Y-97196900D01*
G75*
G02*
X45192500Y-96959400I237500J0D01*
G01*
X45767500Y-96959400D01*
G75*
G02*
X46005000Y-97196900I0J-237500D01*
G01*
X46005000Y-97671900D01*
G75*
G02*
X45767500Y-97909400I-237500J0D01*
G01*
X45192500Y-97909400D01*
G75*
G02*
X44955000Y-97671900I0J237500D01*
G01*
G37*
%TD*%
%TO.C,FB10*%
G36*
G01*
X96732100Y-35337000D02*
X96257100Y-35337000D01*
G75*
G02*
X96019600Y-35099500I0J237500D01*
G01*
X96019600Y-34524500D01*
G75*
G02*
X96257100Y-34287000I237500J0D01*
G01*
X96732100Y-34287000D01*
G75*
G02*
X96969600Y-34524500I0J-237500D01*
G01*
X96969600Y-35099500D01*
G75*
G02*
X96732100Y-35337000I-237500J0D01*
G01*
G37*
G36*
G01*
X96732100Y-37087000D02*
X96257100Y-37087000D01*
G75*
G02*
X96019600Y-36849500I0J237500D01*
G01*
X96019600Y-36274500D01*
G75*
G02*
X96257100Y-36037000I237500J0D01*
G01*
X96732100Y-36037000D01*
G75*
G02*
X96969600Y-36274500I0J-237500D01*
G01*
X96969600Y-36849500D01*
G75*
G02*
X96732100Y-37087000I-237500J0D01*
G01*
G37*
%TD*%
%TO.C,C175*%
G36*
G01*
X91626700Y-35235400D02*
X91151700Y-35235400D01*
G75*
G02*
X90914200Y-34997900I0J237500D01*
G01*
X90914200Y-34422900D01*
G75*
G02*
X91151700Y-34185400I237500J0D01*
G01*
X91626700Y-34185400D01*
G75*
G02*
X91864200Y-34422900I0J-237500D01*
G01*
X91864200Y-34997900D01*
G75*
G02*
X91626700Y-35235400I-237500J0D01*
G01*
G37*
G36*
G01*
X91626700Y-36985400D02*
X91151700Y-36985400D01*
G75*
G02*
X90914200Y-36747900I0J237500D01*
G01*
X90914200Y-36172900D01*
G75*
G02*
X91151700Y-35935400I237500J0D01*
G01*
X91626700Y-35935400D01*
G75*
G02*
X91864200Y-36172900I0J-237500D01*
G01*
X91864200Y-36747900D01*
G75*
G02*
X91626700Y-36985400I-237500J0D01*
G01*
G37*
%TD*%
%TO.C,U32*%
G36*
G01*
X105208200Y-38605600D02*
X105208200Y-38305600D01*
G75*
G02*
X105358200Y-38155600I150000J0D01*
G01*
X107008200Y-38155600D01*
G75*
G02*
X107158200Y-38305600I0J-150000D01*
G01*
X107158200Y-38605600D01*
G75*
G02*
X107008200Y-38755600I-150000J0D01*
G01*
X105358200Y-38755600D01*
G75*
G02*
X105208200Y-38605600I0J150000D01*
G01*
G37*
G36*
G01*
X105208200Y-37335600D02*
X105208200Y-37035600D01*
G75*
G02*
X105358200Y-36885600I150000J0D01*
G01*
X107008200Y-36885600D01*
G75*
G02*
X107158200Y-37035600I0J-150000D01*
G01*
X107158200Y-37335600D01*
G75*
G02*
X107008200Y-37485600I-150000J0D01*
G01*
X105358200Y-37485600D01*
G75*
G02*
X105208200Y-37335600I0J150000D01*
G01*
G37*
G36*
G01*
X105208200Y-36065600D02*
X105208200Y-35765600D01*
G75*
G02*
X105358200Y-35615600I150000J0D01*
G01*
X107008200Y-35615600D01*
G75*
G02*
X107158200Y-35765600I0J-150000D01*
G01*
X107158200Y-36065600D01*
G75*
G02*
X107008200Y-36215600I-150000J0D01*
G01*
X105358200Y-36215600D01*
G75*
G02*
X105208200Y-36065600I0J150000D01*
G01*
G37*
G36*
G01*
X105208200Y-34795600D02*
X105208200Y-34495600D01*
G75*
G02*
X105358200Y-34345600I150000J0D01*
G01*
X107008200Y-34345600D01*
G75*
G02*
X107158200Y-34495600I0J-150000D01*
G01*
X107158200Y-34795600D01*
G75*
G02*
X107008200Y-34945600I-150000J0D01*
G01*
X105358200Y-34945600D01*
G75*
G02*
X105208200Y-34795600I0J150000D01*
G01*
G37*
G36*
G01*
X100258200Y-34795600D02*
X100258200Y-34495600D01*
G75*
G02*
X100408200Y-34345600I150000J0D01*
G01*
X102058200Y-34345600D01*
G75*
G02*
X102208200Y-34495600I0J-150000D01*
G01*
X102208200Y-34795600D01*
G75*
G02*
X102058200Y-34945600I-150000J0D01*
G01*
X100408200Y-34945600D01*
G75*
G02*
X100258200Y-34795600I0J150000D01*
G01*
G37*
G36*
G01*
X100258200Y-36065600D02*
X100258200Y-35765600D01*
G75*
G02*
X100408200Y-35615600I150000J0D01*
G01*
X102058200Y-35615600D01*
G75*
G02*
X102208200Y-35765600I0J-150000D01*
G01*
X102208200Y-36065600D01*
G75*
G02*
X102058200Y-36215600I-150000J0D01*
G01*
X100408200Y-36215600D01*
G75*
G02*
X100258200Y-36065600I0J150000D01*
G01*
G37*
G36*
G01*
X100258200Y-37335600D02*
X100258200Y-37035600D01*
G75*
G02*
X100408200Y-36885600I150000J0D01*
G01*
X102058200Y-36885600D01*
G75*
G02*
X102208200Y-37035600I0J-150000D01*
G01*
X102208200Y-37335600D01*
G75*
G02*
X102058200Y-37485600I-150000J0D01*
G01*
X100408200Y-37485600D01*
G75*
G02*
X100258200Y-37335600I0J150000D01*
G01*
G37*
G36*
G01*
X100258200Y-38605600D02*
X100258200Y-38305600D01*
G75*
G02*
X100408200Y-38155600I150000J0D01*
G01*
X102058200Y-38155600D01*
G75*
G02*
X102208200Y-38305600I0J-150000D01*
G01*
X102208200Y-38605600D01*
G75*
G02*
X102058200Y-38755600I-150000J0D01*
G01*
X100408200Y-38755600D01*
G75*
G02*
X100258200Y-38605600I0J150000D01*
G01*
G37*
%TD*%
%TO.C,R48*%
G36*
G01*
X113198900Y-42082200D02*
X113673900Y-42082200D01*
G75*
G02*
X113911400Y-42319700I0J-237500D01*
G01*
X113911400Y-42894700D01*
G75*
G02*
X113673900Y-43132200I-237500J0D01*
G01*
X113198900Y-43132200D01*
G75*
G02*
X112961400Y-42894700I0J237500D01*
G01*
X112961400Y-42319700D01*
G75*
G02*
X113198900Y-42082200I237500J0D01*
G01*
G37*
G36*
G01*
X113198900Y-40332200D02*
X113673900Y-40332200D01*
G75*
G02*
X113911400Y-40569700I0J-237500D01*
G01*
X113911400Y-41144700D01*
G75*
G02*
X113673900Y-41382200I-237500J0D01*
G01*
X113198900Y-41382200D01*
G75*
G02*
X112961400Y-41144700I0J237500D01*
G01*
X112961400Y-40569700D01*
G75*
G02*
X113198900Y-40332200I237500J0D01*
G01*
G37*
%TD*%
%TO.C,R47*%
G36*
G01*
X108576100Y-40837600D02*
X109051100Y-40837600D01*
G75*
G02*
X109288600Y-41075100I0J-237500D01*
G01*
X109288600Y-41650100D01*
G75*
G02*
X109051100Y-41887600I-237500J0D01*
G01*
X108576100Y-41887600D01*
G75*
G02*
X108338600Y-41650100I0J237500D01*
G01*
X108338600Y-41075100D01*
G75*
G02*
X108576100Y-40837600I237500J0D01*
G01*
G37*
G36*
G01*
X108576100Y-39087600D02*
X109051100Y-39087600D01*
G75*
G02*
X109288600Y-39325100I0J-237500D01*
G01*
X109288600Y-39900100D01*
G75*
G02*
X109051100Y-40137600I-237500J0D01*
G01*
X108576100Y-40137600D01*
G75*
G02*
X108338600Y-39900100I0J237500D01*
G01*
X108338600Y-39325100D01*
G75*
G02*
X108576100Y-39087600I237500J0D01*
G01*
G37*
%TD*%
%TO.C,C174*%
G36*
G01*
X106061500Y-41345600D02*
X106536500Y-41345600D01*
G75*
G02*
X106774000Y-41583100I0J-237500D01*
G01*
X106774000Y-42158100D01*
G75*
G02*
X106536500Y-42395600I-237500J0D01*
G01*
X106061500Y-42395600D01*
G75*
G02*
X105824000Y-42158100I0J237500D01*
G01*
X105824000Y-41583100D01*
G75*
G02*
X106061500Y-41345600I237500J0D01*
G01*
G37*
G36*
G01*
X106061500Y-39595600D02*
X106536500Y-39595600D01*
G75*
G02*
X106774000Y-39833100I0J-237500D01*
G01*
X106774000Y-40408100D01*
G75*
G02*
X106536500Y-40645600I-237500J0D01*
G01*
X106061500Y-40645600D01*
G75*
G02*
X105824000Y-40408100I0J237500D01*
G01*
X105824000Y-39833100D01*
G75*
G02*
X106061500Y-39595600I237500J0D01*
G01*
G37*
%TD*%
%TO.C,U31*%
G36*
G01*
X101083800Y-121261800D02*
X101283800Y-121261800D01*
G75*
G02*
X101383800Y-121361800I0J-100000D01*
G01*
X101383800Y-122586800D01*
G75*
G02*
X101283800Y-122686800I-100000J0D01*
G01*
X101083800Y-122686800D01*
G75*
G02*
X100983800Y-122586800I0J100000D01*
G01*
X100983800Y-121361800D01*
G75*
G02*
X101083800Y-121261800I100000J0D01*
G01*
G37*
G36*
G01*
X101733800Y-121261800D02*
X101933800Y-121261800D01*
G75*
G02*
X102033800Y-121361800I0J-100000D01*
G01*
X102033800Y-122586800D01*
G75*
G02*
X101933800Y-122686800I-100000J0D01*
G01*
X101733800Y-122686800D01*
G75*
G02*
X101633800Y-122586800I0J100000D01*
G01*
X101633800Y-121361800D01*
G75*
G02*
X101733800Y-121261800I100000J0D01*
G01*
G37*
G36*
G01*
X102383800Y-121261800D02*
X102583800Y-121261800D01*
G75*
G02*
X102683800Y-121361800I0J-100000D01*
G01*
X102683800Y-122586800D01*
G75*
G02*
X102583800Y-122686800I-100000J0D01*
G01*
X102383800Y-122686800D01*
G75*
G02*
X102283800Y-122586800I0J100000D01*
G01*
X102283800Y-121361800D01*
G75*
G02*
X102383800Y-121261800I100000J0D01*
G01*
G37*
G36*
G01*
X103033800Y-121261800D02*
X103233800Y-121261800D01*
G75*
G02*
X103333800Y-121361800I0J-100000D01*
G01*
X103333800Y-122586800D01*
G75*
G02*
X103233800Y-122686800I-100000J0D01*
G01*
X103033800Y-122686800D01*
G75*
G02*
X102933800Y-122586800I0J100000D01*
G01*
X102933800Y-121361800D01*
G75*
G02*
X103033800Y-121261800I100000J0D01*
G01*
G37*
G36*
G01*
X103033800Y-116936800D02*
X103233800Y-116936800D01*
G75*
G02*
X103333800Y-117036800I0J-100000D01*
G01*
X103333800Y-118261800D01*
G75*
G02*
X103233800Y-118361800I-100000J0D01*
G01*
X103033800Y-118361800D01*
G75*
G02*
X102933800Y-118261800I0J100000D01*
G01*
X102933800Y-117036800D01*
G75*
G02*
X103033800Y-116936800I100000J0D01*
G01*
G37*
G36*
G01*
X102383800Y-116936800D02*
X102583800Y-116936800D01*
G75*
G02*
X102683800Y-117036800I0J-100000D01*
G01*
X102683800Y-118261800D01*
G75*
G02*
X102583800Y-118361800I-100000J0D01*
G01*
X102383800Y-118361800D01*
G75*
G02*
X102283800Y-118261800I0J100000D01*
G01*
X102283800Y-117036800D01*
G75*
G02*
X102383800Y-116936800I100000J0D01*
G01*
G37*
G36*
G01*
X101733800Y-116936800D02*
X101933800Y-116936800D01*
G75*
G02*
X102033800Y-117036800I0J-100000D01*
G01*
X102033800Y-118261800D01*
G75*
G02*
X101933800Y-118361800I-100000J0D01*
G01*
X101733800Y-118361800D01*
G75*
G02*
X101633800Y-118261800I0J100000D01*
G01*
X101633800Y-117036800D01*
G75*
G02*
X101733800Y-116936800I100000J0D01*
G01*
G37*
G36*
G01*
X101083800Y-116936800D02*
X101283800Y-116936800D01*
G75*
G02*
X101383800Y-117036800I0J-100000D01*
G01*
X101383800Y-118261800D01*
G75*
G02*
X101283800Y-118361800I-100000J0D01*
G01*
X101083800Y-118361800D01*
G75*
G02*
X100983800Y-118261800I0J100000D01*
G01*
X100983800Y-117036800D01*
G75*
G02*
X101083800Y-116936800I100000J0D01*
G01*
G37*
G36*
G01*
X102418800Y-119891800D02*
X102818800Y-119891800D01*
G75*
G02*
X102993800Y-120066800I0J-175000D01*
G01*
X102993800Y-120416800D01*
G75*
G02*
X102818800Y-120591800I-175000J0D01*
G01*
X102418800Y-120591800D01*
G75*
G02*
X102243800Y-120416800I0J175000D01*
G01*
X102243800Y-120066800D01*
G75*
G02*
X102418800Y-119891800I175000J0D01*
G01*
G37*
G36*
G01*
X101498800Y-119891800D02*
X101898800Y-119891800D01*
G75*
G02*
X102073800Y-120066800I0J-175000D01*
G01*
X102073800Y-120416800D01*
G75*
G02*
X101898800Y-120591800I-175000J0D01*
G01*
X101498800Y-120591800D01*
G75*
G02*
X101323800Y-120416800I0J175000D01*
G01*
X101323800Y-120066800D01*
G75*
G02*
X101498800Y-119891800I175000J0D01*
G01*
G37*
G36*
G01*
X102418800Y-119031800D02*
X102818800Y-119031800D01*
G75*
G02*
X102993800Y-119206800I0J-175000D01*
G01*
X102993800Y-119556800D01*
G75*
G02*
X102818800Y-119731800I-175000J0D01*
G01*
X102418800Y-119731800D01*
G75*
G02*
X102243800Y-119556800I0J175000D01*
G01*
X102243800Y-119206800D01*
G75*
G02*
X102418800Y-119031800I175000J0D01*
G01*
G37*
G36*
G01*
X101498800Y-119031800D02*
X101898800Y-119031800D01*
G75*
G02*
X102073800Y-119206800I0J-175000D01*
G01*
X102073800Y-119556800D01*
G75*
G02*
X101898800Y-119731800I-175000J0D01*
G01*
X101498800Y-119731800D01*
G75*
G02*
X101323800Y-119556800I0J175000D01*
G01*
X101323800Y-119206800D01*
G75*
G02*
X101498800Y-119031800I175000J0D01*
G01*
G37*
%TD*%
%TO.C,U29*%
G36*
G01*
X102125200Y-147627000D02*
X102325200Y-147627000D01*
G75*
G02*
X102425200Y-147727000I0J-100000D01*
G01*
X102425200Y-148952000D01*
G75*
G02*
X102325200Y-149052000I-100000J0D01*
G01*
X102125200Y-149052000D01*
G75*
G02*
X102025200Y-148952000I0J100000D01*
G01*
X102025200Y-147727000D01*
G75*
G02*
X102125200Y-147627000I100000J0D01*
G01*
G37*
G36*
G01*
X102775200Y-147627000D02*
X102975200Y-147627000D01*
G75*
G02*
X103075200Y-147727000I0J-100000D01*
G01*
X103075200Y-148952000D01*
G75*
G02*
X102975200Y-149052000I-100000J0D01*
G01*
X102775200Y-149052000D01*
G75*
G02*
X102675200Y-148952000I0J100000D01*
G01*
X102675200Y-147727000D01*
G75*
G02*
X102775200Y-147627000I100000J0D01*
G01*
G37*
G36*
G01*
X103425200Y-147627000D02*
X103625200Y-147627000D01*
G75*
G02*
X103725200Y-147727000I0J-100000D01*
G01*
X103725200Y-148952000D01*
G75*
G02*
X103625200Y-149052000I-100000J0D01*
G01*
X103425200Y-149052000D01*
G75*
G02*
X103325200Y-148952000I0J100000D01*
G01*
X103325200Y-147727000D01*
G75*
G02*
X103425200Y-147627000I100000J0D01*
G01*
G37*
G36*
G01*
X104075200Y-147627000D02*
X104275200Y-147627000D01*
G75*
G02*
X104375200Y-147727000I0J-100000D01*
G01*
X104375200Y-148952000D01*
G75*
G02*
X104275200Y-149052000I-100000J0D01*
G01*
X104075200Y-149052000D01*
G75*
G02*
X103975200Y-148952000I0J100000D01*
G01*
X103975200Y-147727000D01*
G75*
G02*
X104075200Y-147627000I100000J0D01*
G01*
G37*
G36*
G01*
X104075200Y-143302000D02*
X104275200Y-143302000D01*
G75*
G02*
X104375200Y-143402000I0J-100000D01*
G01*
X104375200Y-144627000D01*
G75*
G02*
X104275200Y-144727000I-100000J0D01*
G01*
X104075200Y-144727000D01*
G75*
G02*
X103975200Y-144627000I0J100000D01*
G01*
X103975200Y-143402000D01*
G75*
G02*
X104075200Y-143302000I100000J0D01*
G01*
G37*
G36*
G01*
X103425200Y-143302000D02*
X103625200Y-143302000D01*
G75*
G02*
X103725200Y-143402000I0J-100000D01*
G01*
X103725200Y-144627000D01*
G75*
G02*
X103625200Y-144727000I-100000J0D01*
G01*
X103425200Y-144727000D01*
G75*
G02*
X103325200Y-144627000I0J100000D01*
G01*
X103325200Y-143402000D01*
G75*
G02*
X103425200Y-143302000I100000J0D01*
G01*
G37*
G36*
G01*
X102775200Y-143302000D02*
X102975200Y-143302000D01*
G75*
G02*
X103075200Y-143402000I0J-100000D01*
G01*
X103075200Y-144627000D01*
G75*
G02*
X102975200Y-144727000I-100000J0D01*
G01*
X102775200Y-144727000D01*
G75*
G02*
X102675200Y-144627000I0J100000D01*
G01*
X102675200Y-143402000D01*
G75*
G02*
X102775200Y-143302000I100000J0D01*
G01*
G37*
G36*
G01*
X102125200Y-143302000D02*
X102325200Y-143302000D01*
G75*
G02*
X102425200Y-143402000I0J-100000D01*
G01*
X102425200Y-144627000D01*
G75*
G02*
X102325200Y-144727000I-100000J0D01*
G01*
X102125200Y-144727000D01*
G75*
G02*
X102025200Y-144627000I0J100000D01*
G01*
X102025200Y-143402000D01*
G75*
G02*
X102125200Y-143302000I100000J0D01*
G01*
G37*
G36*
G01*
X103460200Y-146257000D02*
X103860200Y-146257000D01*
G75*
G02*
X104035200Y-146432000I0J-175000D01*
G01*
X104035200Y-146782000D01*
G75*
G02*
X103860200Y-146957000I-175000J0D01*
G01*
X103460200Y-146957000D01*
G75*
G02*
X103285200Y-146782000I0J175000D01*
G01*
X103285200Y-146432000D01*
G75*
G02*
X103460200Y-146257000I175000J0D01*
G01*
G37*
G36*
G01*
X102540200Y-146257000D02*
X102940200Y-146257000D01*
G75*
G02*
X103115200Y-146432000I0J-175000D01*
G01*
X103115200Y-146782000D01*
G75*
G02*
X102940200Y-146957000I-175000J0D01*
G01*
X102540200Y-146957000D01*
G75*
G02*
X102365200Y-146782000I0J175000D01*
G01*
X102365200Y-146432000D01*
G75*
G02*
X102540200Y-146257000I175000J0D01*
G01*
G37*
G36*
G01*
X103460200Y-145397000D02*
X103860200Y-145397000D01*
G75*
G02*
X104035200Y-145572000I0J-175000D01*
G01*
X104035200Y-145922000D01*
G75*
G02*
X103860200Y-146097000I-175000J0D01*
G01*
X103460200Y-146097000D01*
G75*
G02*
X103285200Y-145922000I0J175000D01*
G01*
X103285200Y-145572000D01*
G75*
G02*
X103460200Y-145397000I175000J0D01*
G01*
G37*
G36*
G01*
X102540200Y-145397000D02*
X102940200Y-145397000D01*
G75*
G02*
X103115200Y-145572000I0J-175000D01*
G01*
X103115200Y-145922000D01*
G75*
G02*
X102940200Y-146097000I-175000J0D01*
G01*
X102540200Y-146097000D01*
G75*
G02*
X102365200Y-145922000I0J175000D01*
G01*
X102365200Y-145572000D01*
G75*
G02*
X102540200Y-145397000I175000J0D01*
G01*
G37*
%TD*%
%TO.C,D8*%
G36*
G01*
X67476800Y-131310100D02*
X67476800Y-131910100D01*
G75*
G02*
X67176800Y-132210100I-300000J0D01*
G01*
X66276800Y-132210100D01*
G75*
G02*
X65976800Y-131910100I0J300000D01*
G01*
X65976800Y-131310100D01*
G75*
G02*
X66276800Y-131010100I300000J0D01*
G01*
X67176800Y-131010100D01*
G75*
G02*
X67476800Y-131310100I0J-300000D01*
G01*
G37*
G36*
G01*
X70776800Y-131310100D02*
X70776800Y-131910100D01*
G75*
G02*
X70476800Y-132210100I-300000J0D01*
G01*
X69576800Y-132210100D01*
G75*
G02*
X69276800Y-131910100I0J300000D01*
G01*
X69276800Y-131310100D01*
G75*
G02*
X69576800Y-131010100I300000J0D01*
G01*
X70476800Y-131010100D01*
G75*
G02*
X70776800Y-131310100I0J-300000D01*
G01*
G37*
%TD*%
%TO.C,D5*%
G36*
G01*
X83548500Y-111114000D02*
X82948500Y-111114000D01*
G75*
G02*
X82648500Y-110814000I0J300000D01*
G01*
X82648500Y-109914000D01*
G75*
G02*
X82948500Y-109614000I300000J0D01*
G01*
X83548500Y-109614000D01*
G75*
G02*
X83848500Y-109914000I0J-300000D01*
G01*
X83848500Y-110814000D01*
G75*
G02*
X83548500Y-111114000I-300000J0D01*
G01*
G37*
G36*
G01*
X83548500Y-114414000D02*
X82948500Y-114414000D01*
G75*
G02*
X82648500Y-114114000I0J300000D01*
G01*
X82648500Y-113214000D01*
G75*
G02*
X82948500Y-112914000I300000J0D01*
G01*
X83548500Y-112914000D01*
G75*
G02*
X83848500Y-113214000I0J-300000D01*
G01*
X83848500Y-114114000D01*
G75*
G02*
X83548500Y-114414000I-300000J0D01*
G01*
G37*
%TD*%
%TO.C,D4*%
G36*
G01*
X62396800Y-101909600D02*
X62396800Y-102509600D01*
G75*
G02*
X62096800Y-102809600I-300000J0D01*
G01*
X61196800Y-102809600D01*
G75*
G02*
X60896800Y-102509600I0J300000D01*
G01*
X60896800Y-101909600D01*
G75*
G02*
X61196800Y-101609600I300000J0D01*
G01*
X62096800Y-101609600D01*
G75*
G02*
X62396800Y-101909600I0J-300000D01*
G01*
G37*
G36*
G01*
X65696800Y-101909600D02*
X65696800Y-102509600D01*
G75*
G02*
X65396800Y-102809600I-300000J0D01*
G01*
X64496800Y-102809600D01*
G75*
G02*
X64196800Y-102509600I0J300000D01*
G01*
X64196800Y-101909600D01*
G75*
G02*
X64496800Y-101609600I300000J0D01*
G01*
X65396800Y-101609600D01*
G75*
G02*
X65696800Y-101909600I0J-300000D01*
G01*
G37*
%TD*%
%TO.C,D3*%
G36*
G01*
X126290500Y-93032300D02*
X126290500Y-93632300D01*
G75*
G02*
X125990500Y-93932300I-300000J0D01*
G01*
X125090500Y-93932300D01*
G75*
G02*
X124790500Y-93632300I0J300000D01*
G01*
X124790500Y-93032300D01*
G75*
G02*
X125090500Y-92732300I300000J0D01*
G01*
X125990500Y-92732300D01*
G75*
G02*
X126290500Y-93032300I0J-300000D01*
G01*
G37*
G36*
G01*
X129590500Y-93032300D02*
X129590500Y-93632300D01*
G75*
G02*
X129290500Y-93932300I-300000J0D01*
G01*
X128390500Y-93932300D01*
G75*
G02*
X128090500Y-93632300I0J300000D01*
G01*
X128090500Y-93032300D01*
G75*
G02*
X128390500Y-92732300I300000J0D01*
G01*
X129290500Y-92732300D01*
G75*
G02*
X129590500Y-93032300I0J-300000D01*
G01*
G37*
%TD*%
D12*
%TO.C,U30*%
X92310400Y-128398000D03*
X88960400Y-125348000D03*
X92310400Y-125348000D03*
X88960400Y-128398000D03*
D13*
X96935400Y-129153000D03*
X96935400Y-124593000D03*
%TD*%
D12*
%TO.C,U28*%
X95231400Y-153798000D03*
X91881400Y-150748000D03*
X95231400Y-150748000D03*
X91881400Y-153798000D03*
D13*
X99856400Y-154553000D03*
X99856400Y-149993000D03*
%TD*%
%TO.C,R44*%
G36*
G01*
X102251500Y-115031000D02*
X102726500Y-115031000D01*
G75*
G02*
X102964000Y-115268500I0J-237500D01*
G01*
X102964000Y-115843500D01*
G75*
G02*
X102726500Y-116081000I-237500J0D01*
G01*
X102251500Y-116081000D01*
G75*
G02*
X102014000Y-115843500I0J237500D01*
G01*
X102014000Y-115268500D01*
G75*
G02*
X102251500Y-115031000I237500J0D01*
G01*
G37*
G36*
G01*
X102251500Y-113281000D02*
X102726500Y-113281000D01*
G75*
G02*
X102964000Y-113518500I0J-237500D01*
G01*
X102964000Y-114093500D01*
G75*
G02*
X102726500Y-114331000I-237500J0D01*
G01*
X102251500Y-114331000D01*
G75*
G02*
X102014000Y-114093500I0J237500D01*
G01*
X102014000Y-113518500D01*
G75*
G02*
X102251500Y-113281000I237500J0D01*
G01*
G37*
%TD*%
%TO.C,R43*%
G36*
G01*
X103927900Y-113189500D02*
X104402900Y-113189500D01*
G75*
G02*
X104640400Y-113427000I0J-237500D01*
G01*
X104640400Y-114002000D01*
G75*
G02*
X104402900Y-114239500I-237500J0D01*
G01*
X103927900Y-114239500D01*
G75*
G02*
X103690400Y-114002000I0J237500D01*
G01*
X103690400Y-113427000D01*
G75*
G02*
X103927900Y-113189500I237500J0D01*
G01*
G37*
G36*
G01*
X103927900Y-111439500D02*
X104402900Y-111439500D01*
G75*
G02*
X104640400Y-111677000I0J-237500D01*
G01*
X104640400Y-112252000D01*
G75*
G02*
X104402900Y-112489500I-237500J0D01*
G01*
X103927900Y-112489500D01*
G75*
G02*
X103690400Y-112252000I0J237500D01*
G01*
X103690400Y-111677000D01*
G75*
G02*
X103927900Y-111439500I237500J0D01*
G01*
G37*
%TD*%
%TO.C,R40*%
G36*
G01*
X103343700Y-141675600D02*
X103818700Y-141675600D01*
G75*
G02*
X104056200Y-141913100I0J-237500D01*
G01*
X104056200Y-142488100D01*
G75*
G02*
X103818700Y-142725600I-237500J0D01*
G01*
X103343700Y-142725600D01*
G75*
G02*
X103106200Y-142488100I0J237500D01*
G01*
X103106200Y-141913100D01*
G75*
G02*
X103343700Y-141675600I237500J0D01*
G01*
G37*
G36*
G01*
X103343700Y-139925600D02*
X103818700Y-139925600D01*
G75*
G02*
X104056200Y-140163100I0J-237500D01*
G01*
X104056200Y-140738100D01*
G75*
G02*
X103818700Y-140975600I-237500J0D01*
G01*
X103343700Y-140975600D01*
G75*
G02*
X103106200Y-140738100I0J237500D01*
G01*
X103106200Y-140163100D01*
G75*
G02*
X103343700Y-139925600I237500J0D01*
G01*
G37*
%TD*%
%TO.C,R39*%
G36*
G01*
X105401100Y-141662900D02*
X105876100Y-141662900D01*
G75*
G02*
X106113600Y-141900400I0J-237500D01*
G01*
X106113600Y-142475400D01*
G75*
G02*
X105876100Y-142712900I-237500J0D01*
G01*
X105401100Y-142712900D01*
G75*
G02*
X105163600Y-142475400I0J237500D01*
G01*
X105163600Y-141900400D01*
G75*
G02*
X105401100Y-141662900I237500J0D01*
G01*
G37*
G36*
G01*
X105401100Y-139912900D02*
X105876100Y-139912900D01*
G75*
G02*
X106113600Y-140150400I0J-237500D01*
G01*
X106113600Y-140725400D01*
G75*
G02*
X105876100Y-140962900I-237500J0D01*
G01*
X105401100Y-140962900D01*
G75*
G02*
X105163600Y-140725400I0J237500D01*
G01*
X105163600Y-140150400D01*
G75*
G02*
X105401100Y-139912900I237500J0D01*
G01*
G37*
%TD*%
%TO.C,C171*%
G36*
G01*
X98847900Y-134558520D02*
X99322900Y-134558520D01*
G75*
G02*
X99560400Y-134796020I0J-237500D01*
G01*
X99560400Y-135371020D01*
G75*
G02*
X99322900Y-135608520I-237500J0D01*
G01*
X98847900Y-135608520D01*
G75*
G02*
X98610400Y-135371020I0J237500D01*
G01*
X98610400Y-134796020D01*
G75*
G02*
X98847900Y-134558520I237500J0D01*
G01*
G37*
G36*
G01*
X98847900Y-132808520D02*
X99322900Y-132808520D01*
G75*
G02*
X99560400Y-133046020I0J-237500D01*
G01*
X99560400Y-133621020D01*
G75*
G02*
X99322900Y-133858520I-237500J0D01*
G01*
X98847900Y-133858520D01*
G75*
G02*
X98610400Y-133621020I0J237500D01*
G01*
X98610400Y-133046020D01*
G75*
G02*
X98847900Y-132808520I237500J0D01*
G01*
G37*
%TD*%
%TO.C,C170*%
G36*
G01*
X98949500Y-115005600D02*
X99424500Y-115005600D01*
G75*
G02*
X99662000Y-115243100I0J-237500D01*
G01*
X99662000Y-115818100D01*
G75*
G02*
X99424500Y-116055600I-237500J0D01*
G01*
X98949500Y-116055600D01*
G75*
G02*
X98712000Y-115818100I0J237500D01*
G01*
X98712000Y-115243100D01*
G75*
G02*
X98949500Y-115005600I237500J0D01*
G01*
G37*
G36*
G01*
X98949500Y-113255600D02*
X99424500Y-113255600D01*
G75*
G02*
X99662000Y-113493100I0J-237500D01*
G01*
X99662000Y-114068100D01*
G75*
G02*
X99424500Y-114305600I-237500J0D01*
G01*
X98949500Y-114305600D01*
G75*
G02*
X98712000Y-114068100I0J237500D01*
G01*
X98712000Y-113493100D01*
G75*
G02*
X98949500Y-113255600I237500J0D01*
G01*
G37*
%TD*%
%TO.C,C169*%
G36*
G01*
X97676980Y-133858520D02*
X97201980Y-133858520D01*
G75*
G02*
X96964480Y-133621020I0J237500D01*
G01*
X96964480Y-133046020D01*
G75*
G02*
X97201980Y-132808520I237500J0D01*
G01*
X97676980Y-132808520D01*
G75*
G02*
X97914480Y-133046020I0J-237500D01*
G01*
X97914480Y-133621020D01*
G75*
G02*
X97676980Y-133858520I-237500J0D01*
G01*
G37*
G36*
G01*
X97676980Y-135608520D02*
X97201980Y-135608520D01*
G75*
G02*
X96964480Y-135371020I0J237500D01*
G01*
X96964480Y-134796020D01*
G75*
G02*
X97201980Y-134558520I237500J0D01*
G01*
X97676980Y-134558520D01*
G75*
G02*
X97914480Y-134796020I0J-237500D01*
G01*
X97914480Y-135371020D01*
G75*
G02*
X97676980Y-135608520I-237500J0D01*
G01*
G37*
%TD*%
%TO.C,C168*%
G36*
G01*
X94237800Y-133814300D02*
X94712800Y-133814300D01*
G75*
G02*
X94950300Y-134051800I0J-237500D01*
G01*
X94950300Y-134626800D01*
G75*
G02*
X94712800Y-134864300I-237500J0D01*
G01*
X94237800Y-134864300D01*
G75*
G02*
X94000300Y-134626800I0J237500D01*
G01*
X94000300Y-134051800D01*
G75*
G02*
X94237800Y-133814300I237500J0D01*
G01*
G37*
G36*
G01*
X94237800Y-132064300D02*
X94712800Y-132064300D01*
G75*
G02*
X94950300Y-132301800I0J-237500D01*
G01*
X94950300Y-132876800D01*
G75*
G02*
X94712800Y-133114300I-237500J0D01*
G01*
X94237800Y-133114300D01*
G75*
G02*
X94000300Y-132876800I0J237500D01*
G01*
X94000300Y-132301800D01*
G75*
G02*
X94237800Y-132064300I237500J0D01*
G01*
G37*
%TD*%
%TO.C,C167*%
G36*
G01*
X92612200Y-133763500D02*
X93087200Y-133763500D01*
G75*
G02*
X93324700Y-134001000I0J-237500D01*
G01*
X93324700Y-134576000D01*
G75*
G02*
X93087200Y-134813500I-237500J0D01*
G01*
X92612200Y-134813500D01*
G75*
G02*
X92374700Y-134576000I0J237500D01*
G01*
X92374700Y-134001000D01*
G75*
G02*
X92612200Y-133763500I237500J0D01*
G01*
G37*
G36*
G01*
X92612200Y-132013500D02*
X93087200Y-132013500D01*
G75*
G02*
X93324700Y-132251000I0J-237500D01*
G01*
X93324700Y-132826000D01*
G75*
G02*
X93087200Y-133063500I-237500J0D01*
G01*
X92612200Y-133063500D01*
G75*
G02*
X92374700Y-132826000I0J237500D01*
G01*
X92374700Y-132251000D01*
G75*
G02*
X92612200Y-132013500I237500J0D01*
G01*
G37*
%TD*%
%TO.C,C166*%
G36*
G01*
X100575100Y-115031000D02*
X101050100Y-115031000D01*
G75*
G02*
X101287600Y-115268500I0J-237500D01*
G01*
X101287600Y-115843500D01*
G75*
G02*
X101050100Y-116081000I-237500J0D01*
G01*
X100575100Y-116081000D01*
G75*
G02*
X100337600Y-115843500I0J237500D01*
G01*
X100337600Y-115268500D01*
G75*
G02*
X100575100Y-115031000I237500J0D01*
G01*
G37*
G36*
G01*
X100575100Y-113281000D02*
X101050100Y-113281000D01*
G75*
G02*
X101287600Y-113518500I0J-237500D01*
G01*
X101287600Y-114093500D01*
G75*
G02*
X101050100Y-114331000I-237500J0D01*
G01*
X100575100Y-114331000D01*
G75*
G02*
X100337600Y-114093500I0J237500D01*
G01*
X100337600Y-113518500D01*
G75*
G02*
X100575100Y-113281000I237500J0D01*
G01*
G37*
%TD*%
%TO.C,C165*%
G36*
G01*
X102487740Y-132253240D02*
X102012740Y-132253240D01*
G75*
G02*
X101775240Y-132015740I0J237500D01*
G01*
X101775240Y-131440740D01*
G75*
G02*
X102012740Y-131203240I237500J0D01*
G01*
X102487740Y-131203240D01*
G75*
G02*
X102725240Y-131440740I0J-237500D01*
G01*
X102725240Y-132015740D01*
G75*
G02*
X102487740Y-132253240I-237500J0D01*
G01*
G37*
G36*
G01*
X102487740Y-134003240D02*
X102012740Y-134003240D01*
G75*
G02*
X101775240Y-133765740I0J237500D01*
G01*
X101775240Y-133190740D01*
G75*
G02*
X102012740Y-132953240I237500J0D01*
G01*
X102487740Y-132953240D01*
G75*
G02*
X102725240Y-133190740I0J-237500D01*
G01*
X102725240Y-133765740D01*
G75*
G02*
X102487740Y-134003240I-237500J0D01*
G01*
G37*
%TD*%
%TO.C,C164*%
G36*
G01*
X100854520Y-132255780D02*
X100379520Y-132255780D01*
G75*
G02*
X100142020Y-132018280I0J237500D01*
G01*
X100142020Y-131443280D01*
G75*
G02*
X100379520Y-131205780I237500J0D01*
G01*
X100854520Y-131205780D01*
G75*
G02*
X101092020Y-131443280I0J-237500D01*
G01*
X101092020Y-132018280D01*
G75*
G02*
X100854520Y-132255780I-237500J0D01*
G01*
G37*
G36*
G01*
X100854520Y-134005780D02*
X100379520Y-134005780D01*
G75*
G02*
X100142020Y-133768280I0J237500D01*
G01*
X100142020Y-133193280D01*
G75*
G02*
X100379520Y-132955780I237500J0D01*
G01*
X100854520Y-132955780D01*
G75*
G02*
X101092020Y-133193280I0J-237500D01*
G01*
X101092020Y-133768280D01*
G75*
G02*
X100854520Y-134005780I-237500J0D01*
G01*
G37*
%TD*%
%TO.C,C163*%
G36*
G01*
X105566200Y-112399560D02*
X106041200Y-112399560D01*
G75*
G02*
X106278700Y-112637060I0J-237500D01*
G01*
X106278700Y-113212060D01*
G75*
G02*
X106041200Y-113449560I-237500J0D01*
G01*
X105566200Y-113449560D01*
G75*
G02*
X105328700Y-113212060I0J237500D01*
G01*
X105328700Y-112637060D01*
G75*
G02*
X105566200Y-112399560I237500J0D01*
G01*
G37*
G36*
G01*
X105566200Y-110649560D02*
X106041200Y-110649560D01*
G75*
G02*
X106278700Y-110887060I0J-237500D01*
G01*
X106278700Y-111462060D01*
G75*
G02*
X106041200Y-111699560I-237500J0D01*
G01*
X105566200Y-111699560D01*
G75*
G02*
X105328700Y-111462060I0J237500D01*
G01*
X105328700Y-110887060D01*
G75*
G02*
X105566200Y-110649560I237500J0D01*
G01*
G37*
%TD*%
%TO.C,C162*%
G36*
G01*
X107395000Y-112399560D02*
X107870000Y-112399560D01*
G75*
G02*
X108107500Y-112637060I0J-237500D01*
G01*
X108107500Y-113212060D01*
G75*
G02*
X107870000Y-113449560I-237500J0D01*
G01*
X107395000Y-113449560D01*
G75*
G02*
X107157500Y-113212060I0J237500D01*
G01*
X107157500Y-112637060D01*
G75*
G02*
X107395000Y-112399560I237500J0D01*
G01*
G37*
G36*
G01*
X107395000Y-110649560D02*
X107870000Y-110649560D01*
G75*
G02*
X108107500Y-110887060I0J-237500D01*
G01*
X108107500Y-111462060D01*
G75*
G02*
X107870000Y-111699560I-237500J0D01*
G01*
X107395000Y-111699560D01*
G75*
G02*
X107157500Y-111462060I0J237500D01*
G01*
X107157500Y-110887060D01*
G75*
G02*
X107395000Y-110649560I237500J0D01*
G01*
G37*
%TD*%
%TO.C,C161*%
G36*
G01*
X100584520Y-127514340D02*
X100584520Y-127989340D01*
G75*
G02*
X100347020Y-128226840I-237500J0D01*
G01*
X99772020Y-128226840D01*
G75*
G02*
X99534520Y-127989340I0J237500D01*
G01*
X99534520Y-127514340D01*
G75*
G02*
X99772020Y-127276840I237500J0D01*
G01*
X100347020Y-127276840D01*
G75*
G02*
X100584520Y-127514340I0J-237500D01*
G01*
G37*
G36*
G01*
X102334520Y-127514340D02*
X102334520Y-127989340D01*
G75*
G02*
X102097020Y-128226840I-237500J0D01*
G01*
X101522020Y-128226840D01*
G75*
G02*
X101284520Y-127989340I0J237500D01*
G01*
X101284520Y-127514340D01*
G75*
G02*
X101522020Y-127276840I237500J0D01*
G01*
X102097020Y-127276840D01*
G75*
G02*
X102334520Y-127514340I0J-237500D01*
G01*
G37*
%TD*%
%TO.C,C160*%
G36*
G01*
X97365300Y-148268700D02*
X97365300Y-147793700D01*
G75*
G02*
X97602800Y-147556200I237500J0D01*
G01*
X98177800Y-147556200D01*
G75*
G02*
X98415300Y-147793700I0J-237500D01*
G01*
X98415300Y-148268700D01*
G75*
G02*
X98177800Y-148506200I-237500J0D01*
G01*
X97602800Y-148506200D01*
G75*
G02*
X97365300Y-148268700I0J237500D01*
G01*
G37*
G36*
G01*
X95615300Y-148268700D02*
X95615300Y-147793700D01*
G75*
G02*
X95852800Y-147556200I237500J0D01*
G01*
X96427800Y-147556200D01*
G75*
G02*
X96665300Y-147793700I0J-237500D01*
G01*
X96665300Y-148268700D01*
G75*
G02*
X96427800Y-148506200I-237500J0D01*
G01*
X95852800Y-148506200D01*
G75*
G02*
X95615300Y-148268700I0J237500D01*
G01*
G37*
%TD*%
%TO.C,C159*%
G36*
G01*
X101810300Y-124595900D02*
X101810300Y-124120900D01*
G75*
G02*
X102047800Y-123883400I237500J0D01*
G01*
X102622800Y-123883400D01*
G75*
G02*
X102860300Y-124120900I0J-237500D01*
G01*
X102860300Y-124595900D01*
G75*
G02*
X102622800Y-124833400I-237500J0D01*
G01*
X102047800Y-124833400D01*
G75*
G02*
X101810300Y-124595900I0J237500D01*
G01*
G37*
G36*
G01*
X100060300Y-124595900D02*
X100060300Y-124120900D01*
G75*
G02*
X100297800Y-123883400I237500J0D01*
G01*
X100872800Y-123883400D01*
G75*
G02*
X101110300Y-124120900I0J-237500D01*
G01*
X101110300Y-124595900D01*
G75*
G02*
X100872800Y-124833400I-237500J0D01*
G01*
X100297800Y-124833400D01*
G75*
G02*
X100060300Y-124595900I0J237500D01*
G01*
G37*
%TD*%
%TO.C,C158*%
G36*
G01*
X98878400Y-158742900D02*
X98403400Y-158742900D01*
G75*
G02*
X98165900Y-158505400I0J237500D01*
G01*
X98165900Y-157930400D01*
G75*
G02*
X98403400Y-157692900I237500J0D01*
G01*
X98878400Y-157692900D01*
G75*
G02*
X99115900Y-157930400I0J-237500D01*
G01*
X99115900Y-158505400D01*
G75*
G02*
X98878400Y-158742900I-237500J0D01*
G01*
G37*
G36*
G01*
X98878400Y-160492900D02*
X98403400Y-160492900D01*
G75*
G02*
X98165900Y-160255400I0J237500D01*
G01*
X98165900Y-159680400D01*
G75*
G02*
X98403400Y-159442900I237500J0D01*
G01*
X98878400Y-159442900D01*
G75*
G02*
X99115900Y-159680400I0J-237500D01*
G01*
X99115900Y-160255400D01*
G75*
G02*
X98878400Y-160492900I-237500J0D01*
G01*
G37*
%TD*%
%TO.C,C157*%
G36*
G01*
X100163620Y-141695920D02*
X100638620Y-141695920D01*
G75*
G02*
X100876120Y-141933420I0J-237500D01*
G01*
X100876120Y-142508420D01*
G75*
G02*
X100638620Y-142745920I-237500J0D01*
G01*
X100163620Y-142745920D01*
G75*
G02*
X99926120Y-142508420I0J237500D01*
G01*
X99926120Y-141933420D01*
G75*
G02*
X100163620Y-141695920I237500J0D01*
G01*
G37*
G36*
G01*
X100163620Y-139945920D02*
X100638620Y-139945920D01*
G75*
G02*
X100876120Y-140183420I0J-237500D01*
G01*
X100876120Y-140758420D01*
G75*
G02*
X100638620Y-140995920I-237500J0D01*
G01*
X100163620Y-140995920D01*
G75*
G02*
X99926120Y-140758420I0J237500D01*
G01*
X99926120Y-140183420D01*
G75*
G02*
X100163620Y-139945920I237500J0D01*
G01*
G37*
%TD*%
%TO.C,C156*%
G36*
G01*
X99978200Y-159442900D02*
X100453200Y-159442900D01*
G75*
G02*
X100690700Y-159680400I0J-237500D01*
G01*
X100690700Y-160255400D01*
G75*
G02*
X100453200Y-160492900I-237500J0D01*
G01*
X99978200Y-160492900D01*
G75*
G02*
X99740700Y-160255400I0J237500D01*
G01*
X99740700Y-159680400D01*
G75*
G02*
X99978200Y-159442900I237500J0D01*
G01*
G37*
G36*
G01*
X99978200Y-157692900D02*
X100453200Y-157692900D01*
G75*
G02*
X100690700Y-157930400I0J-237500D01*
G01*
X100690700Y-158505400D01*
G75*
G02*
X100453200Y-158742900I-237500J0D01*
G01*
X99978200Y-158742900D01*
G75*
G02*
X99740700Y-158505400I0J237500D01*
G01*
X99740700Y-157930400D01*
G75*
G02*
X99978200Y-157692900I237500J0D01*
G01*
G37*
%TD*%
%TO.C,C155*%
G36*
G01*
X94936300Y-159379400D02*
X95411300Y-159379400D01*
G75*
G02*
X95648800Y-159616900I0J-237500D01*
G01*
X95648800Y-160191900D01*
G75*
G02*
X95411300Y-160429400I-237500J0D01*
G01*
X94936300Y-160429400D01*
G75*
G02*
X94698800Y-160191900I0J237500D01*
G01*
X94698800Y-159616900D01*
G75*
G02*
X94936300Y-159379400I237500J0D01*
G01*
G37*
G36*
G01*
X94936300Y-157629400D02*
X95411300Y-157629400D01*
G75*
G02*
X95648800Y-157866900I0J-237500D01*
G01*
X95648800Y-158441900D01*
G75*
G02*
X95411300Y-158679400I-237500J0D01*
G01*
X94936300Y-158679400D01*
G75*
G02*
X94698800Y-158441900I0J237500D01*
G01*
X94698800Y-157866900D01*
G75*
G02*
X94936300Y-157629400I237500J0D01*
G01*
G37*
%TD*%
%TO.C,C154*%
G36*
G01*
X96511100Y-159417500D02*
X96986100Y-159417500D01*
G75*
G02*
X97223600Y-159655000I0J-237500D01*
G01*
X97223600Y-160230000D01*
G75*
G02*
X96986100Y-160467500I-237500J0D01*
G01*
X96511100Y-160467500D01*
G75*
G02*
X96273600Y-160230000I0J237500D01*
G01*
X96273600Y-159655000D01*
G75*
G02*
X96511100Y-159417500I237500J0D01*
G01*
G37*
G36*
G01*
X96511100Y-157667500D02*
X96986100Y-157667500D01*
G75*
G02*
X97223600Y-157905000I0J-237500D01*
G01*
X97223600Y-158480000D01*
G75*
G02*
X96986100Y-158717500I-237500J0D01*
G01*
X96511100Y-158717500D01*
G75*
G02*
X96273600Y-158480000I0J237500D01*
G01*
X96273600Y-157905000D01*
G75*
G02*
X96511100Y-157667500I237500J0D01*
G01*
G37*
%TD*%
%TO.C,C153*%
G36*
G01*
X101768900Y-141695920D02*
X102243900Y-141695920D01*
G75*
G02*
X102481400Y-141933420I0J-237500D01*
G01*
X102481400Y-142508420D01*
G75*
G02*
X102243900Y-142745920I-237500J0D01*
G01*
X101768900Y-142745920D01*
G75*
G02*
X101531400Y-142508420I0J237500D01*
G01*
X101531400Y-141933420D01*
G75*
G02*
X101768900Y-141695920I237500J0D01*
G01*
G37*
G36*
G01*
X101768900Y-139945920D02*
X102243900Y-139945920D01*
G75*
G02*
X102481400Y-140183420I0J-237500D01*
G01*
X102481400Y-140758420D01*
G75*
G02*
X102243900Y-140995920I-237500J0D01*
G01*
X101768900Y-140995920D01*
G75*
G02*
X101531400Y-140758420I0J237500D01*
G01*
X101531400Y-140183420D01*
G75*
G02*
X101768900Y-139945920I237500J0D01*
G01*
G37*
%TD*%
%TO.C,C152*%
G36*
G01*
X105063300Y-158831800D02*
X104588300Y-158831800D01*
G75*
G02*
X104350800Y-158594300I0J237500D01*
G01*
X104350800Y-158019300D01*
G75*
G02*
X104588300Y-157781800I237500J0D01*
G01*
X105063300Y-157781800D01*
G75*
G02*
X105300800Y-158019300I0J-237500D01*
G01*
X105300800Y-158594300D01*
G75*
G02*
X105063300Y-158831800I-237500J0D01*
G01*
G37*
G36*
G01*
X105063300Y-160581800D02*
X104588300Y-160581800D01*
G75*
G02*
X104350800Y-160344300I0J237500D01*
G01*
X104350800Y-159769300D01*
G75*
G02*
X104588300Y-159531800I237500J0D01*
G01*
X105063300Y-159531800D01*
G75*
G02*
X105300800Y-159769300I0J-237500D01*
G01*
X105300800Y-160344300D01*
G75*
G02*
X105063300Y-160581800I-237500J0D01*
G01*
G37*
%TD*%
%TO.C,C151*%
G36*
G01*
X103463100Y-158882600D02*
X102988100Y-158882600D01*
G75*
G02*
X102750600Y-158645100I0J237500D01*
G01*
X102750600Y-158070100D01*
G75*
G02*
X102988100Y-157832600I237500J0D01*
G01*
X103463100Y-157832600D01*
G75*
G02*
X103700600Y-158070100I0J-237500D01*
G01*
X103700600Y-158645100D01*
G75*
G02*
X103463100Y-158882600I-237500J0D01*
G01*
G37*
G36*
G01*
X103463100Y-160632600D02*
X102988100Y-160632600D01*
G75*
G02*
X102750600Y-160395100I0J237500D01*
G01*
X102750600Y-159820100D01*
G75*
G02*
X102988100Y-159582600I237500J0D01*
G01*
X103463100Y-159582600D01*
G75*
G02*
X103700600Y-159820100I0J-237500D01*
G01*
X103700600Y-160395100D01*
G75*
G02*
X103463100Y-160632600I-237500J0D01*
G01*
G37*
%TD*%
%TO.C,C150*%
G36*
G01*
X110587800Y-114851700D02*
X110112800Y-114851700D01*
G75*
G02*
X109875300Y-114614200I0J237500D01*
G01*
X109875300Y-114039200D01*
G75*
G02*
X110112800Y-113801700I237500J0D01*
G01*
X110587800Y-113801700D01*
G75*
G02*
X110825300Y-114039200I0J-237500D01*
G01*
X110825300Y-114614200D01*
G75*
G02*
X110587800Y-114851700I-237500J0D01*
G01*
G37*
G36*
G01*
X110587800Y-116601700D02*
X110112800Y-116601700D01*
G75*
G02*
X109875300Y-116364200I0J237500D01*
G01*
X109875300Y-115789200D01*
G75*
G02*
X110112800Y-115551700I237500J0D01*
G01*
X110587800Y-115551700D01*
G75*
G02*
X110825300Y-115789200I0J-237500D01*
G01*
X110825300Y-116364200D01*
G75*
G02*
X110587800Y-116601700I-237500J0D01*
G01*
G37*
%TD*%
%TO.C,C149*%
G36*
G01*
X112213400Y-114851700D02*
X111738400Y-114851700D01*
G75*
G02*
X111500900Y-114614200I0J237500D01*
G01*
X111500900Y-114039200D01*
G75*
G02*
X111738400Y-113801700I237500J0D01*
G01*
X112213400Y-113801700D01*
G75*
G02*
X112450900Y-114039200I0J-237500D01*
G01*
X112450900Y-114614200D01*
G75*
G02*
X112213400Y-114851700I-237500J0D01*
G01*
G37*
G36*
G01*
X112213400Y-116601700D02*
X111738400Y-116601700D01*
G75*
G02*
X111500900Y-116364200I0J237500D01*
G01*
X111500900Y-115789200D01*
G75*
G02*
X111738400Y-115551700I237500J0D01*
G01*
X112213400Y-115551700D01*
G75*
G02*
X112450900Y-115789200I0J-237500D01*
G01*
X112450900Y-116364200D01*
G75*
G02*
X112213400Y-116601700I-237500J0D01*
G01*
G37*
%TD*%
%TO.C,C148*%
G36*
G01*
X102596200Y-151121100D02*
X102596200Y-151596100D01*
G75*
G02*
X102358700Y-151833600I-237500J0D01*
G01*
X101783700Y-151833600D01*
G75*
G02*
X101546200Y-151596100I0J237500D01*
G01*
X101546200Y-151121100D01*
G75*
G02*
X101783700Y-150883600I237500J0D01*
G01*
X102358700Y-150883600D01*
G75*
G02*
X102596200Y-151121100I0J-237500D01*
G01*
G37*
G36*
G01*
X104346200Y-151121100D02*
X104346200Y-151596100D01*
G75*
G02*
X104108700Y-151833600I-237500J0D01*
G01*
X103533700Y-151833600D01*
G75*
G02*
X103296200Y-151596100I0J237500D01*
G01*
X103296200Y-151121100D01*
G75*
G02*
X103533700Y-150883600I237500J0D01*
G01*
X104108700Y-150883600D01*
G75*
G02*
X104346200Y-151121100I0J-237500D01*
G01*
G37*
%TD*%
%TO.C,C147*%
G36*
G01*
X99104460Y-125364760D02*
X98629460Y-125364760D01*
G75*
G02*
X98391960Y-125127260I0J237500D01*
G01*
X98391960Y-124552260D01*
G75*
G02*
X98629460Y-124314760I237500J0D01*
G01*
X99104460Y-124314760D01*
G75*
G02*
X99341960Y-124552260I0J-237500D01*
G01*
X99341960Y-125127260D01*
G75*
G02*
X99104460Y-125364760I-237500J0D01*
G01*
G37*
G36*
G01*
X99104460Y-127114760D02*
X98629460Y-127114760D01*
G75*
G02*
X98391960Y-126877260I0J237500D01*
G01*
X98391960Y-126302260D01*
G75*
G02*
X98629460Y-126064760I237500J0D01*
G01*
X99104460Y-126064760D01*
G75*
G02*
X99341960Y-126302260I0J-237500D01*
G01*
X99341960Y-126877260D01*
G75*
G02*
X99104460Y-127114760I-237500J0D01*
G01*
G37*
%TD*%
%TO.C,C146*%
G36*
G01*
X103296200Y-153323300D02*
X103296200Y-152848300D01*
G75*
G02*
X103533700Y-152610800I237500J0D01*
G01*
X104108700Y-152610800D01*
G75*
G02*
X104346200Y-152848300I0J-237500D01*
G01*
X104346200Y-153323300D01*
G75*
G02*
X104108700Y-153560800I-237500J0D01*
G01*
X103533700Y-153560800D01*
G75*
G02*
X103296200Y-153323300I0J237500D01*
G01*
G37*
G36*
G01*
X101546200Y-153323300D02*
X101546200Y-152848300D01*
G75*
G02*
X101783700Y-152610800I237500J0D01*
G01*
X102358700Y-152610800D01*
G75*
G02*
X102596200Y-152848300I0J-237500D01*
G01*
X102596200Y-153323300D01*
G75*
G02*
X102358700Y-153560800I-237500J0D01*
G01*
X101783700Y-153560800D01*
G75*
G02*
X101546200Y-153323300I0J237500D01*
G01*
G37*
%TD*%
%TO.C,C144*%
G36*
G01*
X57489100Y-133508000D02*
X57014100Y-133508000D01*
G75*
G02*
X56776600Y-133270500I0J237500D01*
G01*
X56776600Y-132695500D01*
G75*
G02*
X57014100Y-132458000I237500J0D01*
G01*
X57489100Y-132458000D01*
G75*
G02*
X57726600Y-132695500I0J-237500D01*
G01*
X57726600Y-133270500D01*
G75*
G02*
X57489100Y-133508000I-237500J0D01*
G01*
G37*
G36*
G01*
X57489100Y-135258000D02*
X57014100Y-135258000D01*
G75*
G02*
X56776600Y-135020500I0J237500D01*
G01*
X56776600Y-134445500D01*
G75*
G02*
X57014100Y-134208000I237500J0D01*
G01*
X57489100Y-134208000D01*
G75*
G02*
X57726600Y-134445500I0J-237500D01*
G01*
X57726600Y-135020500D01*
G75*
G02*
X57489100Y-135258000I-237500J0D01*
G01*
G37*
%TD*%
%TO.C,C145*%
G36*
G01*
X51570900Y-135413000D02*
X51095900Y-135413000D01*
G75*
G02*
X50858400Y-135175500I0J237500D01*
G01*
X50858400Y-134600500D01*
G75*
G02*
X51095900Y-134363000I237500J0D01*
G01*
X51570900Y-134363000D01*
G75*
G02*
X51808400Y-134600500I0J-237500D01*
G01*
X51808400Y-135175500D01*
G75*
G02*
X51570900Y-135413000I-237500J0D01*
G01*
G37*
G36*
G01*
X51570900Y-137163000D02*
X51095900Y-137163000D01*
G75*
G02*
X50858400Y-136925500I0J237500D01*
G01*
X50858400Y-136350500D01*
G75*
G02*
X51095900Y-136113000I237500J0D01*
G01*
X51570900Y-136113000D01*
G75*
G02*
X51808400Y-136350500I0J-237500D01*
G01*
X51808400Y-136925500D01*
G75*
G02*
X51570900Y-137163000I-237500J0D01*
G01*
G37*
%TD*%
%TO.C,R38*%
G36*
G01*
X121160020Y-119592100D02*
X121160020Y-119117100D01*
G75*
G02*
X121397520Y-118879600I237500J0D01*
G01*
X121972520Y-118879600D01*
G75*
G02*
X122210020Y-119117100I0J-237500D01*
G01*
X122210020Y-119592100D01*
G75*
G02*
X121972520Y-119829600I-237500J0D01*
G01*
X121397520Y-119829600D01*
G75*
G02*
X121160020Y-119592100I0J237500D01*
G01*
G37*
G36*
G01*
X119410020Y-119592100D02*
X119410020Y-119117100D01*
G75*
G02*
X119647520Y-118879600I237500J0D01*
G01*
X120222520Y-118879600D01*
G75*
G02*
X120460020Y-119117100I0J-237500D01*
G01*
X120460020Y-119592100D01*
G75*
G02*
X120222520Y-119829600I-237500J0D01*
G01*
X119647520Y-119829600D01*
G75*
G02*
X119410020Y-119592100I0J237500D01*
G01*
G37*
%TD*%
%TO.C,C143*%
G36*
G01*
X110778300Y-127488200D02*
X110303300Y-127488200D01*
G75*
G02*
X110065800Y-127250700I0J237500D01*
G01*
X110065800Y-126675700D01*
G75*
G02*
X110303300Y-126438200I237500J0D01*
G01*
X110778300Y-126438200D01*
G75*
G02*
X111015800Y-126675700I0J-237500D01*
G01*
X111015800Y-127250700D01*
G75*
G02*
X110778300Y-127488200I-237500J0D01*
G01*
G37*
G36*
G01*
X110778300Y-129238200D02*
X110303300Y-129238200D01*
G75*
G02*
X110065800Y-129000700I0J237500D01*
G01*
X110065800Y-128425700D01*
G75*
G02*
X110303300Y-128188200I237500J0D01*
G01*
X110778300Y-128188200D01*
G75*
G02*
X111015800Y-128425700I0J-237500D01*
G01*
X111015800Y-129000700D01*
G75*
G02*
X110778300Y-129238200I-237500J0D01*
G01*
G37*
%TD*%
%TO.C,C142*%
G36*
G01*
X112353100Y-127513600D02*
X111878100Y-127513600D01*
G75*
G02*
X111640600Y-127276100I0J237500D01*
G01*
X111640600Y-126701100D01*
G75*
G02*
X111878100Y-126463600I237500J0D01*
G01*
X112353100Y-126463600D01*
G75*
G02*
X112590600Y-126701100I0J-237500D01*
G01*
X112590600Y-127276100D01*
G75*
G02*
X112353100Y-127513600I-237500J0D01*
G01*
G37*
G36*
G01*
X112353100Y-129263600D02*
X111878100Y-129263600D01*
G75*
G02*
X111640600Y-129026100I0J237500D01*
G01*
X111640600Y-128451100D01*
G75*
G02*
X111878100Y-128213600I237500J0D01*
G01*
X112353100Y-128213600D01*
G75*
G02*
X112590600Y-128451100I0J-237500D01*
G01*
X112590600Y-129026100D01*
G75*
G02*
X112353100Y-129263600I-237500J0D01*
G01*
G37*
%TD*%
%TO.C,C139*%
G36*
G01*
X120860300Y-127745500D02*
X120860300Y-127270500D01*
G75*
G02*
X121097800Y-127033000I237500J0D01*
G01*
X121672800Y-127033000D01*
G75*
G02*
X121910300Y-127270500I0J-237500D01*
G01*
X121910300Y-127745500D01*
G75*
G02*
X121672800Y-127983000I-237500J0D01*
G01*
X121097800Y-127983000D01*
G75*
G02*
X120860300Y-127745500I0J237500D01*
G01*
G37*
G36*
G01*
X119110300Y-127745500D02*
X119110300Y-127270500D01*
G75*
G02*
X119347800Y-127033000I237500J0D01*
G01*
X119922800Y-127033000D01*
G75*
G02*
X120160300Y-127270500I0J-237500D01*
G01*
X120160300Y-127745500D01*
G75*
G02*
X119922800Y-127983000I-237500J0D01*
G01*
X119347800Y-127983000D01*
G75*
G02*
X119110300Y-127745500I0J237500D01*
G01*
G37*
%TD*%
%TO.C,C141*%
G36*
G01*
X124425700Y-120497080D02*
X124900700Y-120497080D01*
G75*
G02*
X125138200Y-120734580I0J-237500D01*
G01*
X125138200Y-121309580D01*
G75*
G02*
X124900700Y-121547080I-237500J0D01*
G01*
X124425700Y-121547080D01*
G75*
G02*
X124188200Y-121309580I0J237500D01*
G01*
X124188200Y-120734580D01*
G75*
G02*
X124425700Y-120497080I237500J0D01*
G01*
G37*
G36*
G01*
X124425700Y-118747080D02*
X124900700Y-118747080D01*
G75*
G02*
X125138200Y-118984580I0J-237500D01*
G01*
X125138200Y-119559580D01*
G75*
G02*
X124900700Y-119797080I-237500J0D01*
G01*
X124425700Y-119797080D01*
G75*
G02*
X124188200Y-119559580I0J237500D01*
G01*
X124188200Y-118984580D01*
G75*
G02*
X124425700Y-118747080I237500J0D01*
G01*
G37*
%TD*%
%TO.C,C140*%
G36*
G01*
X120900200Y-121417600D02*
X120425200Y-121417600D01*
G75*
G02*
X120187700Y-121180100I0J237500D01*
G01*
X120187700Y-120605100D01*
G75*
G02*
X120425200Y-120367600I237500J0D01*
G01*
X120900200Y-120367600D01*
G75*
G02*
X121137700Y-120605100I0J-237500D01*
G01*
X121137700Y-121180100D01*
G75*
G02*
X120900200Y-121417600I-237500J0D01*
G01*
G37*
G36*
G01*
X120900200Y-123167600D02*
X120425200Y-123167600D01*
G75*
G02*
X120187700Y-122930100I0J237500D01*
G01*
X120187700Y-122355100D01*
G75*
G02*
X120425200Y-122117600I237500J0D01*
G01*
X120900200Y-122117600D01*
G75*
G02*
X121137700Y-122355100I0J-237500D01*
G01*
X121137700Y-122930100D01*
G75*
G02*
X120900200Y-123167600I-237500J0D01*
G01*
G37*
%TD*%
%TO.C,C138*%
G36*
G01*
X115070900Y-136632200D02*
X114595900Y-136632200D01*
G75*
G02*
X114358400Y-136394700I0J237500D01*
G01*
X114358400Y-135819700D01*
G75*
G02*
X114595900Y-135582200I237500J0D01*
G01*
X115070900Y-135582200D01*
G75*
G02*
X115308400Y-135819700I0J-237500D01*
G01*
X115308400Y-136394700D01*
G75*
G02*
X115070900Y-136632200I-237500J0D01*
G01*
G37*
G36*
G01*
X115070900Y-138382200D02*
X114595900Y-138382200D01*
G75*
G02*
X114358400Y-138144700I0J237500D01*
G01*
X114358400Y-137569700D01*
G75*
G02*
X114595900Y-137332200I237500J0D01*
G01*
X115070900Y-137332200D01*
G75*
G02*
X115308400Y-137569700I0J-237500D01*
G01*
X115308400Y-138144700D01*
G75*
G02*
X115070900Y-138382200I-237500J0D01*
G01*
G37*
%TD*%
%TO.C,C137*%
G36*
G01*
X113470700Y-136835400D02*
X112995700Y-136835400D01*
G75*
G02*
X112758200Y-136597900I0J237500D01*
G01*
X112758200Y-136022900D01*
G75*
G02*
X112995700Y-135785400I237500J0D01*
G01*
X113470700Y-135785400D01*
G75*
G02*
X113708200Y-136022900I0J-237500D01*
G01*
X113708200Y-136597900D01*
G75*
G02*
X113470700Y-136835400I-237500J0D01*
G01*
G37*
G36*
G01*
X113470700Y-138585400D02*
X112995700Y-138585400D01*
G75*
G02*
X112758200Y-138347900I0J237500D01*
G01*
X112758200Y-137772900D01*
G75*
G02*
X112995700Y-137535400I237500J0D01*
G01*
X113470700Y-137535400D01*
G75*
G02*
X113708200Y-137772900I0J-237500D01*
G01*
X113708200Y-138347900D01*
G75*
G02*
X113470700Y-138585400I-237500J0D01*
G01*
G37*
%TD*%
%TO.C,C136*%
G36*
G01*
X113915180Y-127385560D02*
X114390180Y-127385560D01*
G75*
G02*
X114627680Y-127623060I0J-237500D01*
G01*
X114627680Y-128198060D01*
G75*
G02*
X114390180Y-128435560I-237500J0D01*
G01*
X113915180Y-128435560D01*
G75*
G02*
X113677680Y-128198060I0J237500D01*
G01*
X113677680Y-127623060D01*
G75*
G02*
X113915180Y-127385560I237500J0D01*
G01*
G37*
G36*
G01*
X113915180Y-125635560D02*
X114390180Y-125635560D01*
G75*
G02*
X114627680Y-125873060I0J-237500D01*
G01*
X114627680Y-126448060D01*
G75*
G02*
X114390180Y-126685560I-237500J0D01*
G01*
X113915180Y-126685560D01*
G75*
G02*
X113677680Y-126448060I0J237500D01*
G01*
X113677680Y-125873060D01*
G75*
G02*
X113915180Y-125635560I237500J0D01*
G01*
G37*
%TD*%
%TO.C,C135*%
G36*
G01*
X115459500Y-127431280D02*
X115934500Y-127431280D01*
G75*
G02*
X116172000Y-127668780I0J-237500D01*
G01*
X116172000Y-128243780D01*
G75*
G02*
X115934500Y-128481280I-237500J0D01*
G01*
X115459500Y-128481280D01*
G75*
G02*
X115222000Y-128243780I0J237500D01*
G01*
X115222000Y-127668780D01*
G75*
G02*
X115459500Y-127431280I237500J0D01*
G01*
G37*
G36*
G01*
X115459500Y-125681280D02*
X115934500Y-125681280D01*
G75*
G02*
X116172000Y-125918780I0J-237500D01*
G01*
X116172000Y-126493780D01*
G75*
G02*
X115934500Y-126731280I-237500J0D01*
G01*
X115459500Y-126731280D01*
G75*
G02*
X115222000Y-126493780I0J237500D01*
G01*
X115222000Y-125918780D01*
G75*
G02*
X115459500Y-125681280I237500J0D01*
G01*
G37*
%TD*%
%TO.C,C134*%
G36*
G01*
X116170700Y-137179800D02*
X116645700Y-137179800D01*
G75*
G02*
X116883200Y-137417300I0J-237500D01*
G01*
X116883200Y-137992300D01*
G75*
G02*
X116645700Y-138229800I-237500J0D01*
G01*
X116170700Y-138229800D01*
G75*
G02*
X115933200Y-137992300I0J237500D01*
G01*
X115933200Y-137417300D01*
G75*
G02*
X116170700Y-137179800I237500J0D01*
G01*
G37*
G36*
G01*
X116170700Y-135429800D02*
X116645700Y-135429800D01*
G75*
G02*
X116883200Y-135667300I0J-237500D01*
G01*
X116883200Y-136242300D01*
G75*
G02*
X116645700Y-136479800I-237500J0D01*
G01*
X116170700Y-136479800D01*
G75*
G02*
X115933200Y-136242300I0J237500D01*
G01*
X115933200Y-135667300D01*
G75*
G02*
X116170700Y-135429800I237500J0D01*
G01*
G37*
%TD*%
%TO.C,C52*%
G36*
G01*
X117669300Y-136417800D02*
X118144300Y-136417800D01*
G75*
G02*
X118381800Y-136655300I0J-237500D01*
G01*
X118381800Y-137230300D01*
G75*
G02*
X118144300Y-137467800I-237500J0D01*
G01*
X117669300Y-137467800D01*
G75*
G02*
X117431800Y-137230300I0J237500D01*
G01*
X117431800Y-136655300D01*
G75*
G02*
X117669300Y-136417800I237500J0D01*
G01*
G37*
G36*
G01*
X117669300Y-134667800D02*
X118144300Y-134667800D01*
G75*
G02*
X118381800Y-134905300I0J-237500D01*
G01*
X118381800Y-135480300D01*
G75*
G02*
X118144300Y-135717800I-237500J0D01*
G01*
X117669300Y-135717800D01*
G75*
G02*
X117431800Y-135480300I0J237500D01*
G01*
X117431800Y-134905300D01*
G75*
G02*
X117669300Y-134667800I237500J0D01*
G01*
G37*
%TD*%
%TO.C,U27*%
G36*
G01*
X113585400Y-134316300D02*
X113585400Y-133666300D01*
G75*
G02*
X113647900Y-133603800I62500J0D01*
G01*
X113772900Y-133603800D01*
G75*
G02*
X113835400Y-133666300I0J-62500D01*
G01*
X113835400Y-134316300D01*
G75*
G02*
X113772900Y-134378800I-62500J0D01*
G01*
X113647900Y-134378800D01*
G75*
G02*
X113585400Y-134316300I0J62500D01*
G01*
G37*
G36*
G01*
X114085400Y-134316300D02*
X114085400Y-133666300D01*
G75*
G02*
X114147900Y-133603800I62500J0D01*
G01*
X114272900Y-133603800D01*
G75*
G02*
X114335400Y-133666300I0J-62500D01*
G01*
X114335400Y-134316300D01*
G75*
G02*
X114272900Y-134378800I-62500J0D01*
G01*
X114147900Y-134378800D01*
G75*
G02*
X114085400Y-134316300I0J62500D01*
G01*
G37*
G36*
G01*
X114585400Y-134316300D02*
X114585400Y-133666300D01*
G75*
G02*
X114647900Y-133603800I62500J0D01*
G01*
X114772900Y-133603800D01*
G75*
G02*
X114835400Y-133666300I0J-62500D01*
G01*
X114835400Y-134316300D01*
G75*
G02*
X114772900Y-134378800I-62500J0D01*
G01*
X114647900Y-134378800D01*
G75*
G02*
X114585400Y-134316300I0J62500D01*
G01*
G37*
G36*
G01*
X115085400Y-134316300D02*
X115085400Y-133666300D01*
G75*
G02*
X115147900Y-133603800I62500J0D01*
G01*
X115272900Y-133603800D01*
G75*
G02*
X115335400Y-133666300I0J-62500D01*
G01*
X115335400Y-134316300D01*
G75*
G02*
X115272900Y-134378800I-62500J0D01*
G01*
X115147900Y-134378800D01*
G75*
G02*
X115085400Y-134316300I0J62500D01*
G01*
G37*
G36*
G01*
X115585400Y-134316300D02*
X115585400Y-133666300D01*
G75*
G02*
X115647900Y-133603800I62500J0D01*
G01*
X115772900Y-133603800D01*
G75*
G02*
X115835400Y-133666300I0J-62500D01*
G01*
X115835400Y-134316300D01*
G75*
G02*
X115772900Y-134378800I-62500J0D01*
G01*
X115647900Y-134378800D01*
G75*
G02*
X115585400Y-134316300I0J62500D01*
G01*
G37*
G36*
G01*
X116085400Y-134316300D02*
X116085400Y-133666300D01*
G75*
G02*
X116147900Y-133603800I62500J0D01*
G01*
X116272900Y-133603800D01*
G75*
G02*
X116335400Y-133666300I0J-62500D01*
G01*
X116335400Y-134316300D01*
G75*
G02*
X116272900Y-134378800I-62500J0D01*
G01*
X116147900Y-134378800D01*
G75*
G02*
X116085400Y-134316300I0J62500D01*
G01*
G37*
G36*
G01*
X116560400Y-133316300D02*
X116560400Y-133191300D01*
G75*
G02*
X116622900Y-133128800I62500J0D01*
G01*
X117272900Y-133128800D01*
G75*
G02*
X117335400Y-133191300I0J-62500D01*
G01*
X117335400Y-133316300D01*
G75*
G02*
X117272900Y-133378800I-62500J0D01*
G01*
X116622900Y-133378800D01*
G75*
G02*
X116560400Y-133316300I0J62500D01*
G01*
G37*
G36*
G01*
X116560400Y-132816300D02*
X116560400Y-132691300D01*
G75*
G02*
X116622900Y-132628800I62500J0D01*
G01*
X117272900Y-132628800D01*
G75*
G02*
X117335400Y-132691300I0J-62500D01*
G01*
X117335400Y-132816300D01*
G75*
G02*
X117272900Y-132878800I-62500J0D01*
G01*
X116622900Y-132878800D01*
G75*
G02*
X116560400Y-132816300I0J62500D01*
G01*
G37*
G36*
G01*
X116560400Y-132316300D02*
X116560400Y-132191300D01*
G75*
G02*
X116622900Y-132128800I62500J0D01*
G01*
X117272900Y-132128800D01*
G75*
G02*
X117335400Y-132191300I0J-62500D01*
G01*
X117335400Y-132316300D01*
G75*
G02*
X117272900Y-132378800I-62500J0D01*
G01*
X116622900Y-132378800D01*
G75*
G02*
X116560400Y-132316300I0J62500D01*
G01*
G37*
G36*
G01*
X116560400Y-131816300D02*
X116560400Y-131691300D01*
G75*
G02*
X116622900Y-131628800I62500J0D01*
G01*
X117272900Y-131628800D01*
G75*
G02*
X117335400Y-131691300I0J-62500D01*
G01*
X117335400Y-131816300D01*
G75*
G02*
X117272900Y-131878800I-62500J0D01*
G01*
X116622900Y-131878800D01*
G75*
G02*
X116560400Y-131816300I0J62500D01*
G01*
G37*
G36*
G01*
X116560400Y-131316300D02*
X116560400Y-131191300D01*
G75*
G02*
X116622900Y-131128800I62500J0D01*
G01*
X117272900Y-131128800D01*
G75*
G02*
X117335400Y-131191300I0J-62500D01*
G01*
X117335400Y-131316300D01*
G75*
G02*
X117272900Y-131378800I-62500J0D01*
G01*
X116622900Y-131378800D01*
G75*
G02*
X116560400Y-131316300I0J62500D01*
G01*
G37*
G36*
G01*
X116560400Y-130816300D02*
X116560400Y-130691300D01*
G75*
G02*
X116622900Y-130628800I62500J0D01*
G01*
X117272900Y-130628800D01*
G75*
G02*
X117335400Y-130691300I0J-62500D01*
G01*
X117335400Y-130816300D01*
G75*
G02*
X117272900Y-130878800I-62500J0D01*
G01*
X116622900Y-130878800D01*
G75*
G02*
X116560400Y-130816300I0J62500D01*
G01*
G37*
G36*
G01*
X116085400Y-130341300D02*
X116085400Y-129691300D01*
G75*
G02*
X116147900Y-129628800I62500J0D01*
G01*
X116272900Y-129628800D01*
G75*
G02*
X116335400Y-129691300I0J-62500D01*
G01*
X116335400Y-130341300D01*
G75*
G02*
X116272900Y-130403800I-62500J0D01*
G01*
X116147900Y-130403800D01*
G75*
G02*
X116085400Y-130341300I0J62500D01*
G01*
G37*
G36*
G01*
X115585400Y-130341300D02*
X115585400Y-129691300D01*
G75*
G02*
X115647900Y-129628800I62500J0D01*
G01*
X115772900Y-129628800D01*
G75*
G02*
X115835400Y-129691300I0J-62500D01*
G01*
X115835400Y-130341300D01*
G75*
G02*
X115772900Y-130403800I-62500J0D01*
G01*
X115647900Y-130403800D01*
G75*
G02*
X115585400Y-130341300I0J62500D01*
G01*
G37*
G36*
G01*
X115085400Y-130341300D02*
X115085400Y-129691300D01*
G75*
G02*
X115147900Y-129628800I62500J0D01*
G01*
X115272900Y-129628800D01*
G75*
G02*
X115335400Y-129691300I0J-62500D01*
G01*
X115335400Y-130341300D01*
G75*
G02*
X115272900Y-130403800I-62500J0D01*
G01*
X115147900Y-130403800D01*
G75*
G02*
X115085400Y-130341300I0J62500D01*
G01*
G37*
G36*
G01*
X114585400Y-130341300D02*
X114585400Y-129691300D01*
G75*
G02*
X114647900Y-129628800I62500J0D01*
G01*
X114772900Y-129628800D01*
G75*
G02*
X114835400Y-129691300I0J-62500D01*
G01*
X114835400Y-130341300D01*
G75*
G02*
X114772900Y-130403800I-62500J0D01*
G01*
X114647900Y-130403800D01*
G75*
G02*
X114585400Y-130341300I0J62500D01*
G01*
G37*
G36*
G01*
X114085400Y-130341300D02*
X114085400Y-129691300D01*
G75*
G02*
X114147900Y-129628800I62500J0D01*
G01*
X114272900Y-129628800D01*
G75*
G02*
X114335400Y-129691300I0J-62500D01*
G01*
X114335400Y-130341300D01*
G75*
G02*
X114272900Y-130403800I-62500J0D01*
G01*
X114147900Y-130403800D01*
G75*
G02*
X114085400Y-130341300I0J62500D01*
G01*
G37*
G36*
G01*
X113585400Y-130341300D02*
X113585400Y-129691300D01*
G75*
G02*
X113647900Y-129628800I62500J0D01*
G01*
X113772900Y-129628800D01*
G75*
G02*
X113835400Y-129691300I0J-62500D01*
G01*
X113835400Y-130341300D01*
G75*
G02*
X113772900Y-130403800I-62500J0D01*
G01*
X113647900Y-130403800D01*
G75*
G02*
X113585400Y-130341300I0J62500D01*
G01*
G37*
G36*
G01*
X112585400Y-130816300D02*
X112585400Y-130691300D01*
G75*
G02*
X112647900Y-130628800I62500J0D01*
G01*
X113297900Y-130628800D01*
G75*
G02*
X113360400Y-130691300I0J-62500D01*
G01*
X113360400Y-130816300D01*
G75*
G02*
X113297900Y-130878800I-62500J0D01*
G01*
X112647900Y-130878800D01*
G75*
G02*
X112585400Y-130816300I0J62500D01*
G01*
G37*
G36*
G01*
X112585400Y-131316300D02*
X112585400Y-131191300D01*
G75*
G02*
X112647900Y-131128800I62500J0D01*
G01*
X113297900Y-131128800D01*
G75*
G02*
X113360400Y-131191300I0J-62500D01*
G01*
X113360400Y-131316300D01*
G75*
G02*
X113297900Y-131378800I-62500J0D01*
G01*
X112647900Y-131378800D01*
G75*
G02*
X112585400Y-131316300I0J62500D01*
G01*
G37*
G36*
G01*
X112585400Y-131816300D02*
X112585400Y-131691300D01*
G75*
G02*
X112647900Y-131628800I62500J0D01*
G01*
X113297900Y-131628800D01*
G75*
G02*
X113360400Y-131691300I0J-62500D01*
G01*
X113360400Y-131816300D01*
G75*
G02*
X113297900Y-131878800I-62500J0D01*
G01*
X112647900Y-131878800D01*
G75*
G02*
X112585400Y-131816300I0J62500D01*
G01*
G37*
G36*
G01*
X112585400Y-132316300D02*
X112585400Y-132191300D01*
G75*
G02*
X112647900Y-132128800I62500J0D01*
G01*
X113297900Y-132128800D01*
G75*
G02*
X113360400Y-132191300I0J-62500D01*
G01*
X113360400Y-132316300D01*
G75*
G02*
X113297900Y-132378800I-62500J0D01*
G01*
X112647900Y-132378800D01*
G75*
G02*
X112585400Y-132316300I0J62500D01*
G01*
G37*
G36*
G01*
X112585400Y-132816300D02*
X112585400Y-132691300D01*
G75*
G02*
X112647900Y-132628800I62500J0D01*
G01*
X113297900Y-132628800D01*
G75*
G02*
X113360400Y-132691300I0J-62500D01*
G01*
X113360400Y-132816300D01*
G75*
G02*
X113297900Y-132878800I-62500J0D01*
G01*
X112647900Y-132878800D01*
G75*
G02*
X112585400Y-132816300I0J62500D01*
G01*
G37*
G36*
G01*
X112585400Y-133316300D02*
X112585400Y-133191300D01*
G75*
G02*
X112647900Y-133128800I62500J0D01*
G01*
X113297900Y-133128800D01*
G75*
G02*
X113360400Y-133191300I0J-62500D01*
G01*
X113360400Y-133316300D01*
G75*
G02*
X113297900Y-133378800I-62500J0D01*
G01*
X112647900Y-133378800D01*
G75*
G02*
X112585400Y-133316300I0J62500D01*
G01*
G37*
G36*
G01*
X115450400Y-131348800D02*
X115450400Y-131018800D01*
G75*
G02*
X115615400Y-130853800I165000J0D01*
G01*
X115945400Y-130853800D01*
G75*
G02*
X116110400Y-131018800I0J-165000D01*
G01*
X116110400Y-131348800D01*
G75*
G02*
X115945400Y-131513800I-165000J0D01*
G01*
X115615400Y-131513800D01*
G75*
G02*
X115450400Y-131348800I0J165000D01*
G01*
G37*
G36*
G01*
X115450400Y-132168800D02*
X115450400Y-131838800D01*
G75*
G02*
X115615400Y-131673800I165000J0D01*
G01*
X115945400Y-131673800D01*
G75*
G02*
X116110400Y-131838800I0J-165000D01*
G01*
X116110400Y-132168800D01*
G75*
G02*
X115945400Y-132333800I-165000J0D01*
G01*
X115615400Y-132333800D01*
G75*
G02*
X115450400Y-132168800I0J165000D01*
G01*
G37*
G36*
G01*
X115450400Y-132988800D02*
X115450400Y-132658800D01*
G75*
G02*
X115615400Y-132493800I165000J0D01*
G01*
X115945400Y-132493800D01*
G75*
G02*
X116110400Y-132658800I0J-165000D01*
G01*
X116110400Y-132988800D01*
G75*
G02*
X115945400Y-133153800I-165000J0D01*
G01*
X115615400Y-133153800D01*
G75*
G02*
X115450400Y-132988800I0J165000D01*
G01*
G37*
G36*
G01*
X114630400Y-131348800D02*
X114630400Y-131018800D01*
G75*
G02*
X114795400Y-130853800I165000J0D01*
G01*
X115125400Y-130853800D01*
G75*
G02*
X115290400Y-131018800I0J-165000D01*
G01*
X115290400Y-131348800D01*
G75*
G02*
X115125400Y-131513800I-165000J0D01*
G01*
X114795400Y-131513800D01*
G75*
G02*
X114630400Y-131348800I0J165000D01*
G01*
G37*
G36*
G01*
X114630400Y-132168800D02*
X114630400Y-131838800D01*
G75*
G02*
X114795400Y-131673800I165000J0D01*
G01*
X115125400Y-131673800D01*
G75*
G02*
X115290400Y-131838800I0J-165000D01*
G01*
X115290400Y-132168800D01*
G75*
G02*
X115125400Y-132333800I-165000J0D01*
G01*
X114795400Y-132333800D01*
G75*
G02*
X114630400Y-132168800I0J165000D01*
G01*
G37*
G36*
G01*
X114630400Y-132988800D02*
X114630400Y-132658800D01*
G75*
G02*
X114795400Y-132493800I165000J0D01*
G01*
X115125400Y-132493800D01*
G75*
G02*
X115290400Y-132658800I0J-165000D01*
G01*
X115290400Y-132988800D01*
G75*
G02*
X115125400Y-133153800I-165000J0D01*
G01*
X114795400Y-133153800D01*
G75*
G02*
X114630400Y-132988800I0J165000D01*
G01*
G37*
G36*
G01*
X113810400Y-131348800D02*
X113810400Y-131018800D01*
G75*
G02*
X113975400Y-130853800I165000J0D01*
G01*
X114305400Y-130853800D01*
G75*
G02*
X114470400Y-131018800I0J-165000D01*
G01*
X114470400Y-131348800D01*
G75*
G02*
X114305400Y-131513800I-165000J0D01*
G01*
X113975400Y-131513800D01*
G75*
G02*
X113810400Y-131348800I0J165000D01*
G01*
G37*
G36*
G01*
X113810400Y-132168800D02*
X113810400Y-131838800D01*
G75*
G02*
X113975400Y-131673800I165000J0D01*
G01*
X114305400Y-131673800D01*
G75*
G02*
X114470400Y-131838800I0J-165000D01*
G01*
X114470400Y-132168800D01*
G75*
G02*
X114305400Y-132333800I-165000J0D01*
G01*
X113975400Y-132333800D01*
G75*
G02*
X113810400Y-132168800I0J165000D01*
G01*
G37*
G36*
G01*
X113810400Y-132988800D02*
X113810400Y-132658800D01*
G75*
G02*
X113975400Y-132493800I165000J0D01*
G01*
X114305400Y-132493800D01*
G75*
G02*
X114470400Y-132658800I0J-165000D01*
G01*
X114470400Y-132988800D01*
G75*
G02*
X114305400Y-133153800I-165000J0D01*
G01*
X113975400Y-133153800D01*
G75*
G02*
X113810400Y-132988800I0J165000D01*
G01*
G37*
%TD*%
%TO.C,U26*%
G36*
G01*
X47538500Y-129579500D02*
X47838500Y-129579500D01*
G75*
G02*
X47988500Y-129729500I0J-150000D01*
G01*
X47988500Y-131379500D01*
G75*
G02*
X47838500Y-131529500I-150000J0D01*
G01*
X47538500Y-131529500D01*
G75*
G02*
X47388500Y-131379500I0J150000D01*
G01*
X47388500Y-129729500D01*
G75*
G02*
X47538500Y-129579500I150000J0D01*
G01*
G37*
G36*
G01*
X48808500Y-129579500D02*
X49108500Y-129579500D01*
G75*
G02*
X49258500Y-129729500I0J-150000D01*
G01*
X49258500Y-131379500D01*
G75*
G02*
X49108500Y-131529500I-150000J0D01*
G01*
X48808500Y-131529500D01*
G75*
G02*
X48658500Y-131379500I0J150000D01*
G01*
X48658500Y-129729500D01*
G75*
G02*
X48808500Y-129579500I150000J0D01*
G01*
G37*
G36*
G01*
X50078500Y-129579500D02*
X50378500Y-129579500D01*
G75*
G02*
X50528500Y-129729500I0J-150000D01*
G01*
X50528500Y-131379500D01*
G75*
G02*
X50378500Y-131529500I-150000J0D01*
G01*
X50078500Y-131529500D01*
G75*
G02*
X49928500Y-131379500I0J150000D01*
G01*
X49928500Y-129729500D01*
G75*
G02*
X50078500Y-129579500I150000J0D01*
G01*
G37*
G36*
G01*
X51348500Y-129579500D02*
X51648500Y-129579500D01*
G75*
G02*
X51798500Y-129729500I0J-150000D01*
G01*
X51798500Y-131379500D01*
G75*
G02*
X51648500Y-131529500I-150000J0D01*
G01*
X51348500Y-131529500D01*
G75*
G02*
X51198500Y-131379500I0J150000D01*
G01*
X51198500Y-129729500D01*
G75*
G02*
X51348500Y-129579500I150000J0D01*
G01*
G37*
G36*
G01*
X52618500Y-129579500D02*
X52918500Y-129579500D01*
G75*
G02*
X53068500Y-129729500I0J-150000D01*
G01*
X53068500Y-131379500D01*
G75*
G02*
X52918500Y-131529500I-150000J0D01*
G01*
X52618500Y-131529500D01*
G75*
G02*
X52468500Y-131379500I0J150000D01*
G01*
X52468500Y-129729500D01*
G75*
G02*
X52618500Y-129579500I150000J0D01*
G01*
G37*
G36*
G01*
X53888500Y-129579500D02*
X54188500Y-129579500D01*
G75*
G02*
X54338500Y-129729500I0J-150000D01*
G01*
X54338500Y-131379500D01*
G75*
G02*
X54188500Y-131529500I-150000J0D01*
G01*
X53888500Y-131529500D01*
G75*
G02*
X53738500Y-131379500I0J150000D01*
G01*
X53738500Y-129729500D01*
G75*
G02*
X53888500Y-129579500I150000J0D01*
G01*
G37*
G36*
G01*
X55158500Y-129579500D02*
X55458500Y-129579500D01*
G75*
G02*
X55608500Y-129729500I0J-150000D01*
G01*
X55608500Y-131379500D01*
G75*
G02*
X55458500Y-131529500I-150000J0D01*
G01*
X55158500Y-131529500D01*
G75*
G02*
X55008500Y-131379500I0J150000D01*
G01*
X55008500Y-129729500D01*
G75*
G02*
X55158500Y-129579500I150000J0D01*
G01*
G37*
G36*
G01*
X55158500Y-124629500D02*
X55458500Y-124629500D01*
G75*
G02*
X55608500Y-124779500I0J-150000D01*
G01*
X55608500Y-126429500D01*
G75*
G02*
X55458500Y-126579500I-150000J0D01*
G01*
X55158500Y-126579500D01*
G75*
G02*
X55008500Y-126429500I0J150000D01*
G01*
X55008500Y-124779500D01*
G75*
G02*
X55158500Y-124629500I150000J0D01*
G01*
G37*
G36*
G01*
X53888500Y-124629500D02*
X54188500Y-124629500D01*
G75*
G02*
X54338500Y-124779500I0J-150000D01*
G01*
X54338500Y-126429500D01*
G75*
G02*
X54188500Y-126579500I-150000J0D01*
G01*
X53888500Y-126579500D01*
G75*
G02*
X53738500Y-126429500I0J150000D01*
G01*
X53738500Y-124779500D01*
G75*
G02*
X53888500Y-124629500I150000J0D01*
G01*
G37*
G36*
G01*
X52618500Y-124629500D02*
X52918500Y-124629500D01*
G75*
G02*
X53068500Y-124779500I0J-150000D01*
G01*
X53068500Y-126429500D01*
G75*
G02*
X52918500Y-126579500I-150000J0D01*
G01*
X52618500Y-126579500D01*
G75*
G02*
X52468500Y-126429500I0J150000D01*
G01*
X52468500Y-124779500D01*
G75*
G02*
X52618500Y-124629500I150000J0D01*
G01*
G37*
G36*
G01*
X51348500Y-124629500D02*
X51648500Y-124629500D01*
G75*
G02*
X51798500Y-124779500I0J-150000D01*
G01*
X51798500Y-126429500D01*
G75*
G02*
X51648500Y-126579500I-150000J0D01*
G01*
X51348500Y-126579500D01*
G75*
G02*
X51198500Y-126429500I0J150000D01*
G01*
X51198500Y-124779500D01*
G75*
G02*
X51348500Y-124629500I150000J0D01*
G01*
G37*
G36*
G01*
X50078500Y-124629500D02*
X50378500Y-124629500D01*
G75*
G02*
X50528500Y-124779500I0J-150000D01*
G01*
X50528500Y-126429500D01*
G75*
G02*
X50378500Y-126579500I-150000J0D01*
G01*
X50078500Y-126579500D01*
G75*
G02*
X49928500Y-126429500I0J150000D01*
G01*
X49928500Y-124779500D01*
G75*
G02*
X50078500Y-124629500I150000J0D01*
G01*
G37*
G36*
G01*
X48808500Y-124629500D02*
X49108500Y-124629500D01*
G75*
G02*
X49258500Y-124779500I0J-150000D01*
G01*
X49258500Y-126429500D01*
G75*
G02*
X49108500Y-126579500I-150000J0D01*
G01*
X48808500Y-126579500D01*
G75*
G02*
X48658500Y-126429500I0J150000D01*
G01*
X48658500Y-124779500D01*
G75*
G02*
X48808500Y-124629500I150000J0D01*
G01*
G37*
G36*
G01*
X47538500Y-124629500D02*
X47838500Y-124629500D01*
G75*
G02*
X47988500Y-124779500I0J-150000D01*
G01*
X47988500Y-126429500D01*
G75*
G02*
X47838500Y-126579500I-150000J0D01*
G01*
X47538500Y-126579500D01*
G75*
G02*
X47388500Y-126429500I0J150000D01*
G01*
X47388500Y-124779500D01*
G75*
G02*
X47538500Y-124629500I150000J0D01*
G01*
G37*
%TD*%
%TO.C,R37*%
G36*
G01*
X60435500Y-123602000D02*
X59960500Y-123602000D01*
G75*
G02*
X59723000Y-123364500I0J237500D01*
G01*
X59723000Y-122789500D01*
G75*
G02*
X59960500Y-122552000I237500J0D01*
G01*
X60435500Y-122552000D01*
G75*
G02*
X60673000Y-122789500I0J-237500D01*
G01*
X60673000Y-123364500D01*
G75*
G02*
X60435500Y-123602000I-237500J0D01*
G01*
G37*
G36*
G01*
X60435500Y-125352000D02*
X59960500Y-125352000D01*
G75*
G02*
X59723000Y-125114500I0J237500D01*
G01*
X59723000Y-124539500D01*
G75*
G02*
X59960500Y-124302000I237500J0D01*
G01*
X60435500Y-124302000D01*
G75*
G02*
X60673000Y-124539500I0J-237500D01*
G01*
X60673000Y-125114500D01*
G75*
G02*
X60435500Y-125352000I-237500J0D01*
G01*
G37*
%TD*%
%TO.C,C133*%
G36*
G01*
X46160700Y-130612400D02*
X45685700Y-130612400D01*
G75*
G02*
X45448200Y-130374900I0J237500D01*
G01*
X45448200Y-129799900D01*
G75*
G02*
X45685700Y-129562400I237500J0D01*
G01*
X46160700Y-129562400D01*
G75*
G02*
X46398200Y-129799900I0J-237500D01*
G01*
X46398200Y-130374900D01*
G75*
G02*
X46160700Y-130612400I-237500J0D01*
G01*
G37*
G36*
G01*
X46160700Y-132362400D02*
X45685700Y-132362400D01*
G75*
G02*
X45448200Y-132124900I0J237500D01*
G01*
X45448200Y-131549900D01*
G75*
G02*
X45685700Y-131312400I237500J0D01*
G01*
X46160700Y-131312400D01*
G75*
G02*
X46398200Y-131549900I0J-237500D01*
G01*
X46398200Y-132124900D01*
G75*
G02*
X46160700Y-132362400I-237500J0D01*
G01*
G37*
%TD*%
D14*
%TO.C,U19*%
X55308500Y-101075500D03*
X56258500Y-101075500D03*
X54358500Y-101075500D03*
X54358500Y-103775500D03*
X55308500Y-103775500D03*
X56258500Y-103775500D03*
%TD*%
D15*
%TO.C,Q1*%
X58902600Y-143940800D03*
X59852600Y-140640800D03*
X57952600Y-140640800D03*
%TD*%
D14*
%TO.C,U25*%
X60830500Y-107489000D03*
X58930500Y-107489000D03*
X58930500Y-110189000D03*
X59880500Y-110189000D03*
X60830500Y-110189000D03*
%TD*%
%TO.C,R36*%
G36*
G01*
X61781700Y-141229600D02*
X61306700Y-141229600D01*
G75*
G02*
X61069200Y-140992100I0J237500D01*
G01*
X61069200Y-140417100D01*
G75*
G02*
X61306700Y-140179600I237500J0D01*
G01*
X61781700Y-140179600D01*
G75*
G02*
X62019200Y-140417100I0J-237500D01*
G01*
X62019200Y-140992100D01*
G75*
G02*
X61781700Y-141229600I-237500J0D01*
G01*
G37*
G36*
G01*
X61781700Y-142979600D02*
X61306700Y-142979600D01*
G75*
G02*
X61069200Y-142742100I0J237500D01*
G01*
X61069200Y-142167100D01*
G75*
G02*
X61306700Y-141929600I237500J0D01*
G01*
X61781700Y-141929600D01*
G75*
G02*
X62019200Y-142167100I0J-237500D01*
G01*
X62019200Y-142742100D01*
G75*
G02*
X61781700Y-142979600I-237500J0D01*
G01*
G37*
%TD*%
%TO.C,R34*%
G36*
G01*
X61832500Y-144785600D02*
X61357500Y-144785600D01*
G75*
G02*
X61120000Y-144548100I0J237500D01*
G01*
X61120000Y-143973100D01*
G75*
G02*
X61357500Y-143735600I237500J0D01*
G01*
X61832500Y-143735600D01*
G75*
G02*
X62070000Y-143973100I0J-237500D01*
G01*
X62070000Y-144548100D01*
G75*
G02*
X61832500Y-144785600I-237500J0D01*
G01*
G37*
G36*
G01*
X61832500Y-146535600D02*
X61357500Y-146535600D01*
G75*
G02*
X61120000Y-146298100I0J237500D01*
G01*
X61120000Y-145723100D01*
G75*
G02*
X61357500Y-145485600I237500J0D01*
G01*
X61832500Y-145485600D01*
G75*
G02*
X62070000Y-145723100I0J-237500D01*
G01*
X62070000Y-146298100D01*
G75*
G02*
X61832500Y-146535600I-237500J0D01*
G01*
G37*
%TD*%
%TO.C,R33*%
G36*
G01*
X74634100Y-153688300D02*
X74159100Y-153688300D01*
G75*
G02*
X73921600Y-153450800I0J237500D01*
G01*
X73921600Y-152875800D01*
G75*
G02*
X74159100Y-152638300I237500J0D01*
G01*
X74634100Y-152638300D01*
G75*
G02*
X74871600Y-152875800I0J-237500D01*
G01*
X74871600Y-153450800D01*
G75*
G02*
X74634100Y-153688300I-237500J0D01*
G01*
G37*
G36*
G01*
X74634100Y-155438300D02*
X74159100Y-155438300D01*
G75*
G02*
X73921600Y-155200800I0J237500D01*
G01*
X73921600Y-154625800D01*
G75*
G02*
X74159100Y-154388300I237500J0D01*
G01*
X74634100Y-154388300D01*
G75*
G02*
X74871600Y-154625800I0J-237500D01*
G01*
X74871600Y-155200800D01*
G75*
G02*
X74634100Y-155438300I-237500J0D01*
G01*
G37*
%TD*%
%TO.C,C132*%
G36*
G01*
X62754500Y-108655600D02*
X63229500Y-108655600D01*
G75*
G02*
X63467000Y-108893100I0J-237500D01*
G01*
X63467000Y-109468100D01*
G75*
G02*
X63229500Y-109705600I-237500J0D01*
G01*
X62754500Y-109705600D01*
G75*
G02*
X62517000Y-109468100I0J237500D01*
G01*
X62517000Y-108893100D01*
G75*
G02*
X62754500Y-108655600I237500J0D01*
G01*
G37*
G36*
G01*
X62754500Y-106905600D02*
X63229500Y-106905600D01*
G75*
G02*
X63467000Y-107143100I0J-237500D01*
G01*
X63467000Y-107718100D01*
G75*
G02*
X63229500Y-107955600I-237500J0D01*
G01*
X62754500Y-107955600D01*
G75*
G02*
X62517000Y-107718100I0J237500D01*
G01*
X62517000Y-107143100D01*
G75*
G02*
X62754500Y-106905600I237500J0D01*
G01*
G37*
%TD*%
%TO.C,C128*%
G36*
G01*
X51393100Y-154844000D02*
X50918100Y-154844000D01*
G75*
G02*
X50680600Y-154606500I0J237500D01*
G01*
X50680600Y-154031500D01*
G75*
G02*
X50918100Y-153794000I237500J0D01*
G01*
X51393100Y-153794000D01*
G75*
G02*
X51630600Y-154031500I0J-237500D01*
G01*
X51630600Y-154606500D01*
G75*
G02*
X51393100Y-154844000I-237500J0D01*
G01*
G37*
G36*
G01*
X51393100Y-156594000D02*
X50918100Y-156594000D01*
G75*
G02*
X50680600Y-156356500I0J237500D01*
G01*
X50680600Y-155781500D01*
G75*
G02*
X50918100Y-155544000I237500J0D01*
G01*
X51393100Y-155544000D01*
G75*
G02*
X51630600Y-155781500I0J-237500D01*
G01*
X51630600Y-156356500D01*
G75*
G02*
X51393100Y-156594000I-237500J0D01*
G01*
G37*
%TD*%
%TO.C,C107*%
G36*
G01*
X80318600Y-158350700D02*
X80793600Y-158350700D01*
G75*
G02*
X81031100Y-158588200I0J-237500D01*
G01*
X81031100Y-159163200D01*
G75*
G02*
X80793600Y-159400700I-237500J0D01*
G01*
X80318600Y-159400700D01*
G75*
G02*
X80081100Y-159163200I0J237500D01*
G01*
X80081100Y-158588200D01*
G75*
G02*
X80318600Y-158350700I237500J0D01*
G01*
G37*
G36*
G01*
X80318600Y-156600700D02*
X80793600Y-156600700D01*
G75*
G02*
X81031100Y-156838200I0J-237500D01*
G01*
X81031100Y-157413200D01*
G75*
G02*
X80793600Y-157650700I-237500J0D01*
G01*
X80318600Y-157650700D01*
G75*
G02*
X80081100Y-157413200I0J237500D01*
G01*
X80081100Y-156838200D01*
G75*
G02*
X80318600Y-156600700I237500J0D01*
G01*
G37*
%TD*%
%TO.C,C5*%
G36*
G01*
X80565000Y-117467900D02*
X80090000Y-117467900D01*
G75*
G02*
X79852500Y-117230400I0J237500D01*
G01*
X79852500Y-116655400D01*
G75*
G02*
X80090000Y-116417900I237500J0D01*
G01*
X80565000Y-116417900D01*
G75*
G02*
X80802500Y-116655400I0J-237500D01*
G01*
X80802500Y-117230400D01*
G75*
G02*
X80565000Y-117467900I-237500J0D01*
G01*
G37*
G36*
G01*
X80565000Y-119217900D02*
X80090000Y-119217900D01*
G75*
G02*
X79852500Y-118980400I0J237500D01*
G01*
X79852500Y-118405400D01*
G75*
G02*
X80090000Y-118167900I237500J0D01*
G01*
X80565000Y-118167900D01*
G75*
G02*
X80802500Y-118405400I0J-237500D01*
G01*
X80802500Y-118980400D01*
G75*
G02*
X80565000Y-119217900I-237500J0D01*
G01*
G37*
%TD*%
%TO.C,R32*%
G36*
G01*
X126412000Y-131450600D02*
X125937000Y-131450600D01*
G75*
G02*
X125699500Y-131213100I0J237500D01*
G01*
X125699500Y-130638100D01*
G75*
G02*
X125937000Y-130400600I237500J0D01*
G01*
X126412000Y-130400600D01*
G75*
G02*
X126649500Y-130638100I0J-237500D01*
G01*
X126649500Y-131213100D01*
G75*
G02*
X126412000Y-131450600I-237500J0D01*
G01*
G37*
G36*
G01*
X126412000Y-133200600D02*
X125937000Y-133200600D01*
G75*
G02*
X125699500Y-132963100I0J237500D01*
G01*
X125699500Y-132388100D01*
G75*
G02*
X125937000Y-132150600I237500J0D01*
G01*
X126412000Y-132150600D01*
G75*
G02*
X126649500Y-132388100I0J-237500D01*
G01*
X126649500Y-132963100D01*
G75*
G02*
X126412000Y-133200600I-237500J0D01*
G01*
G37*
%TD*%
%TO.C,FB9*%
G36*
G01*
X120801140Y-62189880D02*
X120326140Y-62189880D01*
G75*
G02*
X120088640Y-61952380I0J237500D01*
G01*
X120088640Y-61377380D01*
G75*
G02*
X120326140Y-61139880I237500J0D01*
G01*
X120801140Y-61139880D01*
G75*
G02*
X121038640Y-61377380I0J-237500D01*
G01*
X121038640Y-61952380D01*
G75*
G02*
X120801140Y-62189880I-237500J0D01*
G01*
G37*
G36*
G01*
X120801140Y-63939880D02*
X120326140Y-63939880D01*
G75*
G02*
X120088640Y-63702380I0J237500D01*
G01*
X120088640Y-63127380D01*
G75*
G02*
X120326140Y-62889880I237500J0D01*
G01*
X120801140Y-62889880D01*
G75*
G02*
X121038640Y-63127380I0J-237500D01*
G01*
X121038640Y-63702380D01*
G75*
G02*
X120801140Y-63939880I-237500J0D01*
G01*
G37*
%TD*%
%TO.C,C12*%
G36*
G01*
X124979420Y-61858640D02*
X125454420Y-61858640D01*
G75*
G02*
X125691920Y-62096140I0J-237500D01*
G01*
X125691920Y-62671140D01*
G75*
G02*
X125454420Y-62908640I-237500J0D01*
G01*
X124979420Y-62908640D01*
G75*
G02*
X124741920Y-62671140I0J237500D01*
G01*
X124741920Y-62096140D01*
G75*
G02*
X124979420Y-61858640I237500J0D01*
G01*
G37*
G36*
G01*
X124979420Y-60108640D02*
X125454420Y-60108640D01*
G75*
G02*
X125691920Y-60346140I0J-237500D01*
G01*
X125691920Y-60921140D01*
G75*
G02*
X125454420Y-61158640I-237500J0D01*
G01*
X124979420Y-61158640D01*
G75*
G02*
X124741920Y-60921140I0J237500D01*
G01*
X124741920Y-60346140D01*
G75*
G02*
X124979420Y-60108640I237500J0D01*
G01*
G37*
%TD*%
%TO.C,R30*%
G36*
G01*
X52873900Y-136113000D02*
X53348900Y-136113000D01*
G75*
G02*
X53586400Y-136350500I0J-237500D01*
G01*
X53586400Y-136925500D01*
G75*
G02*
X53348900Y-137163000I-237500J0D01*
G01*
X52873900Y-137163000D01*
G75*
G02*
X52636400Y-136925500I0J237500D01*
G01*
X52636400Y-136350500D01*
G75*
G02*
X52873900Y-136113000I237500J0D01*
G01*
G37*
G36*
G01*
X52873900Y-134363000D02*
X53348900Y-134363000D01*
G75*
G02*
X53586400Y-134600500I0J-237500D01*
G01*
X53586400Y-135175500D01*
G75*
G02*
X53348900Y-135413000I-237500J0D01*
G01*
X52873900Y-135413000D01*
G75*
G02*
X52636400Y-135175500I0J237500D01*
G01*
X52636400Y-134600500D01*
G75*
G02*
X52873900Y-134363000I237500J0D01*
G01*
G37*
%TD*%
%TO.C,R29*%
G36*
G01*
X59071500Y-134208000D02*
X59546500Y-134208000D01*
G75*
G02*
X59784000Y-134445500I0J-237500D01*
G01*
X59784000Y-135020500D01*
G75*
G02*
X59546500Y-135258000I-237500J0D01*
G01*
X59071500Y-135258000D01*
G75*
G02*
X58834000Y-135020500I0J237500D01*
G01*
X58834000Y-134445500D01*
G75*
G02*
X59071500Y-134208000I237500J0D01*
G01*
G37*
G36*
G01*
X59071500Y-132458000D02*
X59546500Y-132458000D01*
G75*
G02*
X59784000Y-132695500I0J-237500D01*
G01*
X59784000Y-133270500D01*
G75*
G02*
X59546500Y-133508000I-237500J0D01*
G01*
X59071500Y-133508000D01*
G75*
G02*
X58834000Y-133270500I0J237500D01*
G01*
X58834000Y-132695500D01*
G75*
G02*
X59071500Y-132458000I237500J0D01*
G01*
G37*
%TD*%
%TO.C,FB8*%
G36*
G01*
X109846100Y-146450800D02*
X110321100Y-146450800D01*
G75*
G02*
X110558600Y-146688300I0J-237500D01*
G01*
X110558600Y-147263300D01*
G75*
G02*
X110321100Y-147500800I-237500J0D01*
G01*
X109846100Y-147500800D01*
G75*
G02*
X109608600Y-147263300I0J237500D01*
G01*
X109608600Y-146688300D01*
G75*
G02*
X109846100Y-146450800I237500J0D01*
G01*
G37*
G36*
G01*
X109846100Y-144700800D02*
X110321100Y-144700800D01*
G75*
G02*
X110558600Y-144938300I0J-237500D01*
G01*
X110558600Y-145513300D01*
G75*
G02*
X110321100Y-145750800I-237500J0D01*
G01*
X109846100Y-145750800D01*
G75*
G02*
X109608600Y-145513300I0J237500D01*
G01*
X109608600Y-144938300D01*
G75*
G02*
X109846100Y-144700800I237500J0D01*
G01*
G37*
%TD*%
%TO.C,FB3*%
G36*
G01*
X73072000Y-154107400D02*
X72597000Y-154107400D01*
G75*
G02*
X72359500Y-153869900I0J237500D01*
G01*
X72359500Y-153294900D01*
G75*
G02*
X72597000Y-153057400I237500J0D01*
G01*
X73072000Y-153057400D01*
G75*
G02*
X73309500Y-153294900I0J-237500D01*
G01*
X73309500Y-153869900D01*
G75*
G02*
X73072000Y-154107400I-237500J0D01*
G01*
G37*
G36*
G01*
X73072000Y-155857400D02*
X72597000Y-155857400D01*
G75*
G02*
X72359500Y-155619900I0J237500D01*
G01*
X72359500Y-155044900D01*
G75*
G02*
X72597000Y-154807400I237500J0D01*
G01*
X73072000Y-154807400D01*
G75*
G02*
X73309500Y-155044900I0J-237500D01*
G01*
X73309500Y-155619900D01*
G75*
G02*
X73072000Y-155857400I-237500J0D01*
G01*
G37*
%TD*%
D16*
%TO.C,U22*%
X100355840Y-100151560D03*
X100355840Y-98251560D03*
X97055840Y-98251560D03*
X97055840Y-99201560D03*
X97055840Y-100151560D03*
%TD*%
%TO.C,U21*%
X97039700Y-110716100D03*
X97039700Y-108816100D03*
X93739700Y-108816100D03*
X93739700Y-109766100D03*
X93739700Y-110716100D03*
%TD*%
%TO.C,R28*%
G36*
G01*
X119129820Y-105794060D02*
X118654820Y-105794060D01*
G75*
G02*
X118417320Y-105556560I0J237500D01*
G01*
X118417320Y-104981560D01*
G75*
G02*
X118654820Y-104744060I237500J0D01*
G01*
X119129820Y-104744060D01*
G75*
G02*
X119367320Y-104981560I0J-237500D01*
G01*
X119367320Y-105556560D01*
G75*
G02*
X119129820Y-105794060I-237500J0D01*
G01*
G37*
G36*
G01*
X119129820Y-107544060D02*
X118654820Y-107544060D01*
G75*
G02*
X118417320Y-107306560I0J237500D01*
G01*
X118417320Y-106731560D01*
G75*
G02*
X118654820Y-106494060I237500J0D01*
G01*
X119129820Y-106494060D01*
G75*
G02*
X119367320Y-106731560I0J-237500D01*
G01*
X119367320Y-107306560D01*
G75*
G02*
X119129820Y-107544060I-237500J0D01*
G01*
G37*
%TD*%
%TO.C,R27*%
G36*
G01*
X120697000Y-104323400D02*
X120222000Y-104323400D01*
G75*
G02*
X119984500Y-104085900I0J237500D01*
G01*
X119984500Y-103510900D01*
G75*
G02*
X120222000Y-103273400I237500J0D01*
G01*
X120697000Y-103273400D01*
G75*
G02*
X120934500Y-103510900I0J-237500D01*
G01*
X120934500Y-104085900D01*
G75*
G02*
X120697000Y-104323400I-237500J0D01*
G01*
G37*
G36*
G01*
X120697000Y-106073400D02*
X120222000Y-106073400D01*
G75*
G02*
X119984500Y-105835900I0J237500D01*
G01*
X119984500Y-105260900D01*
G75*
G02*
X120222000Y-105023400I237500J0D01*
G01*
X120697000Y-105023400D01*
G75*
G02*
X120934500Y-105260900I0J-237500D01*
G01*
X120934500Y-105835900D01*
G75*
G02*
X120697000Y-106073400I-237500J0D01*
G01*
G37*
%TD*%
%TO.C,C113*%
G36*
G01*
X118723400Y-112922800D02*
X119198400Y-112922800D01*
G75*
G02*
X119435900Y-113160300I0J-237500D01*
G01*
X119435900Y-113735300D01*
G75*
G02*
X119198400Y-113972800I-237500J0D01*
G01*
X118723400Y-113972800D01*
G75*
G02*
X118485900Y-113735300I0J237500D01*
G01*
X118485900Y-113160300D01*
G75*
G02*
X118723400Y-112922800I237500J0D01*
G01*
G37*
G36*
G01*
X118723400Y-111172800D02*
X119198400Y-111172800D01*
G75*
G02*
X119435900Y-111410300I0J-237500D01*
G01*
X119435900Y-111985300D01*
G75*
G02*
X119198400Y-112222800I-237500J0D01*
G01*
X118723400Y-112222800D01*
G75*
G02*
X118485900Y-111985300I0J237500D01*
G01*
X118485900Y-111410300D01*
G75*
G02*
X118723400Y-111172800I237500J0D01*
G01*
G37*
%TD*%
%TO.C,C112*%
G36*
G01*
X125764300Y-113137200D02*
X125289300Y-113137200D01*
G75*
G02*
X125051800Y-112899700I0J237500D01*
G01*
X125051800Y-112324700D01*
G75*
G02*
X125289300Y-112087200I237500J0D01*
G01*
X125764300Y-112087200D01*
G75*
G02*
X126001800Y-112324700I0J-237500D01*
G01*
X126001800Y-112899700D01*
G75*
G02*
X125764300Y-113137200I-237500J0D01*
G01*
G37*
G36*
G01*
X125764300Y-114887200D02*
X125289300Y-114887200D01*
G75*
G02*
X125051800Y-114649700I0J237500D01*
G01*
X125051800Y-114074700D01*
G75*
G02*
X125289300Y-113837200I237500J0D01*
G01*
X125764300Y-113837200D01*
G75*
G02*
X126001800Y-114074700I0J-237500D01*
G01*
X126001800Y-114649700D01*
G75*
G02*
X125764300Y-114887200I-237500J0D01*
G01*
G37*
%TD*%
%TO.C,C111*%
G36*
G01*
X102716340Y-98872560D02*
X102241340Y-98872560D01*
G75*
G02*
X102003840Y-98635060I0J237500D01*
G01*
X102003840Y-98060060D01*
G75*
G02*
X102241340Y-97822560I237500J0D01*
G01*
X102716340Y-97822560D01*
G75*
G02*
X102953840Y-98060060I0J-237500D01*
G01*
X102953840Y-98635060D01*
G75*
G02*
X102716340Y-98872560I-237500J0D01*
G01*
G37*
G36*
G01*
X102716340Y-100622560D02*
X102241340Y-100622560D01*
G75*
G02*
X102003840Y-100385060I0J237500D01*
G01*
X102003840Y-99810060D01*
G75*
G02*
X102241340Y-99572560I237500J0D01*
G01*
X102716340Y-99572560D01*
G75*
G02*
X102953840Y-99810060I0J-237500D01*
G01*
X102953840Y-100385060D01*
G75*
G02*
X102716340Y-100622560I-237500J0D01*
G01*
G37*
%TD*%
%TO.C,C102*%
G36*
G01*
X95121740Y-99304360D02*
X94646740Y-99304360D01*
G75*
G02*
X94409240Y-99066860I0J237500D01*
G01*
X94409240Y-98491860D01*
G75*
G02*
X94646740Y-98254360I237500J0D01*
G01*
X95121740Y-98254360D01*
G75*
G02*
X95359240Y-98491860I0J-237500D01*
G01*
X95359240Y-99066860D01*
G75*
G02*
X95121740Y-99304360I-237500J0D01*
G01*
G37*
G36*
G01*
X95121740Y-101054360D02*
X94646740Y-101054360D01*
G75*
G02*
X94409240Y-100816860I0J237500D01*
G01*
X94409240Y-100241860D01*
G75*
G02*
X94646740Y-100004360I237500J0D01*
G01*
X95121740Y-100004360D01*
G75*
G02*
X95359240Y-100241860I0J-237500D01*
G01*
X95359240Y-100816860D01*
G75*
G02*
X95121740Y-101054360I-237500J0D01*
G01*
G37*
%TD*%
%TO.C,C71*%
G36*
G01*
X99538800Y-109365300D02*
X99063800Y-109365300D01*
G75*
G02*
X98826300Y-109127800I0J237500D01*
G01*
X98826300Y-108552800D01*
G75*
G02*
X99063800Y-108315300I237500J0D01*
G01*
X99538800Y-108315300D01*
G75*
G02*
X99776300Y-108552800I0J-237500D01*
G01*
X99776300Y-109127800D01*
G75*
G02*
X99538800Y-109365300I-237500J0D01*
G01*
G37*
G36*
G01*
X99538800Y-111115300D02*
X99063800Y-111115300D01*
G75*
G02*
X98826300Y-110877800I0J237500D01*
G01*
X98826300Y-110302800D01*
G75*
G02*
X99063800Y-110065300I237500J0D01*
G01*
X99538800Y-110065300D01*
G75*
G02*
X99776300Y-110302800I0J-237500D01*
G01*
X99776300Y-110877800D01*
G75*
G02*
X99538800Y-111115300I-237500J0D01*
G01*
G37*
%TD*%
%TO.C,C70*%
G36*
G01*
X91880700Y-109479600D02*
X91405700Y-109479600D01*
G75*
G02*
X91168200Y-109242100I0J237500D01*
G01*
X91168200Y-108667100D01*
G75*
G02*
X91405700Y-108429600I237500J0D01*
G01*
X91880700Y-108429600D01*
G75*
G02*
X92118200Y-108667100I0J-237500D01*
G01*
X92118200Y-109242100D01*
G75*
G02*
X91880700Y-109479600I-237500J0D01*
G01*
G37*
G36*
G01*
X91880700Y-111229600D02*
X91405700Y-111229600D01*
G75*
G02*
X91168200Y-110992100I0J237500D01*
G01*
X91168200Y-110417100D01*
G75*
G02*
X91405700Y-110179600I237500J0D01*
G01*
X91880700Y-110179600D01*
G75*
G02*
X92118200Y-110417100I0J-237500D01*
G01*
X92118200Y-110992100D01*
G75*
G02*
X91880700Y-111229600I-237500J0D01*
G01*
G37*
%TD*%
%TO.C,C7*%
G36*
G01*
X56625500Y-97541600D02*
X56150500Y-97541600D01*
G75*
G02*
X55913000Y-97304100I0J237500D01*
G01*
X55913000Y-96729100D01*
G75*
G02*
X56150500Y-96491600I237500J0D01*
G01*
X56625500Y-96491600D01*
G75*
G02*
X56863000Y-96729100I0J-237500D01*
G01*
X56863000Y-97304100D01*
G75*
G02*
X56625500Y-97541600I-237500J0D01*
G01*
G37*
G36*
G01*
X56625500Y-99291600D02*
X56150500Y-99291600D01*
G75*
G02*
X55913000Y-99054100I0J237500D01*
G01*
X55913000Y-98479100D01*
G75*
G02*
X56150500Y-98241600I237500J0D01*
G01*
X56625500Y-98241600D01*
G75*
G02*
X56863000Y-98479100I0J-237500D01*
G01*
X56863000Y-99054100D01*
G75*
G02*
X56625500Y-99291600I-237500J0D01*
G01*
G37*
%TD*%
%TO.C,C6*%
G36*
G01*
X80090000Y-121571500D02*
X80565000Y-121571500D01*
G75*
G02*
X80802500Y-121809000I0J-237500D01*
G01*
X80802500Y-122384000D01*
G75*
G02*
X80565000Y-122621500I-237500J0D01*
G01*
X80090000Y-122621500D01*
G75*
G02*
X79852500Y-122384000I0J237500D01*
G01*
X79852500Y-121809000D01*
G75*
G02*
X80090000Y-121571500I237500J0D01*
G01*
G37*
G36*
G01*
X80090000Y-119821500D02*
X80565000Y-119821500D01*
G75*
G02*
X80802500Y-120059000I0J-237500D01*
G01*
X80802500Y-120634000D01*
G75*
G02*
X80565000Y-120871500I-237500J0D01*
G01*
X80090000Y-120871500D01*
G75*
G02*
X79852500Y-120634000I0J237500D01*
G01*
X79852500Y-120059000D01*
G75*
G02*
X80090000Y-119821500I237500J0D01*
G01*
G37*
%TD*%
%TO.C,C4*%
G36*
G01*
X66637400Y-147808900D02*
X66637400Y-147333900D01*
G75*
G02*
X66874900Y-147096400I237500J0D01*
G01*
X67449900Y-147096400D01*
G75*
G02*
X67687400Y-147333900I0J-237500D01*
G01*
X67687400Y-147808900D01*
G75*
G02*
X67449900Y-148046400I-237500J0D01*
G01*
X66874900Y-148046400D01*
G75*
G02*
X66637400Y-147808900I0J237500D01*
G01*
G37*
G36*
G01*
X64887400Y-147808900D02*
X64887400Y-147333900D01*
G75*
G02*
X65124900Y-147096400I237500J0D01*
G01*
X65699900Y-147096400D01*
G75*
G02*
X65937400Y-147333900I0J-237500D01*
G01*
X65937400Y-147808900D01*
G75*
G02*
X65699900Y-148046400I-237500J0D01*
G01*
X65124900Y-148046400D01*
G75*
G02*
X64887400Y-147808900I0J237500D01*
G01*
G37*
%TD*%
%TO.C,C3*%
G36*
G01*
X66567800Y-139708900D02*
X66567800Y-139233900D01*
G75*
G02*
X66805300Y-138996400I237500J0D01*
G01*
X67380300Y-138996400D01*
G75*
G02*
X67617800Y-139233900I0J-237500D01*
G01*
X67617800Y-139708900D01*
G75*
G02*
X67380300Y-139946400I-237500J0D01*
G01*
X66805300Y-139946400D01*
G75*
G02*
X66567800Y-139708900I0J237500D01*
G01*
G37*
G36*
G01*
X64817800Y-139708900D02*
X64817800Y-139233900D01*
G75*
G02*
X65055300Y-138996400I237500J0D01*
G01*
X65630300Y-138996400D01*
G75*
G02*
X65867800Y-139233900I0J-237500D01*
G01*
X65867800Y-139708900D01*
G75*
G02*
X65630300Y-139946400I-237500J0D01*
G01*
X65055300Y-139946400D01*
G75*
G02*
X64817800Y-139708900I0J237500D01*
G01*
G37*
%TD*%
%TO.C,C88*%
G36*
G01*
X110438200Y-91370200D02*
X110438200Y-91845200D01*
G75*
G02*
X110200700Y-92082700I-237500J0D01*
G01*
X109625700Y-92082700D01*
G75*
G02*
X109388200Y-91845200I0J237500D01*
G01*
X109388200Y-91370200D01*
G75*
G02*
X109625700Y-91132700I237500J0D01*
G01*
X110200700Y-91132700D01*
G75*
G02*
X110438200Y-91370200I0J-237500D01*
G01*
G37*
G36*
G01*
X112188200Y-91370200D02*
X112188200Y-91845200D01*
G75*
G02*
X111950700Y-92082700I-237500J0D01*
G01*
X111375700Y-92082700D01*
G75*
G02*
X111138200Y-91845200I0J237500D01*
G01*
X111138200Y-91370200D01*
G75*
G02*
X111375700Y-91132700I237500J0D01*
G01*
X111950700Y-91132700D01*
G75*
G02*
X112188200Y-91370200I0J-237500D01*
G01*
G37*
%TD*%
%TO.C,C87*%
G36*
G01*
X100760800Y-91370200D02*
X100760800Y-91845200D01*
G75*
G02*
X100523300Y-92082700I-237500J0D01*
G01*
X99948300Y-92082700D01*
G75*
G02*
X99710800Y-91845200I0J237500D01*
G01*
X99710800Y-91370200D01*
G75*
G02*
X99948300Y-91132700I237500J0D01*
G01*
X100523300Y-91132700D01*
G75*
G02*
X100760800Y-91370200I0J-237500D01*
G01*
G37*
G36*
G01*
X102510800Y-91370200D02*
X102510800Y-91845200D01*
G75*
G02*
X102273300Y-92082700I-237500J0D01*
G01*
X101698300Y-92082700D01*
G75*
G02*
X101460800Y-91845200I0J237500D01*
G01*
X101460800Y-91370200D01*
G75*
G02*
X101698300Y-91132700I237500J0D01*
G01*
X102273300Y-91132700D01*
G75*
G02*
X102510800Y-91370200I0J-237500D01*
G01*
G37*
%TD*%
%TO.C,R8*%
G36*
G01*
X49958000Y-119093500D02*
X49483000Y-119093500D01*
G75*
G02*
X49245500Y-118856000I0J237500D01*
G01*
X49245500Y-118281000D01*
G75*
G02*
X49483000Y-118043500I237500J0D01*
G01*
X49958000Y-118043500D01*
G75*
G02*
X50195500Y-118281000I0J-237500D01*
G01*
X50195500Y-118856000D01*
G75*
G02*
X49958000Y-119093500I-237500J0D01*
G01*
G37*
G36*
G01*
X49958000Y-120843500D02*
X49483000Y-120843500D01*
G75*
G02*
X49245500Y-120606000I0J237500D01*
G01*
X49245500Y-120031000D01*
G75*
G02*
X49483000Y-119793500I237500J0D01*
G01*
X49958000Y-119793500D01*
G75*
G02*
X50195500Y-120031000I0J-237500D01*
G01*
X50195500Y-120606000D01*
G75*
G02*
X49958000Y-120843500I-237500J0D01*
G01*
G37*
%TD*%
%TO.C,R7*%
G36*
G01*
X47070000Y-105823500D02*
X47545000Y-105823500D01*
G75*
G02*
X47782500Y-106061000I0J-237500D01*
G01*
X47782500Y-106636000D01*
G75*
G02*
X47545000Y-106873500I-237500J0D01*
G01*
X47070000Y-106873500D01*
G75*
G02*
X46832500Y-106636000I0J237500D01*
G01*
X46832500Y-106061000D01*
G75*
G02*
X47070000Y-105823500I237500J0D01*
G01*
G37*
G36*
G01*
X47070000Y-104073500D02*
X47545000Y-104073500D01*
G75*
G02*
X47782500Y-104311000I0J-237500D01*
G01*
X47782500Y-104886000D01*
G75*
G02*
X47545000Y-105123500I-237500J0D01*
G01*
X47070000Y-105123500D01*
G75*
G02*
X46832500Y-104886000I0J237500D01*
G01*
X46832500Y-104311000D01*
G75*
G02*
X47070000Y-104073500I237500J0D01*
G01*
G37*
%TD*%
%TO.C,R6*%
G36*
G01*
X44593500Y-105887000D02*
X45068500Y-105887000D01*
G75*
G02*
X45306000Y-106124500I0J-237500D01*
G01*
X45306000Y-106699500D01*
G75*
G02*
X45068500Y-106937000I-237500J0D01*
G01*
X44593500Y-106937000D01*
G75*
G02*
X44356000Y-106699500I0J237500D01*
G01*
X44356000Y-106124500D01*
G75*
G02*
X44593500Y-105887000I237500J0D01*
G01*
G37*
G36*
G01*
X44593500Y-104137000D02*
X45068500Y-104137000D01*
G75*
G02*
X45306000Y-104374500I0J-237500D01*
G01*
X45306000Y-104949500D01*
G75*
G02*
X45068500Y-105187000I-237500J0D01*
G01*
X44593500Y-105187000D01*
G75*
G02*
X44356000Y-104949500I0J237500D01*
G01*
X44356000Y-104374500D01*
G75*
G02*
X44593500Y-104137000I237500J0D01*
G01*
G37*
%TD*%
%TO.C,R46*%
G36*
G01*
X116201800Y-84508400D02*
X115726800Y-84508400D01*
G75*
G02*
X115489300Y-84270900I0J237500D01*
G01*
X115489300Y-83695900D01*
G75*
G02*
X115726800Y-83458400I237500J0D01*
G01*
X116201800Y-83458400D01*
G75*
G02*
X116439300Y-83695900I0J-237500D01*
G01*
X116439300Y-84270900D01*
G75*
G02*
X116201800Y-84508400I-237500J0D01*
G01*
G37*
G36*
G01*
X116201800Y-86258400D02*
X115726800Y-86258400D01*
G75*
G02*
X115489300Y-86020900I0J237500D01*
G01*
X115489300Y-85445900D01*
G75*
G02*
X115726800Y-85208400I237500J0D01*
G01*
X116201800Y-85208400D01*
G75*
G02*
X116439300Y-85445900I0J-237500D01*
G01*
X116439300Y-86020900D01*
G75*
G02*
X116201800Y-86258400I-237500J0D01*
G01*
G37*
%TD*%
%TO.C,R45*%
G36*
G01*
X117961800Y-84508400D02*
X117486800Y-84508400D01*
G75*
G02*
X117249300Y-84270900I0J237500D01*
G01*
X117249300Y-83695900D01*
G75*
G02*
X117486800Y-83458400I237500J0D01*
G01*
X117961800Y-83458400D01*
G75*
G02*
X118199300Y-83695900I0J-237500D01*
G01*
X118199300Y-84270900D01*
G75*
G02*
X117961800Y-84508400I-237500J0D01*
G01*
G37*
G36*
G01*
X117961800Y-86258400D02*
X117486800Y-86258400D01*
G75*
G02*
X117249300Y-86020900I0J237500D01*
G01*
X117249300Y-85445900D01*
G75*
G02*
X117486800Y-85208400I237500J0D01*
G01*
X117961800Y-85208400D01*
G75*
G02*
X118199300Y-85445900I0J-237500D01*
G01*
X118199300Y-86020900D01*
G75*
G02*
X117961800Y-86258400I-237500J0D01*
G01*
G37*
%TD*%
%TO.C,R42*%
G36*
G01*
X60230500Y-105647500D02*
X60230500Y-105172500D01*
G75*
G02*
X60468000Y-104935000I237500J0D01*
G01*
X61043000Y-104935000D01*
G75*
G02*
X61280500Y-105172500I0J-237500D01*
G01*
X61280500Y-105647500D01*
G75*
G02*
X61043000Y-105885000I-237500J0D01*
G01*
X60468000Y-105885000D01*
G75*
G02*
X60230500Y-105647500I0J237500D01*
G01*
G37*
G36*
G01*
X58480500Y-105647500D02*
X58480500Y-105172500D01*
G75*
G02*
X58718000Y-104935000I237500J0D01*
G01*
X59293000Y-104935000D01*
G75*
G02*
X59530500Y-105172500I0J-237500D01*
G01*
X59530500Y-105647500D01*
G75*
G02*
X59293000Y-105885000I-237500J0D01*
G01*
X58718000Y-105885000D01*
G75*
G02*
X58480500Y-105647500I0J237500D01*
G01*
G37*
%TD*%
%TO.C,R41*%
G36*
G01*
X116363000Y-73422500D02*
X116363000Y-73897500D01*
G75*
G02*
X116125500Y-74135000I-237500J0D01*
G01*
X115550500Y-74135000D01*
G75*
G02*
X115313000Y-73897500I0J237500D01*
G01*
X115313000Y-73422500D01*
G75*
G02*
X115550500Y-73185000I237500J0D01*
G01*
X116125500Y-73185000D01*
G75*
G02*
X116363000Y-73422500I0J-237500D01*
G01*
G37*
G36*
G01*
X118113000Y-73422500D02*
X118113000Y-73897500D01*
G75*
G02*
X117875500Y-74135000I-237500J0D01*
G01*
X117300500Y-74135000D01*
G75*
G02*
X117063000Y-73897500I0J237500D01*
G01*
X117063000Y-73422500D01*
G75*
G02*
X117300500Y-73185000I237500J0D01*
G01*
X117875500Y-73185000D01*
G75*
G02*
X118113000Y-73422500I0J-237500D01*
G01*
G37*
%TD*%
%TO.C,R35*%
G36*
G01*
X122208300Y-97236800D02*
X121733300Y-97236800D01*
G75*
G02*
X121495800Y-96999300I0J237500D01*
G01*
X121495800Y-96424300D01*
G75*
G02*
X121733300Y-96186800I237500J0D01*
G01*
X122208300Y-96186800D01*
G75*
G02*
X122445800Y-96424300I0J-237500D01*
G01*
X122445800Y-96999300D01*
G75*
G02*
X122208300Y-97236800I-237500J0D01*
G01*
G37*
G36*
G01*
X122208300Y-98986800D02*
X121733300Y-98986800D01*
G75*
G02*
X121495800Y-98749300I0J237500D01*
G01*
X121495800Y-98174300D01*
G75*
G02*
X121733300Y-97936800I237500J0D01*
G01*
X122208300Y-97936800D01*
G75*
G02*
X122445800Y-98174300I0J-237500D01*
G01*
X122445800Y-98749300D01*
G75*
G02*
X122208300Y-98986800I-237500J0D01*
G01*
G37*
%TD*%
%TO.C,R26*%
G36*
G01*
X112509800Y-69391600D02*
X112509800Y-68916600D01*
G75*
G02*
X112747300Y-68679100I237500J0D01*
G01*
X113322300Y-68679100D01*
G75*
G02*
X113559800Y-68916600I0J-237500D01*
G01*
X113559800Y-69391600D01*
G75*
G02*
X113322300Y-69629100I-237500J0D01*
G01*
X112747300Y-69629100D01*
G75*
G02*
X112509800Y-69391600I0J237500D01*
G01*
G37*
G36*
G01*
X110759800Y-69391600D02*
X110759800Y-68916600D01*
G75*
G02*
X110997300Y-68679100I237500J0D01*
G01*
X111572300Y-68679100D01*
G75*
G02*
X111809800Y-68916600I0J-237500D01*
G01*
X111809800Y-69391600D01*
G75*
G02*
X111572300Y-69629100I-237500J0D01*
G01*
X110997300Y-69629100D01*
G75*
G02*
X110759800Y-69391600I0J237500D01*
G01*
G37*
%TD*%
%TO.C,R24*%
G36*
G01*
X101696000Y-58276500D02*
X101696000Y-57801500D01*
G75*
G02*
X101933500Y-57564000I237500J0D01*
G01*
X102508500Y-57564000D01*
G75*
G02*
X102746000Y-57801500I0J-237500D01*
G01*
X102746000Y-58276500D01*
G75*
G02*
X102508500Y-58514000I-237500J0D01*
G01*
X101933500Y-58514000D01*
G75*
G02*
X101696000Y-58276500I0J237500D01*
G01*
G37*
G36*
G01*
X99946000Y-58276500D02*
X99946000Y-57801500D01*
G75*
G02*
X100183500Y-57564000I237500J0D01*
G01*
X100758500Y-57564000D01*
G75*
G02*
X100996000Y-57801500I0J-237500D01*
G01*
X100996000Y-58276500D01*
G75*
G02*
X100758500Y-58514000I-237500J0D01*
G01*
X100183500Y-58514000D01*
G75*
G02*
X99946000Y-58276500I0J237500D01*
G01*
G37*
%TD*%
%TO.C,R23*%
G36*
G01*
X94457000Y-53069500D02*
X94457000Y-52594500D01*
G75*
G02*
X94694500Y-52357000I237500J0D01*
G01*
X95269500Y-52357000D01*
G75*
G02*
X95507000Y-52594500I0J-237500D01*
G01*
X95507000Y-53069500D01*
G75*
G02*
X95269500Y-53307000I-237500J0D01*
G01*
X94694500Y-53307000D01*
G75*
G02*
X94457000Y-53069500I0J237500D01*
G01*
G37*
G36*
G01*
X92707000Y-53069500D02*
X92707000Y-52594500D01*
G75*
G02*
X92944500Y-52357000I237500J0D01*
G01*
X93519500Y-52357000D01*
G75*
G02*
X93757000Y-52594500I0J-237500D01*
G01*
X93757000Y-53069500D01*
G75*
G02*
X93519500Y-53307000I-237500J0D01*
G01*
X92944500Y-53307000D01*
G75*
G02*
X92707000Y-53069500I0J237500D01*
G01*
G37*
%TD*%
%TO.C,R22*%
G36*
G01*
X81390500Y-58451000D02*
X80915500Y-58451000D01*
G75*
G02*
X80678000Y-58213500I0J237500D01*
G01*
X80678000Y-57638500D01*
G75*
G02*
X80915500Y-57401000I237500J0D01*
G01*
X81390500Y-57401000D01*
G75*
G02*
X81628000Y-57638500I0J-237500D01*
G01*
X81628000Y-58213500D01*
G75*
G02*
X81390500Y-58451000I-237500J0D01*
G01*
G37*
G36*
G01*
X81390500Y-60201000D02*
X80915500Y-60201000D01*
G75*
G02*
X80678000Y-59963500I0J237500D01*
G01*
X80678000Y-59388500D01*
G75*
G02*
X80915500Y-59151000I237500J0D01*
G01*
X81390500Y-59151000D01*
G75*
G02*
X81628000Y-59388500I0J-237500D01*
G01*
X81628000Y-59963500D01*
G75*
G02*
X81390500Y-60201000I-237500J0D01*
G01*
G37*
%TD*%
%TO.C,R21*%
G36*
G01*
X79804500Y-58451000D02*
X79329500Y-58451000D01*
G75*
G02*
X79092000Y-58213500I0J237500D01*
G01*
X79092000Y-57638500D01*
G75*
G02*
X79329500Y-57401000I237500J0D01*
G01*
X79804500Y-57401000D01*
G75*
G02*
X80042000Y-57638500I0J-237500D01*
G01*
X80042000Y-58213500D01*
G75*
G02*
X79804500Y-58451000I-237500J0D01*
G01*
G37*
G36*
G01*
X79804500Y-60201000D02*
X79329500Y-60201000D01*
G75*
G02*
X79092000Y-59963500I0J237500D01*
G01*
X79092000Y-59388500D01*
G75*
G02*
X79329500Y-59151000I237500J0D01*
G01*
X79804500Y-59151000D01*
G75*
G02*
X80042000Y-59388500I0J-237500D01*
G01*
X80042000Y-59963500D01*
G75*
G02*
X79804500Y-60201000I-237500J0D01*
G01*
G37*
%TD*%
%TO.C,R20*%
G36*
G01*
X98436700Y-46513800D02*
X98436700Y-46988800D01*
G75*
G02*
X98199200Y-47226300I-237500J0D01*
G01*
X97624200Y-47226300D01*
G75*
G02*
X97386700Y-46988800I0J237500D01*
G01*
X97386700Y-46513800D01*
G75*
G02*
X97624200Y-46276300I237500J0D01*
G01*
X98199200Y-46276300D01*
G75*
G02*
X98436700Y-46513800I0J-237500D01*
G01*
G37*
G36*
G01*
X100186700Y-46513800D02*
X100186700Y-46988800D01*
G75*
G02*
X99949200Y-47226300I-237500J0D01*
G01*
X99374200Y-47226300D01*
G75*
G02*
X99136700Y-46988800I0J237500D01*
G01*
X99136700Y-46513800D01*
G75*
G02*
X99374200Y-46276300I237500J0D01*
G01*
X99949200Y-46276300D01*
G75*
G02*
X100186700Y-46513800I0J-237500D01*
G01*
G37*
%TD*%
%TO.C,R19*%
G36*
G01*
X89264500Y-55657000D02*
X88789500Y-55657000D01*
G75*
G02*
X88552000Y-55419500I0J237500D01*
G01*
X88552000Y-54844500D01*
G75*
G02*
X88789500Y-54607000I237500J0D01*
G01*
X89264500Y-54607000D01*
G75*
G02*
X89502000Y-54844500I0J-237500D01*
G01*
X89502000Y-55419500D01*
G75*
G02*
X89264500Y-55657000I-237500J0D01*
G01*
G37*
G36*
G01*
X89264500Y-57407000D02*
X88789500Y-57407000D01*
G75*
G02*
X88552000Y-57169500I0J237500D01*
G01*
X88552000Y-56594500D01*
G75*
G02*
X88789500Y-56357000I237500J0D01*
G01*
X89264500Y-56357000D01*
G75*
G02*
X89502000Y-56594500I0J-237500D01*
G01*
X89502000Y-57169500D01*
G75*
G02*
X89264500Y-57407000I-237500J0D01*
G01*
G37*
%TD*%
%TO.C,R18*%
G36*
G01*
X78502500Y-79979000D02*
X78977500Y-79979000D01*
G75*
G02*
X79215000Y-80216500I0J-237500D01*
G01*
X79215000Y-80791500D01*
G75*
G02*
X78977500Y-81029000I-237500J0D01*
G01*
X78502500Y-81029000D01*
G75*
G02*
X78265000Y-80791500I0J237500D01*
G01*
X78265000Y-80216500D01*
G75*
G02*
X78502500Y-79979000I237500J0D01*
G01*
G37*
G36*
G01*
X78502500Y-78229000D02*
X78977500Y-78229000D01*
G75*
G02*
X79215000Y-78466500I0J-237500D01*
G01*
X79215000Y-79041500D01*
G75*
G02*
X78977500Y-79279000I-237500J0D01*
G01*
X78502500Y-79279000D01*
G75*
G02*
X78265000Y-79041500I0J237500D01*
G01*
X78265000Y-78466500D01*
G75*
G02*
X78502500Y-78229000I237500J0D01*
G01*
G37*
%TD*%
%TO.C,R17*%
G36*
G01*
X81569300Y-65173400D02*
X82044300Y-65173400D01*
G75*
G02*
X82281800Y-65410900I0J-237500D01*
G01*
X82281800Y-65985900D01*
G75*
G02*
X82044300Y-66223400I-237500J0D01*
G01*
X81569300Y-66223400D01*
G75*
G02*
X81331800Y-65985900I0J237500D01*
G01*
X81331800Y-65410900D01*
G75*
G02*
X81569300Y-65173400I237500J0D01*
G01*
G37*
G36*
G01*
X81569300Y-63423400D02*
X82044300Y-63423400D01*
G75*
G02*
X82281800Y-63660900I0J-237500D01*
G01*
X82281800Y-64235900D01*
G75*
G02*
X82044300Y-64473400I-237500J0D01*
G01*
X81569300Y-64473400D01*
G75*
G02*
X81331800Y-64235900I0J237500D01*
G01*
X81331800Y-63660900D01*
G75*
G02*
X81569300Y-63423400I237500J0D01*
G01*
G37*
%TD*%
%TO.C,R16*%
G36*
G01*
X84025500Y-64473400D02*
X83550500Y-64473400D01*
G75*
G02*
X83313000Y-64235900I0J237500D01*
G01*
X83313000Y-63660900D01*
G75*
G02*
X83550500Y-63423400I237500J0D01*
G01*
X84025500Y-63423400D01*
G75*
G02*
X84263000Y-63660900I0J-237500D01*
G01*
X84263000Y-64235900D01*
G75*
G02*
X84025500Y-64473400I-237500J0D01*
G01*
G37*
G36*
G01*
X84025500Y-66223400D02*
X83550500Y-66223400D01*
G75*
G02*
X83313000Y-65985900I0J237500D01*
G01*
X83313000Y-65410900D01*
G75*
G02*
X83550500Y-65173400I237500J0D01*
G01*
X84025500Y-65173400D01*
G75*
G02*
X84263000Y-65410900I0J-237500D01*
G01*
X84263000Y-65985900D01*
G75*
G02*
X84025500Y-66223400I-237500J0D01*
G01*
G37*
%TD*%
%TO.C,R12*%
G36*
G01*
X40180000Y-67815000D02*
X40655000Y-67815000D01*
G75*
G02*
X40892500Y-68052500I0J-237500D01*
G01*
X40892500Y-68627500D01*
G75*
G02*
X40655000Y-68865000I-237500J0D01*
G01*
X40180000Y-68865000D01*
G75*
G02*
X39942500Y-68627500I0J237500D01*
G01*
X39942500Y-68052500D01*
G75*
G02*
X40180000Y-67815000I237500J0D01*
G01*
G37*
G36*
G01*
X40180000Y-66065000D02*
X40655000Y-66065000D01*
G75*
G02*
X40892500Y-66302500I0J-237500D01*
G01*
X40892500Y-66877500D01*
G75*
G02*
X40655000Y-67115000I-237500J0D01*
G01*
X40180000Y-67115000D01*
G75*
G02*
X39942500Y-66877500I0J237500D01*
G01*
X39942500Y-66302500D01*
G75*
G02*
X40180000Y-66065000I237500J0D01*
G01*
G37*
%TD*%
%TO.C,R9*%
G36*
G01*
X113757700Y-148609800D02*
X114232700Y-148609800D01*
G75*
G02*
X114470200Y-148847300I0J-237500D01*
G01*
X114470200Y-149422300D01*
G75*
G02*
X114232700Y-149659800I-237500J0D01*
G01*
X113757700Y-149659800D01*
G75*
G02*
X113520200Y-149422300I0J237500D01*
G01*
X113520200Y-148847300D01*
G75*
G02*
X113757700Y-148609800I237500J0D01*
G01*
G37*
G36*
G01*
X113757700Y-146859800D02*
X114232700Y-146859800D01*
G75*
G02*
X114470200Y-147097300I0J-237500D01*
G01*
X114470200Y-147672300D01*
G75*
G02*
X114232700Y-147909800I-237500J0D01*
G01*
X113757700Y-147909800D01*
G75*
G02*
X113520200Y-147672300I0J237500D01*
G01*
X113520200Y-147097300D01*
G75*
G02*
X113757700Y-146859800I237500J0D01*
G01*
G37*
%TD*%
%TO.C,R5*%
G36*
G01*
X52510700Y-119131600D02*
X52035700Y-119131600D01*
G75*
G02*
X51798200Y-118894100I0J237500D01*
G01*
X51798200Y-118319100D01*
G75*
G02*
X52035700Y-118081600I237500J0D01*
G01*
X52510700Y-118081600D01*
G75*
G02*
X52748200Y-118319100I0J-237500D01*
G01*
X52748200Y-118894100D01*
G75*
G02*
X52510700Y-119131600I-237500J0D01*
G01*
G37*
G36*
G01*
X52510700Y-120881600D02*
X52035700Y-120881600D01*
G75*
G02*
X51798200Y-120644100I0J237500D01*
G01*
X51798200Y-120069100D01*
G75*
G02*
X52035700Y-119831600I237500J0D01*
G01*
X52510700Y-119831600D01*
G75*
G02*
X52748200Y-120069100I0J-237500D01*
G01*
X52748200Y-120644100D01*
G75*
G02*
X52510700Y-120881600I-237500J0D01*
G01*
G37*
%TD*%
%TO.C,R4*%
G36*
G01*
X55101500Y-119131600D02*
X54626500Y-119131600D01*
G75*
G02*
X54389000Y-118894100I0J237500D01*
G01*
X54389000Y-118319100D01*
G75*
G02*
X54626500Y-118081600I237500J0D01*
G01*
X55101500Y-118081600D01*
G75*
G02*
X55339000Y-118319100I0J-237500D01*
G01*
X55339000Y-118894100D01*
G75*
G02*
X55101500Y-119131600I-237500J0D01*
G01*
G37*
G36*
G01*
X55101500Y-120881600D02*
X54626500Y-120881600D01*
G75*
G02*
X54389000Y-120644100I0J237500D01*
G01*
X54389000Y-120069100D01*
G75*
G02*
X54626500Y-119831600I237500J0D01*
G01*
X55101500Y-119831600D01*
G75*
G02*
X55339000Y-120069100I0J-237500D01*
G01*
X55339000Y-120644100D01*
G75*
G02*
X55101500Y-120881600I-237500J0D01*
G01*
G37*
%TD*%
%TO.C,FB7*%
G36*
G01*
X47465500Y-70946000D02*
X47465500Y-71421000D01*
G75*
G02*
X47228000Y-71658500I-237500J0D01*
G01*
X46653000Y-71658500D01*
G75*
G02*
X46415500Y-71421000I0J237500D01*
G01*
X46415500Y-70946000D01*
G75*
G02*
X46653000Y-70708500I237500J0D01*
G01*
X47228000Y-70708500D01*
G75*
G02*
X47465500Y-70946000I0J-237500D01*
G01*
G37*
G36*
G01*
X49215500Y-70946000D02*
X49215500Y-71421000D01*
G75*
G02*
X48978000Y-71658500I-237500J0D01*
G01*
X48403000Y-71658500D01*
G75*
G02*
X48165500Y-71421000I0J237500D01*
G01*
X48165500Y-70946000D01*
G75*
G02*
X48403000Y-70708500I237500J0D01*
G01*
X48978000Y-70708500D01*
G75*
G02*
X49215500Y-70946000I0J-237500D01*
G01*
G37*
%TD*%
%TO.C,FB6*%
G36*
G01*
X47959000Y-76550000D02*
X48434000Y-76550000D01*
G75*
G02*
X48671500Y-76787500I0J-237500D01*
G01*
X48671500Y-77362500D01*
G75*
G02*
X48434000Y-77600000I-237500J0D01*
G01*
X47959000Y-77600000D01*
G75*
G02*
X47721500Y-77362500I0J237500D01*
G01*
X47721500Y-76787500D01*
G75*
G02*
X47959000Y-76550000I237500J0D01*
G01*
G37*
G36*
G01*
X47959000Y-74800000D02*
X48434000Y-74800000D01*
G75*
G02*
X48671500Y-75037500I0J-237500D01*
G01*
X48671500Y-75612500D01*
G75*
G02*
X48434000Y-75850000I-237500J0D01*
G01*
X47959000Y-75850000D01*
G75*
G02*
X47721500Y-75612500I0J237500D01*
G01*
X47721500Y-75037500D01*
G75*
G02*
X47959000Y-74800000I237500J0D01*
G01*
G37*
%TD*%
%TO.C,FB5*%
G36*
G01*
X74073500Y-49323000D02*
X74073500Y-48848000D01*
G75*
G02*
X74311000Y-48610500I237500J0D01*
G01*
X74886000Y-48610500D01*
G75*
G02*
X75123500Y-48848000I0J-237500D01*
G01*
X75123500Y-49323000D01*
G75*
G02*
X74886000Y-49560500I-237500J0D01*
G01*
X74311000Y-49560500D01*
G75*
G02*
X74073500Y-49323000I0J237500D01*
G01*
G37*
G36*
G01*
X72323500Y-49323000D02*
X72323500Y-48848000D01*
G75*
G02*
X72561000Y-48610500I237500J0D01*
G01*
X73136000Y-48610500D01*
G75*
G02*
X73373500Y-48848000I0J-237500D01*
G01*
X73373500Y-49323000D01*
G75*
G02*
X73136000Y-49560500I-237500J0D01*
G01*
X72561000Y-49560500D01*
G75*
G02*
X72323500Y-49323000I0J237500D01*
G01*
G37*
%TD*%
%TO.C,FB4*%
G36*
G01*
X110592100Y-74979600D02*
X110592100Y-74504600D01*
G75*
G02*
X110829600Y-74267100I237500J0D01*
G01*
X111404600Y-74267100D01*
G75*
G02*
X111642100Y-74504600I0J-237500D01*
G01*
X111642100Y-74979600D01*
G75*
G02*
X111404600Y-75217100I-237500J0D01*
G01*
X110829600Y-75217100D01*
G75*
G02*
X110592100Y-74979600I0J237500D01*
G01*
G37*
G36*
G01*
X108842100Y-74979600D02*
X108842100Y-74504600D01*
G75*
G02*
X109079600Y-74267100I237500J0D01*
G01*
X109654600Y-74267100D01*
G75*
G02*
X109892100Y-74504600I0J-237500D01*
G01*
X109892100Y-74979600D01*
G75*
G02*
X109654600Y-75217100I-237500J0D01*
G01*
X109079600Y-75217100D01*
G75*
G02*
X108842100Y-74979600I0J237500D01*
G01*
G37*
%TD*%
%TO.C,FB2*%
G36*
G01*
X110515900Y-80501500D02*
X110515900Y-80026500D01*
G75*
G02*
X110753400Y-79789000I237500J0D01*
G01*
X111328400Y-79789000D01*
G75*
G02*
X111565900Y-80026500I0J-237500D01*
G01*
X111565900Y-80501500D01*
G75*
G02*
X111328400Y-80739000I-237500J0D01*
G01*
X110753400Y-80739000D01*
G75*
G02*
X110515900Y-80501500I0J237500D01*
G01*
G37*
G36*
G01*
X108765900Y-80501500D02*
X108765900Y-80026500D01*
G75*
G02*
X109003400Y-79789000I237500J0D01*
G01*
X109578400Y-79789000D01*
G75*
G02*
X109815900Y-80026500I0J-237500D01*
G01*
X109815900Y-80501500D01*
G75*
G02*
X109578400Y-80739000I-237500J0D01*
G01*
X109003400Y-80739000D01*
G75*
G02*
X108765900Y-80501500I0J237500D01*
G01*
G37*
%TD*%
%TO.C,FB1*%
G36*
G01*
X110528600Y-82417100D02*
X110528600Y-81942100D01*
G75*
G02*
X110766100Y-81704600I237500J0D01*
G01*
X111341100Y-81704600D01*
G75*
G02*
X111578600Y-81942100I0J-237500D01*
G01*
X111578600Y-82417100D01*
G75*
G02*
X111341100Y-82654600I-237500J0D01*
G01*
X110766100Y-82654600D01*
G75*
G02*
X110528600Y-82417100I0J237500D01*
G01*
G37*
G36*
G01*
X108778600Y-82417100D02*
X108778600Y-81942100D01*
G75*
G02*
X109016100Y-81704600I237500J0D01*
G01*
X109591100Y-81704600D01*
G75*
G02*
X109828600Y-81942100I0J-237500D01*
G01*
X109828600Y-82417100D01*
G75*
G02*
X109591100Y-82654600I-237500J0D01*
G01*
X109016100Y-82654600D01*
G75*
G02*
X108778600Y-82417100I0J237500D01*
G01*
G37*
%TD*%
%TO.C,C110*%
G36*
G01*
X99330500Y-82265000D02*
X99805500Y-82265000D01*
G75*
G02*
X100043000Y-82502500I0J-237500D01*
G01*
X100043000Y-83077500D01*
G75*
G02*
X99805500Y-83315000I-237500J0D01*
G01*
X99330500Y-83315000D01*
G75*
G02*
X99093000Y-83077500I0J237500D01*
G01*
X99093000Y-82502500D01*
G75*
G02*
X99330500Y-82265000I237500J0D01*
G01*
G37*
G36*
G01*
X99330500Y-80515000D02*
X99805500Y-80515000D01*
G75*
G02*
X100043000Y-80752500I0J-237500D01*
G01*
X100043000Y-81327500D01*
G75*
G02*
X99805500Y-81565000I-237500J0D01*
G01*
X99330500Y-81565000D01*
G75*
G02*
X99093000Y-81327500I0J237500D01*
G01*
X99093000Y-80752500D01*
G75*
G02*
X99330500Y-80515000I237500J0D01*
G01*
G37*
%TD*%
%TO.C,C109*%
G36*
G01*
X48589200Y-65474900D02*
X48589200Y-65949900D01*
G75*
G02*
X48351700Y-66187400I-237500J0D01*
G01*
X47776700Y-66187400D01*
G75*
G02*
X47539200Y-65949900I0J237500D01*
G01*
X47539200Y-65474900D01*
G75*
G02*
X47776700Y-65237400I237500J0D01*
G01*
X48351700Y-65237400D01*
G75*
G02*
X48589200Y-65474900I0J-237500D01*
G01*
G37*
G36*
G01*
X50339200Y-65474900D02*
X50339200Y-65949900D01*
G75*
G02*
X50101700Y-66187400I-237500J0D01*
G01*
X49526700Y-66187400D01*
G75*
G02*
X49289200Y-65949900I0J237500D01*
G01*
X49289200Y-65474900D01*
G75*
G02*
X49526700Y-65237400I237500J0D01*
G01*
X50101700Y-65237400D01*
G75*
G02*
X50339200Y-65474900I0J-237500D01*
G01*
G37*
%TD*%
%TO.C,C108*%
G36*
G01*
X67441000Y-74954500D02*
X67441000Y-75429500D01*
G75*
G02*
X67203500Y-75667000I-237500J0D01*
G01*
X66628500Y-75667000D01*
G75*
G02*
X66391000Y-75429500I0J237500D01*
G01*
X66391000Y-74954500D01*
G75*
G02*
X66628500Y-74717000I237500J0D01*
G01*
X67203500Y-74717000D01*
G75*
G02*
X67441000Y-74954500I0J-237500D01*
G01*
G37*
G36*
G01*
X69191000Y-74954500D02*
X69191000Y-75429500D01*
G75*
G02*
X68953500Y-75667000I-237500J0D01*
G01*
X68378500Y-75667000D01*
G75*
G02*
X68141000Y-75429500I0J237500D01*
G01*
X68141000Y-74954500D01*
G75*
G02*
X68378500Y-74717000I237500J0D01*
G01*
X68953500Y-74717000D01*
G75*
G02*
X69191000Y-74954500I0J-237500D01*
G01*
G37*
%TD*%
%TO.C,C103*%
G36*
G01*
X48243500Y-84803500D02*
X47768500Y-84803500D01*
G75*
G02*
X47531000Y-84566000I0J237500D01*
G01*
X47531000Y-83991000D01*
G75*
G02*
X47768500Y-83753500I237500J0D01*
G01*
X48243500Y-83753500D01*
G75*
G02*
X48481000Y-83991000I0J-237500D01*
G01*
X48481000Y-84566000D01*
G75*
G02*
X48243500Y-84803500I-237500J0D01*
G01*
G37*
G36*
G01*
X48243500Y-86553500D02*
X47768500Y-86553500D01*
G75*
G02*
X47531000Y-86316000I0J237500D01*
G01*
X47531000Y-85741000D01*
G75*
G02*
X47768500Y-85503500I237500J0D01*
G01*
X48243500Y-85503500D01*
G75*
G02*
X48481000Y-85741000I0J-237500D01*
G01*
X48481000Y-86316000D01*
G75*
G02*
X48243500Y-86553500I-237500J0D01*
G01*
G37*
%TD*%
%TO.C,C101*%
G36*
G01*
X88037500Y-69683000D02*
X87562500Y-69683000D01*
G75*
G02*
X87325000Y-69445500I0J237500D01*
G01*
X87325000Y-68870500D01*
G75*
G02*
X87562500Y-68633000I237500J0D01*
G01*
X88037500Y-68633000D01*
G75*
G02*
X88275000Y-68870500I0J-237500D01*
G01*
X88275000Y-69445500D01*
G75*
G02*
X88037500Y-69683000I-237500J0D01*
G01*
G37*
G36*
G01*
X88037500Y-71433000D02*
X87562500Y-71433000D01*
G75*
G02*
X87325000Y-71195500I0J237500D01*
G01*
X87325000Y-70620500D01*
G75*
G02*
X87562500Y-70383000I237500J0D01*
G01*
X88037500Y-70383000D01*
G75*
G02*
X88275000Y-70620500I0J-237500D01*
G01*
X88275000Y-71195500D01*
G75*
G02*
X88037500Y-71433000I-237500J0D01*
G01*
G37*
%TD*%
%TO.C,C99*%
G36*
G01*
X70698100Y-65376600D02*
X71173100Y-65376600D01*
G75*
G02*
X71410600Y-65614100I0J-237500D01*
G01*
X71410600Y-66189100D01*
G75*
G02*
X71173100Y-66426600I-237500J0D01*
G01*
X70698100Y-66426600D01*
G75*
G02*
X70460600Y-66189100I0J237500D01*
G01*
X70460600Y-65614100D01*
G75*
G02*
X70698100Y-65376600I237500J0D01*
G01*
G37*
G36*
G01*
X70698100Y-63626600D02*
X71173100Y-63626600D01*
G75*
G02*
X71410600Y-63864100I0J-237500D01*
G01*
X71410600Y-64439100D01*
G75*
G02*
X71173100Y-64676600I-237500J0D01*
G01*
X70698100Y-64676600D01*
G75*
G02*
X70460600Y-64439100I0J237500D01*
G01*
X70460600Y-63864100D01*
G75*
G02*
X70698100Y-63626600I237500J0D01*
G01*
G37*
%TD*%
%TO.C,C98*%
G36*
G01*
X93712300Y-81743600D02*
X93712300Y-82218600D01*
G75*
G02*
X93474800Y-82456100I-237500J0D01*
G01*
X92899800Y-82456100D01*
G75*
G02*
X92662300Y-82218600I0J237500D01*
G01*
X92662300Y-81743600D01*
G75*
G02*
X92899800Y-81506100I237500J0D01*
G01*
X93474800Y-81506100D01*
G75*
G02*
X93712300Y-81743600I0J-237500D01*
G01*
G37*
G36*
G01*
X95462300Y-81743600D02*
X95462300Y-82218600D01*
G75*
G02*
X95224800Y-82456100I-237500J0D01*
G01*
X94649800Y-82456100D01*
G75*
G02*
X94412300Y-82218600I0J237500D01*
G01*
X94412300Y-81743600D01*
G75*
G02*
X94649800Y-81506100I237500J0D01*
G01*
X95224800Y-81506100D01*
G75*
G02*
X95462300Y-81743600I0J-237500D01*
G01*
G37*
%TD*%
%TO.C,C97*%
G36*
G01*
X80644000Y-82746900D02*
X80644000Y-83221900D01*
G75*
G02*
X80406500Y-83459400I-237500J0D01*
G01*
X79831500Y-83459400D01*
G75*
G02*
X79594000Y-83221900I0J237500D01*
G01*
X79594000Y-82746900D01*
G75*
G02*
X79831500Y-82509400I237500J0D01*
G01*
X80406500Y-82509400D01*
G75*
G02*
X80644000Y-82746900I0J-237500D01*
G01*
G37*
G36*
G01*
X82394000Y-82746900D02*
X82394000Y-83221900D01*
G75*
G02*
X82156500Y-83459400I-237500J0D01*
G01*
X81581500Y-83459400D01*
G75*
G02*
X81344000Y-83221900I0J237500D01*
G01*
X81344000Y-82746900D01*
G75*
G02*
X81581500Y-82509400I237500J0D01*
G01*
X82156500Y-82509400D01*
G75*
G02*
X82394000Y-82746900I0J-237500D01*
G01*
G37*
%TD*%
%TO.C,C96*%
G36*
G01*
X75614800Y-82518300D02*
X75614800Y-82993300D01*
G75*
G02*
X75377300Y-83230800I-237500J0D01*
G01*
X74802300Y-83230800D01*
G75*
G02*
X74564800Y-82993300I0J237500D01*
G01*
X74564800Y-82518300D01*
G75*
G02*
X74802300Y-82280800I237500J0D01*
G01*
X75377300Y-82280800D01*
G75*
G02*
X75614800Y-82518300I0J-237500D01*
G01*
G37*
G36*
G01*
X77364800Y-82518300D02*
X77364800Y-82993300D01*
G75*
G02*
X77127300Y-83230800I-237500J0D01*
G01*
X76552300Y-83230800D01*
G75*
G02*
X76314800Y-82993300I0J237500D01*
G01*
X76314800Y-82518300D01*
G75*
G02*
X76552300Y-82280800I237500J0D01*
G01*
X77127300Y-82280800D01*
G75*
G02*
X77364800Y-82518300I0J-237500D01*
G01*
G37*
%TD*%
%TO.C,C95*%
G36*
G01*
X61019000Y-86205300D02*
X61019000Y-86680300D01*
G75*
G02*
X60781500Y-86917800I-237500J0D01*
G01*
X60206500Y-86917800D01*
G75*
G02*
X59969000Y-86680300I0J237500D01*
G01*
X59969000Y-86205300D01*
G75*
G02*
X60206500Y-85967800I237500J0D01*
G01*
X60781500Y-85967800D01*
G75*
G02*
X61019000Y-86205300I0J-237500D01*
G01*
G37*
G36*
G01*
X62769000Y-86205300D02*
X62769000Y-86680300D01*
G75*
G02*
X62531500Y-86917800I-237500J0D01*
G01*
X61956500Y-86917800D01*
G75*
G02*
X61719000Y-86680300I0J237500D01*
G01*
X61719000Y-86205300D01*
G75*
G02*
X61956500Y-85967800I237500J0D01*
G01*
X62531500Y-85967800D01*
G75*
G02*
X62769000Y-86205300I0J-237500D01*
G01*
G37*
%TD*%
%TO.C,C94*%
G36*
G01*
X76008500Y-89846200D02*
X76008500Y-90321200D01*
G75*
G02*
X75771000Y-90558700I-237500J0D01*
G01*
X75196000Y-90558700D01*
G75*
G02*
X74958500Y-90321200I0J237500D01*
G01*
X74958500Y-89846200D01*
G75*
G02*
X75196000Y-89608700I237500J0D01*
G01*
X75771000Y-89608700D01*
G75*
G02*
X76008500Y-89846200I0J-237500D01*
G01*
G37*
G36*
G01*
X77758500Y-89846200D02*
X77758500Y-90321200D01*
G75*
G02*
X77521000Y-90558700I-237500J0D01*
G01*
X76946000Y-90558700D01*
G75*
G02*
X76708500Y-90321200I0J237500D01*
G01*
X76708500Y-89846200D01*
G75*
G02*
X76946000Y-89608700I237500J0D01*
G01*
X77521000Y-89608700D01*
G75*
G02*
X77758500Y-89846200I0J-237500D01*
G01*
G37*
%TD*%
%TO.C,C93*%
G36*
G01*
X67186800Y-99625900D02*
X67661800Y-99625900D01*
G75*
G02*
X67899300Y-99863400I0J-237500D01*
G01*
X67899300Y-100438400D01*
G75*
G02*
X67661800Y-100675900I-237500J0D01*
G01*
X67186800Y-100675900D01*
G75*
G02*
X66949300Y-100438400I0J237500D01*
G01*
X66949300Y-99863400D01*
G75*
G02*
X67186800Y-99625900I237500J0D01*
G01*
G37*
G36*
G01*
X67186800Y-97875900D02*
X67661800Y-97875900D01*
G75*
G02*
X67899300Y-98113400I0J-237500D01*
G01*
X67899300Y-98688400D01*
G75*
G02*
X67661800Y-98925900I-237500J0D01*
G01*
X67186800Y-98925900D01*
G75*
G02*
X66949300Y-98688400I0J237500D01*
G01*
X66949300Y-98113400D01*
G75*
G02*
X67186800Y-97875900I237500J0D01*
G01*
G37*
%TD*%
%TO.C,C92*%
G36*
G01*
X93902800Y-89198500D02*
X93902800Y-89673500D01*
G75*
G02*
X93665300Y-89911000I-237500J0D01*
G01*
X93090300Y-89911000D01*
G75*
G02*
X92852800Y-89673500I0J237500D01*
G01*
X92852800Y-89198500D01*
G75*
G02*
X93090300Y-88961000I237500J0D01*
G01*
X93665300Y-88961000D01*
G75*
G02*
X93902800Y-89198500I0J-237500D01*
G01*
G37*
G36*
G01*
X95652800Y-89198500D02*
X95652800Y-89673500D01*
G75*
G02*
X95415300Y-89911000I-237500J0D01*
G01*
X94840300Y-89911000D01*
G75*
G02*
X94602800Y-89673500I0J237500D01*
G01*
X94602800Y-89198500D01*
G75*
G02*
X94840300Y-88961000I237500J0D01*
G01*
X95415300Y-88961000D01*
G75*
G02*
X95652800Y-89198500I0J-237500D01*
G01*
G37*
%TD*%
%TO.C,C91*%
G36*
G01*
X83125300Y-89300800D02*
X83600300Y-89300800D01*
G75*
G02*
X83837800Y-89538300I0J-237500D01*
G01*
X83837800Y-90113300D01*
G75*
G02*
X83600300Y-90350800I-237500J0D01*
G01*
X83125300Y-90350800D01*
G75*
G02*
X82887800Y-90113300I0J237500D01*
G01*
X82887800Y-89538300D01*
G75*
G02*
X83125300Y-89300800I237500J0D01*
G01*
G37*
G36*
G01*
X83125300Y-87550800D02*
X83600300Y-87550800D01*
G75*
G02*
X83837800Y-87788300I0J-237500D01*
G01*
X83837800Y-88363300D01*
G75*
G02*
X83600300Y-88600800I-237500J0D01*
G01*
X83125300Y-88600800D01*
G75*
G02*
X82887800Y-88363300I0J237500D01*
G01*
X82887800Y-87788300D01*
G75*
G02*
X83125300Y-87550800I237500J0D01*
G01*
G37*
%TD*%
%TO.C,C90*%
G36*
G01*
X109714300Y-84143900D02*
X109714300Y-84618900D01*
G75*
G02*
X109476800Y-84856400I-237500J0D01*
G01*
X108901800Y-84856400D01*
G75*
G02*
X108664300Y-84618900I0J237500D01*
G01*
X108664300Y-84143900D01*
G75*
G02*
X108901800Y-83906400I237500J0D01*
G01*
X109476800Y-83906400D01*
G75*
G02*
X109714300Y-84143900I0J-237500D01*
G01*
G37*
G36*
G01*
X111464300Y-84143900D02*
X111464300Y-84618900D01*
G75*
G02*
X111226800Y-84856400I-237500J0D01*
G01*
X110651800Y-84856400D01*
G75*
G02*
X110414300Y-84618900I0J237500D01*
G01*
X110414300Y-84143900D01*
G75*
G02*
X110651800Y-83906400I237500J0D01*
G01*
X111226800Y-83906400D01*
G75*
G02*
X111464300Y-84143900I0J-237500D01*
G01*
G37*
%TD*%
%TO.C,C89*%
G36*
G01*
X100255800Y-84143900D02*
X100255800Y-84618900D01*
G75*
G02*
X100018300Y-84856400I-237500J0D01*
G01*
X99443300Y-84856400D01*
G75*
G02*
X99205800Y-84618900I0J237500D01*
G01*
X99205800Y-84143900D01*
G75*
G02*
X99443300Y-83906400I237500J0D01*
G01*
X100018300Y-83906400D01*
G75*
G02*
X100255800Y-84143900I0J-237500D01*
G01*
G37*
G36*
G01*
X102005800Y-84143900D02*
X102005800Y-84618900D01*
G75*
G02*
X101768300Y-84856400I-237500J0D01*
G01*
X101193300Y-84856400D01*
G75*
G02*
X100955800Y-84618900I0J237500D01*
G01*
X100955800Y-84143900D01*
G75*
G02*
X101193300Y-83906400I237500J0D01*
G01*
X101768300Y-83906400D01*
G75*
G02*
X102005800Y-84143900I0J-237500D01*
G01*
G37*
%TD*%
%TO.C,C86*%
G36*
G01*
X109355800Y-67221100D02*
X109355800Y-67696100D01*
G75*
G02*
X109118300Y-67933600I-237500J0D01*
G01*
X108543300Y-67933600D01*
G75*
G02*
X108305800Y-67696100I0J237500D01*
G01*
X108305800Y-67221100D01*
G75*
G02*
X108543300Y-66983600I237500J0D01*
G01*
X109118300Y-66983600D01*
G75*
G02*
X109355800Y-67221100I0J-237500D01*
G01*
G37*
G36*
G01*
X111105800Y-67221100D02*
X111105800Y-67696100D01*
G75*
G02*
X110868300Y-67933600I-237500J0D01*
G01*
X110293300Y-67933600D01*
G75*
G02*
X110055800Y-67696100I0J237500D01*
G01*
X110055800Y-67221100D01*
G75*
G02*
X110293300Y-66983600I237500J0D01*
G01*
X110868300Y-66983600D01*
G75*
G02*
X111105800Y-67221100I0J-237500D01*
G01*
G37*
%TD*%
%TO.C,C85*%
G36*
G01*
X109182400Y-69391600D02*
X109182400Y-68916600D01*
G75*
G02*
X109419900Y-68679100I237500J0D01*
G01*
X109994900Y-68679100D01*
G75*
G02*
X110232400Y-68916600I0J-237500D01*
G01*
X110232400Y-69391600D01*
G75*
G02*
X109994900Y-69629100I-237500J0D01*
G01*
X109419900Y-69629100D01*
G75*
G02*
X109182400Y-69391600I0J237500D01*
G01*
G37*
G36*
G01*
X107432400Y-69391600D02*
X107432400Y-68916600D01*
G75*
G02*
X107669900Y-68679100I237500J0D01*
G01*
X108244900Y-68679100D01*
G75*
G02*
X108482400Y-68916600I0J-237500D01*
G01*
X108482400Y-69391600D01*
G75*
G02*
X108244900Y-69629100I-237500J0D01*
G01*
X107669900Y-69629100D01*
G75*
G02*
X107432400Y-69391600I0J237500D01*
G01*
G37*
%TD*%
%TO.C,C84*%
G36*
G01*
X103755800Y-68921100D02*
X103755800Y-69396100D01*
G75*
G02*
X103518300Y-69633600I-237500J0D01*
G01*
X102943300Y-69633600D01*
G75*
G02*
X102705800Y-69396100I0J237500D01*
G01*
X102705800Y-68921100D01*
G75*
G02*
X102943300Y-68683600I237500J0D01*
G01*
X103518300Y-68683600D01*
G75*
G02*
X103755800Y-68921100I0J-237500D01*
G01*
G37*
G36*
G01*
X105505800Y-68921100D02*
X105505800Y-69396100D01*
G75*
G02*
X105268300Y-69633600I-237500J0D01*
G01*
X104693300Y-69633600D01*
G75*
G02*
X104455800Y-69396100I0J237500D01*
G01*
X104455800Y-68921100D01*
G75*
G02*
X104693300Y-68683600I237500J0D01*
G01*
X105268300Y-68683600D01*
G75*
G02*
X105505800Y-68921100I0J-237500D01*
G01*
G37*
%TD*%
%TO.C,C83*%
G36*
G01*
X104455800Y-67696100D02*
X104455800Y-67221100D01*
G75*
G02*
X104693300Y-66983600I237500J0D01*
G01*
X105268300Y-66983600D01*
G75*
G02*
X105505800Y-67221100I0J-237500D01*
G01*
X105505800Y-67696100D01*
G75*
G02*
X105268300Y-67933600I-237500J0D01*
G01*
X104693300Y-67933600D01*
G75*
G02*
X104455800Y-67696100I0J237500D01*
G01*
G37*
G36*
G01*
X102705800Y-67696100D02*
X102705800Y-67221100D01*
G75*
G02*
X102943300Y-66983600I237500J0D01*
G01*
X103518300Y-66983600D01*
G75*
G02*
X103755800Y-67221100I0J-237500D01*
G01*
X103755800Y-67696100D01*
G75*
G02*
X103518300Y-67933600I-237500J0D01*
G01*
X102943300Y-67933600D01*
G75*
G02*
X102705800Y-67696100I0J237500D01*
G01*
G37*
%TD*%
%TO.C,C82*%
G36*
G01*
X96968300Y-71908600D02*
X97443300Y-71908600D01*
G75*
G02*
X97680800Y-72146100I0J-237500D01*
G01*
X97680800Y-72721100D01*
G75*
G02*
X97443300Y-72958600I-237500J0D01*
G01*
X96968300Y-72958600D01*
G75*
G02*
X96730800Y-72721100I0J237500D01*
G01*
X96730800Y-72146100D01*
G75*
G02*
X96968300Y-71908600I237500J0D01*
G01*
G37*
G36*
G01*
X96968300Y-70158600D02*
X97443300Y-70158600D01*
G75*
G02*
X97680800Y-70396100I0J-237500D01*
G01*
X97680800Y-70971100D01*
G75*
G02*
X97443300Y-71208600I-237500J0D01*
G01*
X96968300Y-71208600D01*
G75*
G02*
X96730800Y-70971100I0J237500D01*
G01*
X96730800Y-70396100D01*
G75*
G02*
X96968300Y-70158600I237500J0D01*
G01*
G37*
%TD*%
%TO.C,C80*%
G36*
G01*
X112865400Y-73252400D02*
X112865400Y-72777400D01*
G75*
G02*
X113102900Y-72539900I237500J0D01*
G01*
X113677900Y-72539900D01*
G75*
G02*
X113915400Y-72777400I0J-237500D01*
G01*
X113915400Y-73252400D01*
G75*
G02*
X113677900Y-73489900I-237500J0D01*
G01*
X113102900Y-73489900D01*
G75*
G02*
X112865400Y-73252400I0J237500D01*
G01*
G37*
G36*
G01*
X111115400Y-73252400D02*
X111115400Y-72777400D01*
G75*
G02*
X111352900Y-72539900I237500J0D01*
G01*
X111927900Y-72539900D01*
G75*
G02*
X112165400Y-72777400I0J-237500D01*
G01*
X112165400Y-73252400D01*
G75*
G02*
X111927900Y-73489900I-237500J0D01*
G01*
X111352900Y-73489900D01*
G75*
G02*
X111115400Y-73252400I0J237500D01*
G01*
G37*
%TD*%
%TO.C,C79*%
G36*
G01*
X97343300Y-76308600D02*
X96868300Y-76308600D01*
G75*
G02*
X96630800Y-76071100I0J237500D01*
G01*
X96630800Y-75496100D01*
G75*
G02*
X96868300Y-75258600I237500J0D01*
G01*
X97343300Y-75258600D01*
G75*
G02*
X97580800Y-75496100I0J-237500D01*
G01*
X97580800Y-76071100D01*
G75*
G02*
X97343300Y-76308600I-237500J0D01*
G01*
G37*
G36*
G01*
X97343300Y-78058600D02*
X96868300Y-78058600D01*
G75*
G02*
X96630800Y-77821100I0J237500D01*
G01*
X96630800Y-77246100D01*
G75*
G02*
X96868300Y-77008600I237500J0D01*
G01*
X97343300Y-77008600D01*
G75*
G02*
X97580800Y-77246100I0J-237500D01*
G01*
X97580800Y-77821100D01*
G75*
G02*
X97343300Y-78058600I-237500J0D01*
G01*
G37*
%TD*%
%TO.C,C78*%
G36*
G01*
X112854500Y-75420800D02*
X112379500Y-75420800D01*
G75*
G02*
X112142000Y-75183300I0J237500D01*
G01*
X112142000Y-74608300D01*
G75*
G02*
X112379500Y-74370800I237500J0D01*
G01*
X112854500Y-74370800D01*
G75*
G02*
X113092000Y-74608300I0J-237500D01*
G01*
X113092000Y-75183300D01*
G75*
G02*
X112854500Y-75420800I-237500J0D01*
G01*
G37*
G36*
G01*
X112854500Y-77170800D02*
X112379500Y-77170800D01*
G75*
G02*
X112142000Y-76933300I0J237500D01*
G01*
X112142000Y-76358300D01*
G75*
G02*
X112379500Y-76120800I237500J0D01*
G01*
X112854500Y-76120800D01*
G75*
G02*
X113092000Y-76358300I0J-237500D01*
G01*
X113092000Y-76933300D01*
G75*
G02*
X112854500Y-77170800I-237500J0D01*
G01*
G37*
%TD*%
%TO.C,C77*%
G36*
G01*
X112843300Y-78808600D02*
X112368300Y-78808600D01*
G75*
G02*
X112130800Y-78571100I0J237500D01*
G01*
X112130800Y-77996100D01*
G75*
G02*
X112368300Y-77758600I237500J0D01*
G01*
X112843300Y-77758600D01*
G75*
G02*
X113080800Y-77996100I0J-237500D01*
G01*
X113080800Y-78571100D01*
G75*
G02*
X112843300Y-78808600I-237500J0D01*
G01*
G37*
G36*
G01*
X112843300Y-80558600D02*
X112368300Y-80558600D01*
G75*
G02*
X112130800Y-80321100I0J237500D01*
G01*
X112130800Y-79746100D01*
G75*
G02*
X112368300Y-79508600I237500J0D01*
G01*
X112843300Y-79508600D01*
G75*
G02*
X113080800Y-79746100I0J-237500D01*
G01*
X113080800Y-80321100D01*
G75*
G02*
X112843300Y-80558600I-237500J0D01*
G01*
G37*
%TD*%
%TO.C,C76*%
G36*
G01*
X52688500Y-84803500D02*
X52213500Y-84803500D01*
G75*
G02*
X51976000Y-84566000I0J237500D01*
G01*
X51976000Y-83991000D01*
G75*
G02*
X52213500Y-83753500I237500J0D01*
G01*
X52688500Y-83753500D01*
G75*
G02*
X52926000Y-83991000I0J-237500D01*
G01*
X52926000Y-84566000D01*
G75*
G02*
X52688500Y-84803500I-237500J0D01*
G01*
G37*
G36*
G01*
X52688500Y-86553500D02*
X52213500Y-86553500D01*
G75*
G02*
X51976000Y-86316000I0J237500D01*
G01*
X51976000Y-85741000D01*
G75*
G02*
X52213500Y-85503500I237500J0D01*
G01*
X52688500Y-85503500D01*
G75*
G02*
X52926000Y-85741000I0J-237500D01*
G01*
X52926000Y-86316000D01*
G75*
G02*
X52688500Y-86553500I-237500J0D01*
G01*
G37*
%TD*%
%TO.C,C75*%
G36*
G01*
X96968300Y-82908600D02*
X97443300Y-82908600D01*
G75*
G02*
X97680800Y-83146100I0J-237500D01*
G01*
X97680800Y-83721100D01*
G75*
G02*
X97443300Y-83958600I-237500J0D01*
G01*
X96968300Y-83958600D01*
G75*
G02*
X96730800Y-83721100I0J237500D01*
G01*
X96730800Y-83146100D01*
G75*
G02*
X96968300Y-82908600I237500J0D01*
G01*
G37*
G36*
G01*
X96968300Y-81158600D02*
X97443300Y-81158600D01*
G75*
G02*
X97680800Y-81396100I0J-237500D01*
G01*
X97680800Y-81971100D01*
G75*
G02*
X97443300Y-82208600I-237500J0D01*
G01*
X96968300Y-82208600D01*
G75*
G02*
X96730800Y-81971100I0J237500D01*
G01*
X96730800Y-81396100D01*
G75*
G02*
X96968300Y-81158600I237500J0D01*
G01*
G37*
%TD*%
%TO.C,C74*%
G36*
G01*
X112368300Y-83008600D02*
X112843300Y-83008600D01*
G75*
G02*
X113080800Y-83246100I0J-237500D01*
G01*
X113080800Y-83821100D01*
G75*
G02*
X112843300Y-84058600I-237500J0D01*
G01*
X112368300Y-84058600D01*
G75*
G02*
X112130800Y-83821100I0J237500D01*
G01*
X112130800Y-83246100D01*
G75*
G02*
X112368300Y-83008600I237500J0D01*
G01*
G37*
G36*
G01*
X112368300Y-81258600D02*
X112843300Y-81258600D01*
G75*
G02*
X113080800Y-81496100I0J-237500D01*
G01*
X113080800Y-82071100D01*
G75*
G02*
X112843300Y-82308600I-237500J0D01*
G01*
X112368300Y-82308600D01*
G75*
G02*
X112130800Y-82071100I0J237500D01*
G01*
X112130800Y-81496100D01*
G75*
G02*
X112368300Y-81258600I237500J0D01*
G01*
G37*
%TD*%
%TO.C,C73*%
G36*
G01*
X104855800Y-86021100D02*
X104855800Y-86496100D01*
G75*
G02*
X104618300Y-86733600I-237500J0D01*
G01*
X104043300Y-86733600D01*
G75*
G02*
X103805800Y-86496100I0J237500D01*
G01*
X103805800Y-86021100D01*
G75*
G02*
X104043300Y-85783600I237500J0D01*
G01*
X104618300Y-85783600D01*
G75*
G02*
X104855800Y-86021100I0J-237500D01*
G01*
G37*
G36*
G01*
X106605800Y-86021100D02*
X106605800Y-86496100D01*
G75*
G02*
X106368300Y-86733600I-237500J0D01*
G01*
X105793300Y-86733600D01*
G75*
G02*
X105555800Y-86496100I0J237500D01*
G01*
X105555800Y-86021100D01*
G75*
G02*
X105793300Y-85783600I237500J0D01*
G01*
X106368300Y-85783600D01*
G75*
G02*
X106605800Y-86021100I0J-237500D01*
G01*
G37*
%TD*%
%TO.C,C72*%
G36*
G01*
X42750500Y-62746200D02*
X42275500Y-62746200D01*
G75*
G02*
X42038000Y-62508700I0J237500D01*
G01*
X42038000Y-61933700D01*
G75*
G02*
X42275500Y-61696200I237500J0D01*
G01*
X42750500Y-61696200D01*
G75*
G02*
X42988000Y-61933700I0J-237500D01*
G01*
X42988000Y-62508700D01*
G75*
G02*
X42750500Y-62746200I-237500J0D01*
G01*
G37*
G36*
G01*
X42750500Y-64496200D02*
X42275500Y-64496200D01*
G75*
G02*
X42038000Y-64258700I0J237500D01*
G01*
X42038000Y-63683700D01*
G75*
G02*
X42275500Y-63446200I237500J0D01*
G01*
X42750500Y-63446200D01*
G75*
G02*
X42988000Y-63683700I0J-237500D01*
G01*
X42988000Y-64258700D01*
G75*
G02*
X42750500Y-64496200I-237500J0D01*
G01*
G37*
%TD*%
%TO.C,C69*%
G36*
G01*
X103755800Y-84321100D02*
X103755800Y-84796100D01*
G75*
G02*
X103518300Y-85033600I-237500J0D01*
G01*
X102943300Y-85033600D01*
G75*
G02*
X102705800Y-84796100I0J237500D01*
G01*
X102705800Y-84321100D01*
G75*
G02*
X102943300Y-84083600I237500J0D01*
G01*
X103518300Y-84083600D01*
G75*
G02*
X103755800Y-84321100I0J-237500D01*
G01*
G37*
G36*
G01*
X105505800Y-84321100D02*
X105505800Y-84796100D01*
G75*
G02*
X105268300Y-85033600I-237500J0D01*
G01*
X104693300Y-85033600D01*
G75*
G02*
X104455800Y-84796100I0J237500D01*
G01*
X104455800Y-84321100D01*
G75*
G02*
X104693300Y-84083600I237500J0D01*
G01*
X105268300Y-84083600D01*
G75*
G02*
X105505800Y-84321100I0J-237500D01*
G01*
G37*
%TD*%
%TO.C,C68*%
G36*
G01*
X72962000Y-83234600D02*
X72962000Y-82759600D01*
G75*
G02*
X73199500Y-82522100I237500J0D01*
G01*
X73774500Y-82522100D01*
G75*
G02*
X74012000Y-82759600I0J-237500D01*
G01*
X74012000Y-83234600D01*
G75*
G02*
X73774500Y-83472100I-237500J0D01*
G01*
X73199500Y-83472100D01*
G75*
G02*
X72962000Y-83234600I0J237500D01*
G01*
G37*
G36*
G01*
X71212000Y-83234600D02*
X71212000Y-82759600D01*
G75*
G02*
X71449500Y-82522100I237500J0D01*
G01*
X72024500Y-82522100D01*
G75*
G02*
X72262000Y-82759600I0J-237500D01*
G01*
X72262000Y-83234600D01*
G75*
G02*
X72024500Y-83472100I-237500J0D01*
G01*
X71449500Y-83472100D01*
G75*
G02*
X71212000Y-83234600I0J237500D01*
G01*
G37*
%TD*%
%TO.C,C67*%
G36*
G01*
X78140300Y-84045600D02*
X78615300Y-84045600D01*
G75*
G02*
X78852800Y-84283100I0J-237500D01*
G01*
X78852800Y-84858100D01*
G75*
G02*
X78615300Y-85095600I-237500J0D01*
G01*
X78140300Y-85095600D01*
G75*
G02*
X77902800Y-84858100I0J237500D01*
G01*
X77902800Y-84283100D01*
G75*
G02*
X78140300Y-84045600I237500J0D01*
G01*
G37*
G36*
G01*
X78140300Y-82295600D02*
X78615300Y-82295600D01*
G75*
G02*
X78852800Y-82533100I0J-237500D01*
G01*
X78852800Y-83108100D01*
G75*
G02*
X78615300Y-83345600I-237500J0D01*
G01*
X78140300Y-83345600D01*
G75*
G02*
X77902800Y-83108100I0J237500D01*
G01*
X77902800Y-82533100D01*
G75*
G02*
X78140300Y-82295600I237500J0D01*
G01*
G37*
%TD*%
%TO.C,C66*%
G36*
G01*
X84187300Y-82797700D02*
X84187300Y-83272700D01*
G75*
G02*
X83949800Y-83510200I-237500J0D01*
G01*
X83374800Y-83510200D01*
G75*
G02*
X83137300Y-83272700I0J237500D01*
G01*
X83137300Y-82797700D01*
G75*
G02*
X83374800Y-82560200I237500J0D01*
G01*
X83949800Y-82560200D01*
G75*
G02*
X84187300Y-82797700I0J-237500D01*
G01*
G37*
G36*
G01*
X85937300Y-82797700D02*
X85937300Y-83272700D01*
G75*
G02*
X85699800Y-83510200I-237500J0D01*
G01*
X85124800Y-83510200D01*
G75*
G02*
X84887300Y-83272700I0J237500D01*
G01*
X84887300Y-82797700D01*
G75*
G02*
X85124800Y-82560200I237500J0D01*
G01*
X85699800Y-82560200D01*
G75*
G02*
X85937300Y-82797700I0J-237500D01*
G01*
G37*
%TD*%
%TO.C,C64*%
G36*
G01*
X69722000Y-81095900D02*
X69722000Y-81570900D01*
G75*
G02*
X69484500Y-81808400I-237500J0D01*
G01*
X68909500Y-81808400D01*
G75*
G02*
X68672000Y-81570900I0J237500D01*
G01*
X68672000Y-81095900D01*
G75*
G02*
X68909500Y-80858400I237500J0D01*
G01*
X69484500Y-80858400D01*
G75*
G02*
X69722000Y-81095900I0J-237500D01*
G01*
G37*
G36*
G01*
X71472000Y-81095900D02*
X71472000Y-81570900D01*
G75*
G02*
X71234500Y-81808400I-237500J0D01*
G01*
X70659500Y-81808400D01*
G75*
G02*
X70422000Y-81570900I0J237500D01*
G01*
X70422000Y-81095900D01*
G75*
G02*
X70659500Y-80858400I237500J0D01*
G01*
X71234500Y-80858400D01*
G75*
G02*
X71472000Y-81095900I0J-237500D01*
G01*
G37*
%TD*%
%TO.C,C63*%
G36*
G01*
X75150000Y-80670500D02*
X75150000Y-80195500D01*
G75*
G02*
X75387500Y-79958000I237500J0D01*
G01*
X75962500Y-79958000D01*
G75*
G02*
X76200000Y-80195500I0J-237500D01*
G01*
X76200000Y-80670500D01*
G75*
G02*
X75962500Y-80908000I-237500J0D01*
G01*
X75387500Y-80908000D01*
G75*
G02*
X75150000Y-80670500I0J237500D01*
G01*
G37*
G36*
G01*
X73400000Y-80670500D02*
X73400000Y-80195500D01*
G75*
G02*
X73637500Y-79958000I237500J0D01*
G01*
X74212500Y-79958000D01*
G75*
G02*
X74450000Y-80195500I0J-237500D01*
G01*
X74450000Y-80670500D01*
G75*
G02*
X74212500Y-80908000I-237500J0D01*
G01*
X73637500Y-80908000D01*
G75*
G02*
X73400000Y-80670500I0J237500D01*
G01*
G37*
%TD*%
%TO.C,C62*%
G36*
G01*
X82029800Y-80694600D02*
X82029800Y-80219600D01*
G75*
G02*
X82267300Y-79982100I237500J0D01*
G01*
X82842300Y-79982100D01*
G75*
G02*
X83079800Y-80219600I0J-237500D01*
G01*
X83079800Y-80694600D01*
G75*
G02*
X82842300Y-80932100I-237500J0D01*
G01*
X82267300Y-80932100D01*
G75*
G02*
X82029800Y-80694600I0J237500D01*
G01*
G37*
G36*
G01*
X80279800Y-80694600D02*
X80279800Y-80219600D01*
G75*
G02*
X80517300Y-79982100I237500J0D01*
G01*
X81092300Y-79982100D01*
G75*
G02*
X81329800Y-80219600I0J-237500D01*
G01*
X81329800Y-80694600D01*
G75*
G02*
X81092300Y-80932100I-237500J0D01*
G01*
X80517300Y-80932100D01*
G75*
G02*
X80279800Y-80694600I0J237500D01*
G01*
G37*
%TD*%
%TO.C,C61*%
G36*
G01*
X88411800Y-83244700D02*
X88411800Y-82769700D01*
G75*
G02*
X88649300Y-82532200I237500J0D01*
G01*
X89224300Y-82532200D01*
G75*
G02*
X89461800Y-82769700I0J-237500D01*
G01*
X89461800Y-83244700D01*
G75*
G02*
X89224300Y-83482200I-237500J0D01*
G01*
X88649300Y-83482200D01*
G75*
G02*
X88411800Y-83244700I0J237500D01*
G01*
G37*
G36*
G01*
X86661800Y-83244700D02*
X86661800Y-82769700D01*
G75*
G02*
X86899300Y-82532200I237500J0D01*
G01*
X87474300Y-82532200D01*
G75*
G02*
X87711800Y-82769700I0J-237500D01*
G01*
X87711800Y-83244700D01*
G75*
G02*
X87474300Y-83482200I-237500J0D01*
G01*
X86899300Y-83482200D01*
G75*
G02*
X86661800Y-83244700I0J237500D01*
G01*
G37*
%TD*%
%TO.C,C59*%
G36*
G01*
X68537500Y-78083000D02*
X68062500Y-78083000D01*
G75*
G02*
X67825000Y-77845500I0J237500D01*
G01*
X67825000Y-77270500D01*
G75*
G02*
X68062500Y-77033000I237500J0D01*
G01*
X68537500Y-77033000D01*
G75*
G02*
X68775000Y-77270500I0J-237500D01*
G01*
X68775000Y-77845500D01*
G75*
G02*
X68537500Y-78083000I-237500J0D01*
G01*
G37*
G36*
G01*
X68537500Y-79833000D02*
X68062500Y-79833000D01*
G75*
G02*
X67825000Y-79595500I0J237500D01*
G01*
X67825000Y-79020500D01*
G75*
G02*
X68062500Y-78783000I237500J0D01*
G01*
X68537500Y-78783000D01*
G75*
G02*
X68775000Y-79020500I0J-237500D01*
G01*
X68775000Y-79595500D01*
G75*
G02*
X68537500Y-79833000I-237500J0D01*
G01*
G37*
%TD*%
%TO.C,C58*%
G36*
G01*
X90537500Y-75983000D02*
X90062500Y-75983000D01*
G75*
G02*
X89825000Y-75745500I0J237500D01*
G01*
X89825000Y-75170500D01*
G75*
G02*
X90062500Y-74933000I237500J0D01*
G01*
X90537500Y-74933000D01*
G75*
G02*
X90775000Y-75170500I0J-237500D01*
G01*
X90775000Y-75745500D01*
G75*
G02*
X90537500Y-75983000I-237500J0D01*
G01*
G37*
G36*
G01*
X90537500Y-77733000D02*
X90062500Y-77733000D01*
G75*
G02*
X89825000Y-77495500I0J237500D01*
G01*
X89825000Y-76920500D01*
G75*
G02*
X90062500Y-76683000I237500J0D01*
G01*
X90537500Y-76683000D01*
G75*
G02*
X90775000Y-76920500I0J-237500D01*
G01*
X90775000Y-77495500D01*
G75*
G02*
X90537500Y-77733000I-237500J0D01*
G01*
G37*
%TD*%
%TO.C,C57*%
G36*
G01*
X88037500Y-75883000D02*
X87562500Y-75883000D01*
G75*
G02*
X87325000Y-75645500I0J237500D01*
G01*
X87325000Y-75070500D01*
G75*
G02*
X87562500Y-74833000I237500J0D01*
G01*
X88037500Y-74833000D01*
G75*
G02*
X88275000Y-75070500I0J-237500D01*
G01*
X88275000Y-75645500D01*
G75*
G02*
X88037500Y-75883000I-237500J0D01*
G01*
G37*
G36*
G01*
X88037500Y-77633000D02*
X87562500Y-77633000D01*
G75*
G02*
X87325000Y-77395500I0J237500D01*
G01*
X87325000Y-76820500D01*
G75*
G02*
X87562500Y-76583000I237500J0D01*
G01*
X88037500Y-76583000D01*
G75*
G02*
X88275000Y-76820500I0J-237500D01*
G01*
X88275000Y-77395500D01*
G75*
G02*
X88037500Y-77633000I-237500J0D01*
G01*
G37*
%TD*%
%TO.C,C54*%
G36*
G01*
X90537500Y-71983000D02*
X90062500Y-71983000D01*
G75*
G02*
X89825000Y-71745500I0J237500D01*
G01*
X89825000Y-71170500D01*
G75*
G02*
X90062500Y-70933000I237500J0D01*
G01*
X90537500Y-70933000D01*
G75*
G02*
X90775000Y-71170500I0J-237500D01*
G01*
X90775000Y-71745500D01*
G75*
G02*
X90537500Y-71983000I-237500J0D01*
G01*
G37*
G36*
G01*
X90537500Y-73733000D02*
X90062500Y-73733000D01*
G75*
G02*
X89825000Y-73495500I0J237500D01*
G01*
X89825000Y-72920500D01*
G75*
G02*
X90062500Y-72683000I237500J0D01*
G01*
X90537500Y-72683000D01*
G75*
G02*
X90775000Y-72920500I0J-237500D01*
G01*
X90775000Y-73495500D01*
G75*
G02*
X90537500Y-73733000I-237500J0D01*
G01*
G37*
%TD*%
%TO.C,C53*%
G36*
G01*
X70628500Y-73883000D02*
X71103500Y-73883000D01*
G75*
G02*
X71341000Y-74120500I0J-237500D01*
G01*
X71341000Y-74695500D01*
G75*
G02*
X71103500Y-74933000I-237500J0D01*
G01*
X70628500Y-74933000D01*
G75*
G02*
X70391000Y-74695500I0J237500D01*
G01*
X70391000Y-74120500D01*
G75*
G02*
X70628500Y-73883000I237500J0D01*
G01*
G37*
G36*
G01*
X70628500Y-72133000D02*
X71103500Y-72133000D01*
G75*
G02*
X71341000Y-72370500I0J-237500D01*
G01*
X71341000Y-72945500D01*
G75*
G02*
X71103500Y-73183000I-237500J0D01*
G01*
X70628500Y-73183000D01*
G75*
G02*
X70391000Y-72945500I0J237500D01*
G01*
X70391000Y-72370500D01*
G75*
G02*
X70628500Y-72133000I237500J0D01*
G01*
G37*
%TD*%
%TO.C,C51*%
G36*
G01*
X68537500Y-66949900D02*
X68062500Y-66949900D01*
G75*
G02*
X67825000Y-66712400I0J237500D01*
G01*
X67825000Y-66137400D01*
G75*
G02*
X68062500Y-65899900I237500J0D01*
G01*
X68537500Y-65899900D01*
G75*
G02*
X68775000Y-66137400I0J-237500D01*
G01*
X68775000Y-66712400D01*
G75*
G02*
X68537500Y-66949900I-237500J0D01*
G01*
G37*
G36*
G01*
X68537500Y-68699900D02*
X68062500Y-68699900D01*
G75*
G02*
X67825000Y-68462400I0J237500D01*
G01*
X67825000Y-67887400D01*
G75*
G02*
X68062500Y-67649900I237500J0D01*
G01*
X68537500Y-67649900D01*
G75*
G02*
X68775000Y-67887400I0J-237500D01*
G01*
X68775000Y-68462400D01*
G75*
G02*
X68537500Y-68699900I-237500J0D01*
G01*
G37*
%TD*%
%TO.C,C50*%
G36*
G01*
X90537500Y-65383000D02*
X90062500Y-65383000D01*
G75*
G02*
X89825000Y-65145500I0J237500D01*
G01*
X89825000Y-64570500D01*
G75*
G02*
X90062500Y-64333000I237500J0D01*
G01*
X90537500Y-64333000D01*
G75*
G02*
X90775000Y-64570500I0J-237500D01*
G01*
X90775000Y-65145500D01*
G75*
G02*
X90537500Y-65383000I-237500J0D01*
G01*
G37*
G36*
G01*
X90537500Y-67133000D02*
X90062500Y-67133000D01*
G75*
G02*
X89825000Y-66895500I0J237500D01*
G01*
X89825000Y-66320500D01*
G75*
G02*
X90062500Y-66083000I237500J0D01*
G01*
X90537500Y-66083000D01*
G75*
G02*
X90775000Y-66320500I0J-237500D01*
G01*
X90775000Y-66895500D01*
G75*
G02*
X90537500Y-67133000I-237500J0D01*
G01*
G37*
%TD*%
%TO.C,C49*%
G36*
G01*
X70214500Y-77915000D02*
X69739500Y-77915000D01*
G75*
G02*
X69502000Y-77677500I0J237500D01*
G01*
X69502000Y-77102500D01*
G75*
G02*
X69739500Y-76865000I237500J0D01*
G01*
X70214500Y-76865000D01*
G75*
G02*
X70452000Y-77102500I0J-237500D01*
G01*
X70452000Y-77677500D01*
G75*
G02*
X70214500Y-77915000I-237500J0D01*
G01*
G37*
G36*
G01*
X70214500Y-79665000D02*
X69739500Y-79665000D01*
G75*
G02*
X69502000Y-79427500I0J237500D01*
G01*
X69502000Y-78852500D01*
G75*
G02*
X69739500Y-78615000I237500J0D01*
G01*
X70214500Y-78615000D01*
G75*
G02*
X70452000Y-78852500I0J-237500D01*
G01*
X70452000Y-79427500D01*
G75*
G02*
X70214500Y-79665000I-237500J0D01*
G01*
G37*
%TD*%
%TO.C,C48*%
G36*
G01*
X68062500Y-64283000D02*
X68537500Y-64283000D01*
G75*
G02*
X68775000Y-64520500I0J-237500D01*
G01*
X68775000Y-65095500D01*
G75*
G02*
X68537500Y-65333000I-237500J0D01*
G01*
X68062500Y-65333000D01*
G75*
G02*
X67825000Y-65095500I0J237500D01*
G01*
X67825000Y-64520500D01*
G75*
G02*
X68062500Y-64283000I237500J0D01*
G01*
G37*
G36*
G01*
X68062500Y-62533000D02*
X68537500Y-62533000D01*
G75*
G02*
X68775000Y-62770500I0J-237500D01*
G01*
X68775000Y-63345500D01*
G75*
G02*
X68537500Y-63583000I-237500J0D01*
G01*
X68062500Y-63583000D01*
G75*
G02*
X67825000Y-63345500I0J237500D01*
G01*
X67825000Y-62770500D01*
G75*
G02*
X68062500Y-62533000I237500J0D01*
G01*
G37*
%TD*%
%TO.C,C45*%
G36*
G01*
X74713100Y-63392100D02*
X74713100Y-63867100D01*
G75*
G02*
X74475600Y-64104600I-237500J0D01*
G01*
X73900600Y-64104600D01*
G75*
G02*
X73663100Y-63867100I0J237500D01*
G01*
X73663100Y-63392100D01*
G75*
G02*
X73900600Y-63154600I237500J0D01*
G01*
X74475600Y-63154600D01*
G75*
G02*
X74713100Y-63392100I0J-237500D01*
G01*
G37*
G36*
G01*
X76463100Y-63392100D02*
X76463100Y-63867100D01*
G75*
G02*
X76225600Y-64104600I-237500J0D01*
G01*
X75650600Y-64104600D01*
G75*
G02*
X75413100Y-63867100I0J237500D01*
G01*
X75413100Y-63392100D01*
G75*
G02*
X75650600Y-63154600I237500J0D01*
G01*
X76225600Y-63154600D01*
G75*
G02*
X76463100Y-63392100I0J-237500D01*
G01*
G37*
%TD*%
%TO.C,C44*%
G36*
G01*
X88023500Y-60989000D02*
X87548500Y-60989000D01*
G75*
G02*
X87311000Y-60751500I0J237500D01*
G01*
X87311000Y-60176500D01*
G75*
G02*
X87548500Y-59939000I237500J0D01*
G01*
X88023500Y-59939000D01*
G75*
G02*
X88261000Y-60176500I0J-237500D01*
G01*
X88261000Y-60751500D01*
G75*
G02*
X88023500Y-60989000I-237500J0D01*
G01*
G37*
G36*
G01*
X88023500Y-62739000D02*
X87548500Y-62739000D01*
G75*
G02*
X87311000Y-62501500I0J237500D01*
G01*
X87311000Y-61926500D01*
G75*
G02*
X87548500Y-61689000I237500J0D01*
G01*
X88023500Y-61689000D01*
G75*
G02*
X88261000Y-61926500I0J-237500D01*
G01*
X88261000Y-62501500D01*
G75*
G02*
X88023500Y-62739000I-237500J0D01*
G01*
G37*
%TD*%
%TO.C,C42*%
G36*
G01*
X70751000Y-61159500D02*
X70751000Y-61634500D01*
G75*
G02*
X70513500Y-61872000I-237500J0D01*
G01*
X69938500Y-61872000D01*
G75*
G02*
X69701000Y-61634500I0J237500D01*
G01*
X69701000Y-61159500D01*
G75*
G02*
X69938500Y-60922000I237500J0D01*
G01*
X70513500Y-60922000D01*
G75*
G02*
X70751000Y-61159500I0J-237500D01*
G01*
G37*
G36*
G01*
X72501000Y-61159500D02*
X72501000Y-61634500D01*
G75*
G02*
X72263500Y-61872000I-237500J0D01*
G01*
X71688500Y-61872000D01*
G75*
G02*
X71451000Y-61634500I0J237500D01*
G01*
X71451000Y-61159500D01*
G75*
G02*
X71688500Y-60922000I237500J0D01*
G01*
X72263500Y-60922000D01*
G75*
G02*
X72501000Y-61159500I0J-237500D01*
G01*
G37*
%TD*%
%TO.C,C41*%
G36*
G01*
X74950000Y-61631500D02*
X74950000Y-61156500D01*
G75*
G02*
X75187500Y-60919000I237500J0D01*
G01*
X75762500Y-60919000D01*
G75*
G02*
X76000000Y-61156500I0J-237500D01*
G01*
X76000000Y-61631500D01*
G75*
G02*
X75762500Y-61869000I-237500J0D01*
G01*
X75187500Y-61869000D01*
G75*
G02*
X74950000Y-61631500I0J237500D01*
G01*
G37*
G36*
G01*
X73200000Y-61631500D02*
X73200000Y-61156500D01*
G75*
G02*
X73437500Y-60919000I237500J0D01*
G01*
X74012500Y-60919000D01*
G75*
G02*
X74250000Y-61156500I0J-237500D01*
G01*
X74250000Y-61631500D01*
G75*
G02*
X74012500Y-61869000I-237500J0D01*
G01*
X73437500Y-61869000D01*
G75*
G02*
X73200000Y-61631500I0J237500D01*
G01*
G37*
%TD*%
%TO.C,C40*%
G36*
G01*
X78150000Y-63195500D02*
X78150000Y-63670500D01*
G75*
G02*
X77912500Y-63908000I-237500J0D01*
G01*
X77337500Y-63908000D01*
G75*
G02*
X77100000Y-63670500I0J237500D01*
G01*
X77100000Y-63195500D01*
G75*
G02*
X77337500Y-62958000I237500J0D01*
G01*
X77912500Y-62958000D01*
G75*
G02*
X78150000Y-63195500I0J-237500D01*
G01*
G37*
G36*
G01*
X79900000Y-63195500D02*
X79900000Y-63670500D01*
G75*
G02*
X79662500Y-63908000I-237500J0D01*
G01*
X79087500Y-63908000D01*
G75*
G02*
X78850000Y-63670500I0J237500D01*
G01*
X78850000Y-63195500D01*
G75*
G02*
X79087500Y-62958000I237500J0D01*
G01*
X79662500Y-62958000D01*
G75*
G02*
X79900000Y-63195500I0J-237500D01*
G01*
G37*
%TD*%
%TO.C,C39*%
G36*
G01*
X86352500Y-60994000D02*
X85877500Y-60994000D01*
G75*
G02*
X85640000Y-60756500I0J237500D01*
G01*
X85640000Y-60181500D01*
G75*
G02*
X85877500Y-59944000I237500J0D01*
G01*
X86352500Y-59944000D01*
G75*
G02*
X86590000Y-60181500I0J-237500D01*
G01*
X86590000Y-60756500D01*
G75*
G02*
X86352500Y-60994000I-237500J0D01*
G01*
G37*
G36*
G01*
X86352500Y-62744000D02*
X85877500Y-62744000D01*
G75*
G02*
X85640000Y-62506500I0J237500D01*
G01*
X85640000Y-61931500D01*
G75*
G02*
X85877500Y-61694000I237500J0D01*
G01*
X86352500Y-61694000D01*
G75*
G02*
X86590000Y-61931500I0J-237500D01*
G01*
X86590000Y-62506500D01*
G75*
G02*
X86352500Y-62744000I-237500J0D01*
G01*
G37*
%TD*%
%TO.C,C38*%
G36*
G01*
X60940200Y-93742500D02*
X60940200Y-94217500D01*
G75*
G02*
X60702700Y-94455000I-237500J0D01*
G01*
X60127700Y-94455000D01*
G75*
G02*
X59890200Y-94217500I0J237500D01*
G01*
X59890200Y-93742500D01*
G75*
G02*
X60127700Y-93505000I237500J0D01*
G01*
X60702700Y-93505000D01*
G75*
G02*
X60940200Y-93742500I0J-237500D01*
G01*
G37*
G36*
G01*
X62690200Y-93742500D02*
X62690200Y-94217500D01*
G75*
G02*
X62452700Y-94455000I-237500J0D01*
G01*
X61877700Y-94455000D01*
G75*
G02*
X61640200Y-94217500I0J237500D01*
G01*
X61640200Y-93742500D01*
G75*
G02*
X61877700Y-93505000I237500J0D01*
G01*
X62452700Y-93505000D01*
G75*
G02*
X62690200Y-93742500I0J-237500D01*
G01*
G37*
%TD*%
%TO.C,C37*%
G36*
G01*
X57563500Y-46783000D02*
X57563500Y-46308000D01*
G75*
G02*
X57801000Y-46070500I237500J0D01*
G01*
X58376000Y-46070500D01*
G75*
G02*
X58613500Y-46308000I0J-237500D01*
G01*
X58613500Y-46783000D01*
G75*
G02*
X58376000Y-47020500I-237500J0D01*
G01*
X57801000Y-47020500D01*
G75*
G02*
X57563500Y-46783000I0J237500D01*
G01*
G37*
G36*
G01*
X55813500Y-46783000D02*
X55813500Y-46308000D01*
G75*
G02*
X56051000Y-46070500I237500J0D01*
G01*
X56626000Y-46070500D01*
G75*
G02*
X56863500Y-46308000I0J-237500D01*
G01*
X56863500Y-46783000D01*
G75*
G02*
X56626000Y-47020500I-237500J0D01*
G01*
X56051000Y-47020500D01*
G75*
G02*
X55813500Y-46783000I0J237500D01*
G01*
G37*
%TD*%
%TO.C,C35*%
G36*
G01*
X47701700Y-62711400D02*
X47701700Y-62236400D01*
G75*
G02*
X47939200Y-61998900I237500J0D01*
G01*
X48514200Y-61998900D01*
G75*
G02*
X48751700Y-62236400I0J-237500D01*
G01*
X48751700Y-62711400D01*
G75*
G02*
X48514200Y-62948900I-237500J0D01*
G01*
X47939200Y-62948900D01*
G75*
G02*
X47701700Y-62711400I0J237500D01*
G01*
G37*
G36*
G01*
X45951700Y-62711400D02*
X45951700Y-62236400D01*
G75*
G02*
X46189200Y-61998900I237500J0D01*
G01*
X46764200Y-61998900D01*
G75*
G02*
X47001700Y-62236400I0J-237500D01*
G01*
X47001700Y-62711400D01*
G75*
G02*
X46764200Y-62948900I-237500J0D01*
G01*
X46189200Y-62948900D01*
G75*
G02*
X45951700Y-62711400I0J237500D01*
G01*
G37*
%TD*%
%TO.C,C34*%
G36*
G01*
X56357000Y-39436300D02*
X56357000Y-38961300D01*
G75*
G02*
X56594500Y-38723800I237500J0D01*
G01*
X57169500Y-38723800D01*
G75*
G02*
X57407000Y-38961300I0J-237500D01*
G01*
X57407000Y-39436300D01*
G75*
G02*
X57169500Y-39673800I-237500J0D01*
G01*
X56594500Y-39673800D01*
G75*
G02*
X56357000Y-39436300I0J237500D01*
G01*
G37*
G36*
G01*
X54607000Y-39436300D02*
X54607000Y-38961300D01*
G75*
G02*
X54844500Y-38723800I237500J0D01*
G01*
X55419500Y-38723800D01*
G75*
G02*
X55657000Y-38961300I0J-237500D01*
G01*
X55657000Y-39436300D01*
G75*
G02*
X55419500Y-39673800I-237500J0D01*
G01*
X54844500Y-39673800D01*
G75*
G02*
X54607000Y-39436300I0J237500D01*
G01*
G37*
%TD*%
%TO.C,C33*%
G36*
G01*
X68928500Y-48848000D02*
X68928500Y-49323000D01*
G75*
G02*
X68691000Y-49560500I-237500J0D01*
G01*
X68116000Y-49560500D01*
G75*
G02*
X67878500Y-49323000I0J237500D01*
G01*
X67878500Y-48848000D01*
G75*
G02*
X68116000Y-48610500I237500J0D01*
G01*
X68691000Y-48610500D01*
G75*
G02*
X68928500Y-48848000I0J-237500D01*
G01*
G37*
G36*
G01*
X70678500Y-48848000D02*
X70678500Y-49323000D01*
G75*
G02*
X70441000Y-49560500I-237500J0D01*
G01*
X69866000Y-49560500D01*
G75*
G02*
X69628500Y-49323000I0J237500D01*
G01*
X69628500Y-48848000D01*
G75*
G02*
X69866000Y-48610500I237500J0D01*
G01*
X70441000Y-48610500D01*
G75*
G02*
X70678500Y-48848000I0J-237500D01*
G01*
G37*
%TD*%
%TO.C,C32*%
G36*
G01*
X46576500Y-54753500D02*
X46576500Y-55228500D01*
G75*
G02*
X46339000Y-55466000I-237500J0D01*
G01*
X45764000Y-55466000D01*
G75*
G02*
X45526500Y-55228500I0J237500D01*
G01*
X45526500Y-54753500D01*
G75*
G02*
X45764000Y-54516000I237500J0D01*
G01*
X46339000Y-54516000D01*
G75*
G02*
X46576500Y-54753500I0J-237500D01*
G01*
G37*
G36*
G01*
X48326500Y-54753500D02*
X48326500Y-55228500D01*
G75*
G02*
X48089000Y-55466000I-237500J0D01*
G01*
X47514000Y-55466000D01*
G75*
G02*
X47276500Y-55228500I0J237500D01*
G01*
X47276500Y-54753500D01*
G75*
G02*
X47514000Y-54516000I237500J0D01*
G01*
X48089000Y-54516000D01*
G75*
G02*
X48326500Y-54753500I0J-237500D01*
G01*
G37*
%TD*%
%TO.C,C31*%
G36*
G01*
X67661800Y-102342200D02*
X67186800Y-102342200D01*
G75*
G02*
X66949300Y-102104700I0J237500D01*
G01*
X66949300Y-101529700D01*
G75*
G02*
X67186800Y-101292200I237500J0D01*
G01*
X67661800Y-101292200D01*
G75*
G02*
X67899300Y-101529700I0J-237500D01*
G01*
X67899300Y-102104700D01*
G75*
G02*
X67661800Y-102342200I-237500J0D01*
G01*
G37*
G36*
G01*
X67661800Y-104092200D02*
X67186800Y-104092200D01*
G75*
G02*
X66949300Y-103854700I0J237500D01*
G01*
X66949300Y-103279700D01*
G75*
G02*
X67186800Y-103042200I237500J0D01*
G01*
X67661800Y-103042200D01*
G75*
G02*
X67899300Y-103279700I0J-237500D01*
G01*
X67899300Y-103854700D01*
G75*
G02*
X67661800Y-104092200I-237500J0D01*
G01*
G37*
%TD*%
%TO.C,C28*%
G36*
G01*
X54533000Y-67385000D02*
X54533000Y-66910000D01*
G75*
G02*
X54770500Y-66672500I237500J0D01*
G01*
X55345500Y-66672500D01*
G75*
G02*
X55583000Y-66910000I0J-237500D01*
G01*
X55583000Y-67385000D01*
G75*
G02*
X55345500Y-67622500I-237500J0D01*
G01*
X54770500Y-67622500D01*
G75*
G02*
X54533000Y-67385000I0J237500D01*
G01*
G37*
G36*
G01*
X52783000Y-67385000D02*
X52783000Y-66910000D01*
G75*
G02*
X53020500Y-66672500I237500J0D01*
G01*
X53595500Y-66672500D01*
G75*
G02*
X53833000Y-66910000I0J-237500D01*
G01*
X53833000Y-67385000D01*
G75*
G02*
X53595500Y-67622500I-237500J0D01*
G01*
X53020500Y-67622500D01*
G75*
G02*
X52783000Y-67385000I0J237500D01*
G01*
G37*
%TD*%
%TO.C,C27*%
G36*
G01*
X50832500Y-67928500D02*
X50832500Y-67453500D01*
G75*
G02*
X51070000Y-67216000I237500J0D01*
G01*
X51645000Y-67216000D01*
G75*
G02*
X51882500Y-67453500I0J-237500D01*
G01*
X51882500Y-67928500D01*
G75*
G02*
X51645000Y-68166000I-237500J0D01*
G01*
X51070000Y-68166000D01*
G75*
G02*
X50832500Y-67928500I0J237500D01*
G01*
G37*
G36*
G01*
X49082500Y-67928500D02*
X49082500Y-67453500D01*
G75*
G02*
X49320000Y-67216000I237500J0D01*
G01*
X49895000Y-67216000D01*
G75*
G02*
X50132500Y-67453500I0J-237500D01*
G01*
X50132500Y-67928500D01*
G75*
G02*
X49895000Y-68166000I-237500J0D01*
G01*
X49320000Y-68166000D01*
G75*
G02*
X49082500Y-67928500I0J237500D01*
G01*
G37*
%TD*%
%TO.C,C26*%
G36*
G01*
X57657000Y-65627300D02*
X57657000Y-66102300D01*
G75*
G02*
X57419500Y-66339800I-237500J0D01*
G01*
X56844500Y-66339800D01*
G75*
G02*
X56607000Y-66102300I0J237500D01*
G01*
X56607000Y-65627300D01*
G75*
G02*
X56844500Y-65389800I237500J0D01*
G01*
X57419500Y-65389800D01*
G75*
G02*
X57657000Y-65627300I0J-237500D01*
G01*
G37*
G36*
G01*
X59407000Y-65627300D02*
X59407000Y-66102300D01*
G75*
G02*
X59169500Y-66339800I-237500J0D01*
G01*
X58594500Y-66339800D01*
G75*
G02*
X58357000Y-66102300I0J237500D01*
G01*
X58357000Y-65627300D01*
G75*
G02*
X58594500Y-65389800I237500J0D01*
G01*
X59169500Y-65389800D01*
G75*
G02*
X59407000Y-65627300I0J-237500D01*
G01*
G37*
%TD*%
%TO.C,C25*%
G36*
G01*
X68928500Y-47197000D02*
X68928500Y-47672000D01*
G75*
G02*
X68691000Y-47909500I-237500J0D01*
G01*
X68116000Y-47909500D01*
G75*
G02*
X67878500Y-47672000I0J237500D01*
G01*
X67878500Y-47197000D01*
G75*
G02*
X68116000Y-46959500I237500J0D01*
G01*
X68691000Y-46959500D01*
G75*
G02*
X68928500Y-47197000I0J-237500D01*
G01*
G37*
G36*
G01*
X70678500Y-47197000D02*
X70678500Y-47672000D01*
G75*
G02*
X70441000Y-47909500I-237500J0D01*
G01*
X69866000Y-47909500D01*
G75*
G02*
X69628500Y-47672000I0J237500D01*
G01*
X69628500Y-47197000D01*
G75*
G02*
X69866000Y-46959500I237500J0D01*
G01*
X70441000Y-46959500D01*
G75*
G02*
X70678500Y-47197000I0J-237500D01*
G01*
G37*
%TD*%
%TO.C,C22*%
G36*
G01*
X59971700Y-69845500D02*
X59496700Y-69845500D01*
G75*
G02*
X59259200Y-69608000I0J237500D01*
G01*
X59259200Y-69033000D01*
G75*
G02*
X59496700Y-68795500I237500J0D01*
G01*
X59971700Y-68795500D01*
G75*
G02*
X60209200Y-69033000I0J-237500D01*
G01*
X60209200Y-69608000D01*
G75*
G02*
X59971700Y-69845500I-237500J0D01*
G01*
G37*
G36*
G01*
X59971700Y-71595500D02*
X59496700Y-71595500D01*
G75*
G02*
X59259200Y-71358000I0J237500D01*
G01*
X59259200Y-70783000D01*
G75*
G02*
X59496700Y-70545500I237500J0D01*
G01*
X59971700Y-70545500D01*
G75*
G02*
X60209200Y-70783000I0J-237500D01*
G01*
X60209200Y-71358000D01*
G75*
G02*
X59971700Y-71595500I-237500J0D01*
G01*
G37*
%TD*%
%TO.C,C21*%
G36*
G01*
X59946300Y-73249100D02*
X59471300Y-73249100D01*
G75*
G02*
X59233800Y-73011600I0J237500D01*
G01*
X59233800Y-72436600D01*
G75*
G02*
X59471300Y-72199100I237500J0D01*
G01*
X59946300Y-72199100D01*
G75*
G02*
X60183800Y-72436600I0J-237500D01*
G01*
X60183800Y-73011600D01*
G75*
G02*
X59946300Y-73249100I-237500J0D01*
G01*
G37*
G36*
G01*
X59946300Y-74999100D02*
X59471300Y-74999100D01*
G75*
G02*
X59233800Y-74761600I0J237500D01*
G01*
X59233800Y-74186600D01*
G75*
G02*
X59471300Y-73949100I237500J0D01*
G01*
X59946300Y-73949100D01*
G75*
G02*
X60183800Y-74186600I0J-237500D01*
G01*
X60183800Y-74761600D01*
G75*
G02*
X59946300Y-74999100I-237500J0D01*
G01*
G37*
%TD*%
%TO.C,C18*%
G36*
G01*
X45577500Y-75612800D02*
X46052500Y-75612800D01*
G75*
G02*
X46290000Y-75850300I0J-237500D01*
G01*
X46290000Y-76425300D01*
G75*
G02*
X46052500Y-76662800I-237500J0D01*
G01*
X45577500Y-76662800D01*
G75*
G02*
X45340000Y-76425300I0J237500D01*
G01*
X45340000Y-75850300D01*
G75*
G02*
X45577500Y-75612800I237500J0D01*
G01*
G37*
G36*
G01*
X45577500Y-73862800D02*
X46052500Y-73862800D01*
G75*
G02*
X46290000Y-74100300I0J-237500D01*
G01*
X46290000Y-74675300D01*
G75*
G02*
X46052500Y-74912800I-237500J0D01*
G01*
X45577500Y-74912800D01*
G75*
G02*
X45340000Y-74675300I0J237500D01*
G01*
X45340000Y-74100300D01*
G75*
G02*
X45577500Y-73862800I237500J0D01*
G01*
G37*
%TD*%
%TO.C,C14*%
G36*
G01*
X61038500Y-77960800D02*
X60563500Y-77960800D01*
G75*
G02*
X60326000Y-77723300I0J237500D01*
G01*
X60326000Y-77148300D01*
G75*
G02*
X60563500Y-76910800I237500J0D01*
G01*
X61038500Y-76910800D01*
G75*
G02*
X61276000Y-77148300I0J-237500D01*
G01*
X61276000Y-77723300D01*
G75*
G02*
X61038500Y-77960800I-237500J0D01*
G01*
G37*
G36*
G01*
X61038500Y-79710800D02*
X60563500Y-79710800D01*
G75*
G02*
X60326000Y-79473300I0J237500D01*
G01*
X60326000Y-78898300D01*
G75*
G02*
X60563500Y-78660800I237500J0D01*
G01*
X61038500Y-78660800D01*
G75*
G02*
X61276000Y-78898300I0J-237500D01*
G01*
X61276000Y-79473300D01*
G75*
G02*
X61038500Y-79710800I-237500J0D01*
G01*
G37*
%TD*%
%TO.C,C10*%
G36*
G01*
X54039000Y-78548300D02*
X54039000Y-78073300D01*
G75*
G02*
X54276500Y-77835800I237500J0D01*
G01*
X54851500Y-77835800D01*
G75*
G02*
X55089000Y-78073300I0J-237500D01*
G01*
X55089000Y-78548300D01*
G75*
G02*
X54851500Y-78785800I-237500J0D01*
G01*
X54276500Y-78785800D01*
G75*
G02*
X54039000Y-78548300I0J237500D01*
G01*
G37*
G36*
G01*
X52289000Y-78548300D02*
X52289000Y-78073300D01*
G75*
G02*
X52526500Y-77835800I237500J0D01*
G01*
X53101500Y-77835800D01*
G75*
G02*
X53339000Y-78073300I0J-237500D01*
G01*
X53339000Y-78548300D01*
G75*
G02*
X53101500Y-78785800I-237500J0D01*
G01*
X52526500Y-78785800D01*
G75*
G02*
X52289000Y-78548300I0J237500D01*
G01*
G37*
%TD*%
%TO.C,C9*%
G36*
G01*
X57341000Y-78548300D02*
X57341000Y-78073300D01*
G75*
G02*
X57578500Y-77835800I237500J0D01*
G01*
X58153500Y-77835800D01*
G75*
G02*
X58391000Y-78073300I0J-237500D01*
G01*
X58391000Y-78548300D01*
G75*
G02*
X58153500Y-78785800I-237500J0D01*
G01*
X57578500Y-78785800D01*
G75*
G02*
X57341000Y-78548300I0J237500D01*
G01*
G37*
G36*
G01*
X55591000Y-78548300D02*
X55591000Y-78073300D01*
G75*
G02*
X55828500Y-77835800I237500J0D01*
G01*
X56403500Y-77835800D01*
G75*
G02*
X56641000Y-78073300I0J-237500D01*
G01*
X56641000Y-78548300D01*
G75*
G02*
X56403500Y-78785800I-237500J0D01*
G01*
X55828500Y-78785800D01*
G75*
G02*
X55591000Y-78548300I0J237500D01*
G01*
G37*
%TD*%
%TO.C,C8*%
G36*
G01*
X50737000Y-78548300D02*
X50737000Y-78073300D01*
G75*
G02*
X50974500Y-77835800I237500J0D01*
G01*
X51549500Y-77835800D01*
G75*
G02*
X51787000Y-78073300I0J-237500D01*
G01*
X51787000Y-78548300D01*
G75*
G02*
X51549500Y-78785800I-237500J0D01*
G01*
X50974500Y-78785800D01*
G75*
G02*
X50737000Y-78548300I0J237500D01*
G01*
G37*
G36*
G01*
X48987000Y-78548300D02*
X48987000Y-78073300D01*
G75*
G02*
X49224500Y-77835800I237500J0D01*
G01*
X49799500Y-77835800D01*
G75*
G02*
X50037000Y-78073300I0J-237500D01*
G01*
X50037000Y-78548300D01*
G75*
G02*
X49799500Y-78785800I-237500J0D01*
G01*
X49224500Y-78785800D01*
G75*
G02*
X48987000Y-78548300I0J237500D01*
G01*
G37*
%TD*%
D14*
%TO.C,U11*%
X65388200Y-145246300D03*
X67288200Y-145246300D03*
X67288200Y-141946300D03*
X66338200Y-141946300D03*
X65388200Y-141946300D03*
%TD*%
%TO.C,U7*%
X46477900Y-57039300D03*
X47427900Y-57039300D03*
X48377900Y-57039300D03*
X48377900Y-60339300D03*
X46477900Y-60339300D03*
%TD*%
%TO.C,U9*%
X54907200Y-41257200D03*
X55857200Y-41257200D03*
X56807200Y-41257200D03*
X56807200Y-44557200D03*
X54907200Y-44557200D03*
%TD*%
%TO.C,U15*%
X101349600Y-89562000D03*
X100399600Y-89562000D03*
X99449600Y-89562000D03*
X99449600Y-86262000D03*
X101349600Y-86262000D03*
%TD*%
%TO.C,U16*%
X110945800Y-89562000D03*
X109995800Y-89562000D03*
X109045800Y-89562000D03*
X109045800Y-86262000D03*
X110945800Y-86262000D03*
%TD*%
%TO.C,U6*%
X62230100Y-91826600D03*
X61280100Y-91826600D03*
X60330100Y-91826600D03*
X60330100Y-88526600D03*
X62230100Y-88526600D03*
%TD*%
%TO.C,U12*%
X76650000Y-88007600D03*
X75700000Y-88007600D03*
X74750000Y-88007600D03*
X74750000Y-84707600D03*
X76650000Y-84707600D03*
%TD*%
%TO.C,U13*%
X81651900Y-88292000D03*
X80701900Y-88292000D03*
X79751900Y-88292000D03*
X79751900Y-84992000D03*
X81651900Y-84992000D03*
%TD*%
%TO.C,U14*%
X94984000Y-87261000D03*
X94034000Y-87261000D03*
X93084000Y-87261000D03*
X93084000Y-83961000D03*
X94984000Y-83961000D03*
%TD*%
D17*
%TO.C,U10*%
X97657600Y-55400000D03*
X97657600Y-56670000D03*
X97657600Y-57940000D03*
X97657600Y-59210000D03*
X91457600Y-59210000D03*
X91457600Y-57940000D03*
X91457600Y-56670000D03*
X91457600Y-55400000D03*
%TD*%
M02*
