%TF.GenerationSoftware,KiCad,Pcbnew,(5.1.9-0-10_14)*%
%TF.CreationDate,2021-06-06T00:02:43+09:00*%
%TF.ProjectId,ossc_board,6f737363-5f62-46f6-9172-642e6b696361,rev?*%
%TF.SameCoordinates,Original*%
%TF.FileFunction,Profile,NP*%
%FSLAX46Y46*%
G04 Gerber Fmt 4.6, Leading zero omitted, Abs format (unit mm)*
G04 Created by KiCad (PCBNEW (5.1.9-0-10_14)) date 2021-06-06 00:02:43*
%MOMM*%
%LPD*%
G01*
G04 APERTURE LIST*
%TA.AperFunction,Profile*%
%ADD10C,0.100000*%
%TD*%
G04 APERTURE END LIST*
D10*
X38700000Y-150000000D02*
X38700000Y-160000000D01*
X36900000Y-150000000D02*
X38700000Y-150000000D01*
X36900000Y-130000000D02*
X38700000Y-130000000D01*
X36900000Y-150000000D02*
X36900000Y-130000000D01*
X129900000Y-55000000D02*
X128700000Y-55000000D01*
X128700000Y-134000000D02*
X129900000Y-134000000D01*
X129900000Y-157500000D02*
X128700000Y-157500000D01*
X129900000Y-199000000D02*
X129900000Y-157500000D01*
X128700000Y-134000000D02*
X128700000Y-157500000D01*
X129900000Y-55000000D02*
X129900000Y-134000000D01*
X109700000Y-174000000D02*
X109700000Y-175000000D01*
X112700000Y-175000000D02*
X109700000Y-175000000D01*
X112700000Y-174000000D02*
X112700000Y-175000000D01*
X112700000Y-174000000D02*
X109700000Y-174000000D01*
X107700000Y-175000000D02*
X106700000Y-175000000D01*
X107700000Y-174000000D02*
X107700000Y-175000000D01*
X107700000Y-174000000D02*
X106700000Y-174000000D01*
X106700000Y-174000000D02*
X106700000Y-175000000D01*
X115700000Y-175000000D02*
X114700000Y-175000000D01*
X114700000Y-174000000D02*
X114700000Y-175000000D01*
X115700000Y-174000000D02*
X114700000Y-174000000D01*
X115700000Y-174000000D02*
X115700000Y-175000000D01*
X105700000Y-174000000D02*
X105700000Y-199000000D01*
X129900000Y-199000000D02*
X105700000Y-199000000D01*
X118700000Y-45000000D02*
X127700000Y-45000000D01*
X127700000Y-46000000D02*
X118700000Y-46000000D01*
X127700000Y-45000000D02*
X127700000Y-46000000D01*
X118700000Y-45000000D02*
X118700000Y-46000000D01*
X117700000Y-45000000D02*
X117700000Y-46000000D01*
X116700000Y-45000000D02*
X117700000Y-45000000D01*
X116700000Y-35000000D02*
X116700000Y-45000000D01*
X115700000Y-35000000D02*
X115700000Y-46000000D01*
X115700000Y-35000000D02*
X116700000Y-35000000D01*
X115700000Y-34000000D02*
X116700000Y-34000000D01*
X115700000Y-33000000D02*
X116700000Y-33000000D01*
X116700000Y-33000000D02*
X116700000Y-34000000D01*
X115700000Y-163000000D02*
X115700000Y-167000000D01*
X114700000Y-163000000D02*
X114700000Y-167000000D01*
X114700000Y-167000000D02*
X115700000Y-167000000D01*
X115700000Y-168000000D02*
X115700000Y-173000000D01*
X114700000Y-168000000D02*
X114700000Y-173000000D01*
X114700000Y-168000000D02*
X115700000Y-168000000D01*
X115700000Y-161000000D02*
X115700000Y-162000000D01*
X114700000Y-160000000D02*
X114700000Y-162000000D01*
X114700000Y-163000000D02*
X115700000Y-163000000D01*
X114700000Y-162000000D02*
X115700000Y-162000000D01*
X128900000Y-160000000D02*
X120700000Y-160000000D01*
X120700000Y-161000000D02*
X128900000Y-161000000D01*
X120700000Y-160000000D02*
X120700000Y-161000000D01*
X118700000Y-160000000D02*
X119700000Y-160000000D01*
X118700000Y-161000000D02*
X119700000Y-161000000D01*
X119700000Y-160000000D02*
X119700000Y-161000000D01*
X118700000Y-160000000D02*
X118700000Y-161000000D01*
X116700000Y-160000000D02*
X116700000Y-161000000D01*
X114700000Y-173000000D02*
X115700000Y-173000000D01*
X128900000Y-160000000D02*
X128900000Y-161000000D01*
X116700000Y-161000000D02*
X115700000Y-161000000D01*
X51700000Y-46000000D02*
X51700000Y-32000000D01*
X115700000Y-33000000D02*
X115700000Y-34000000D01*
X115700000Y-46000000D02*
X117700000Y-46000000D01*
X51700000Y-32000000D02*
X128700000Y-32000000D01*
X51700000Y-174000000D02*
X51700000Y-160000000D01*
X116700000Y-160000000D02*
X114700000Y-160000000D01*
X51700000Y-174000000D02*
X105700000Y-174000000D01*
X38700000Y-46000000D02*
X38700000Y-130000000D01*
X51700000Y-160000000D02*
X38700000Y-160000000D01*
X128700000Y-32000000D02*
X128700000Y-55000000D01*
X38700000Y-46000000D02*
X51700000Y-46000000D01*
M02*
