M48
; DRILL file {KiCad (5.1.4-0-10_14)} date Sunday, May 24, 2020 at 05:11:35 PM
; FORMAT={3:3/ absolute / metric / suppress trailing zeros}
; #@! TF.CreationDate,2020-05-24T17:11:35+09:00
; #@! TF.GenerationSoftware,Kicad,Pcbnew,(5.1.4-0-10_14)
; #@! TF.FileFunction,Plated,1,2,PTH
FMAT,2
METRIC,LZ
T1C0.330
T2C0.350
T3C0.500
T4C0.600
T5C0.998
T6C1.000
T7C1.100
T8C1.200
T9C1.300
T10C1.350
T11C2.100
T12C3.048
T13C3.200
%
G90
G05
T1
X023205Y-023348
X024312Y-03069
X035306Y-045212
X036119Y-054991
X037084Y-05461
X037479Y-048745
X037592Y-045212
X038796Y-028714
X04081Y-02959
X042225Y-05626
X043Y-059702
X043043Y-032918
X043617Y-033642
X044543Y-059767
X045599Y-0354
X046608Y-036111
X046943Y-034376
X047674Y-059651
X048664Y-059981
X048706Y-066277
X049957Y-065908
X052324Y-050546
X052818Y-035391
X053534Y-03437
X053972Y-02302
X055649Y-030644
X057371Y-036332
X064262Y-027402
X064378Y-031758
X064381Y-042577
X066508Y-025933
X068209Y-025945
X069099Y-027469
X069848Y-025996
X070902Y-026682
X07359Y-030644
X073848Y-027571
X077292Y-054153
X077541Y-031105
X079665Y-030246
X079756Y-035611
X08097Y-065197
X081788Y-035557
X082516Y-032537
X084323Y-032288
X08459Y-023679
X084732Y-029806
X089535Y-054356
X092774Y-042931
X092964Y-044521
X093965Y-02959
X103619Y-031242
X105258Y-032144
X105453Y-060701
X105456Y-061628
X10793Y-06754
X108833Y-061692
X108848Y-060705
X109377Y-068077
X109385Y-069243
X110094Y-029135
X110562Y-027638
X11251Y-07386
X11298Y-06759
X113Y-07092
X113184Y-045236
X113259Y-052807
X1133Y-0417
X11351Y-07386
X113645Y-047926
X113741Y-050571
X11411Y-07092
X11418Y-03816
X11502Y-06452
X11564Y-06924
X11564Y-07009
X11671Y-04091
X11671Y-06179
X11676Y-0664
X11676Y-06768
X1168Y-07212
X11686Y-07386
X117714Y-037557
X1199Y-06819
X12112Y-06958
X12121Y-06291
X12186Y-07385
X12366Y-06962
X12514Y-05771
X12632Y-05808
X12743Y-05885
X044336Y-047892
X044336Y-048692
X044336Y-049492
X044336Y-050292
X044336Y-051092
X044336Y-051892
X044336Y-052692
X045136Y-047892
X045136Y-048692
X045136Y-049492
X045136Y-050292
X045136Y-051092
X045136Y-051892
X045136Y-052692
X045936Y-047892
X045936Y-048692
X045936Y-051892
X045936Y-052692
X046736Y-047892
X046736Y-048692
X046736Y-051892
X046736Y-052692
X047536Y-047892
X047536Y-048692
X047536Y-051892
X047536Y-052692
X048336Y-047892
X048336Y-048692
X048336Y-049492
X048336Y-050292
X048336Y-051092
X048336Y-051892
X048336Y-052692
X049136Y-047892
X049136Y-048692
X049136Y-049492
X049136Y-050292
X049136Y-051092
X049136Y-051892
X049136Y-052692
X07475Y-04215
X07475Y-043
X07475Y-04385
X07475Y-0447
X07475Y-04555
X07475Y-0464
X07475Y-04725
X0756Y-04215
X0756Y-043
X0756Y-04385
X0756Y-0447
X0756Y-04555
X0756Y-0464
X0756Y-04725
X07645Y-04215
X07645Y-043
X07645Y-0464
X07645Y-04725
X0773Y-04215
X0773Y-043
X0773Y-0464
X0773Y-04725
X07815Y-04215
X07815Y-043
X07815Y-0464
X07815Y-04725
X079Y-04215
X079Y-043
X079Y-04385
X079Y-0447
X079Y-04555
X079Y-0464
X079Y-04725
X07985Y-04215
X07985Y-043
X07985Y-04385
X07985Y-0447
X07985Y-04555
X07985Y-0464
X07985Y-04725
T2
X008896Y-048748
X01296Y-048971
X022814Y-0503
X023912Y-050307
X025136Y-061549
X025611Y-027249
X025618Y-028377
X025634Y-029451
X026784Y-029535
X026815Y-027219
X02683Y-028316
X027634Y-045815
X027757Y-058278
X027935Y-029535
X027958Y-027203
X027973Y-028354
X028404Y-022974
X028404Y-024014
X028404Y-025055
X02859Y-034069
X028651Y-066081
X029581Y-034785
X029604Y-033581
X029983Y-058279
X030053Y-060371
X03077Y-034854
X030777Y-033581
X031814Y-041628
X031938Y-060743
X03269Y-046036
X034138Y-070744
X034214Y-025489
X034221Y-02427
X034267Y-023119
X03533Y-029051
X03541Y-024277
X035425Y-023111
X035425Y-027912
X035448Y-025542
X035448Y-026754
X035673Y-038119
X036629Y-037212
X03765Y-036176
X03781Y-07428
X037826Y-041651
X039811Y-033296
X040117Y-053098
X040168Y-051688
X040523Y-038908
X04093Y-044242
X041443Y-045441
X041457Y-03477
X041628Y-031593
X041737Y-046518
X04191Y-040894
X042035Y-0596
X042352Y-044754
X042596Y-050764
X042603Y-051907
X042634Y-049507
X042657Y-048402
X04267Y-047218
X042708Y-04591
X043434Y-056388
X04348Y-035565
X043698Y-045659
X04394Y-040652
X043979Y-044493
X044318Y-038546
X045263Y-074737
X045466Y-056388
X045527Y-040982
X045811Y-037856
X045819Y-044196
X046073Y-027114
X046736Y-056388
X047254Y-038877
X04763Y-044836
X047752Y-056388
X048707Y-03749
X048875Y-044826
X048997Y-033658
X04953Y-056388
X050135Y-044811
X050557Y-04403
X051054Y-053828
X051054Y-056388
X051064Y-051308
X051069Y-052578
X051333Y-044831
X051458Y-031486
X051979Y-051887
X051979Y-053167
X051984Y-054254
X052119Y-044081
X052227Y-045659
X052324Y-049276
X052324Y-055118
X052324Y-056134
X052487Y-048246
X053135Y-04671
X054432Y-057465
X05646Y-064108
X056693Y-066271
X057226Y-050018
X057328Y-043404
X05739Y-068854
X05744Y-05872
X058527Y-063383
X058548Y-059066
X058994Y-071803
X059036Y-075175
X059265Y-031993
X059329Y-064267
X06019Y-032781
X060484Y-059135
X061128Y-033673
X061276Y-031913
X061468Y-03969
X062553Y-0612
X063307Y-027793
X063848Y-054441
X064948Y-045644
X064948Y-048692
X065Y-034
X065048Y-054521
X065232Y-025156
X065263Y-024216
X066203Y-020081
X066385Y-031608
X0672Y-035
X0673Y-0341
X067843Y-037084
X067843Y-038405
X067843Y-045441
X067843Y-052197
X067871Y-04713
X0679Y-0422
X0679Y-043
X0679Y-0439
X0679Y-0569
X067986Y-049256
X067996Y-035839
X067996Y-040894
X068021Y-039522
X068301Y-054178
X068377Y-048296
X068707Y-040208
X069187Y-031768
X069469Y-052177
X069545Y-051064
X069596Y-054153
X069901Y-035306
X069947Y-019116
X070584Y-022364
X070587Y-054178
X0707Y-0523
X0708Y-0385
X071171Y-056845
X071595Y-035377
X0721Y-0409
X0721Y-0427
X0721Y-0448
X0721Y-0467
X0721Y-0486
X0721Y-0508
X072111Y-054178
X072401Y-0178
X072572Y-035329
X0734Y-0398
X07345Y-0508
X073533Y-054178
X073533Y-084475
X073607Y-035245
X0744Y-0489
X074498Y-054153
X0748Y-0525
X07495Y-0508
X0754Y-0398
X07559Y-054127
X0757Y-0375
X0757Y-0525
X075735Y-035437
X0764Y-0489
X0765Y-0508
X076901Y-0186
X077038Y-021199
X077175Y-06269
X0774Y-0398
X077553Y-035406
X07805Y-0508
X078326Y-056982
X0784Y-0489
X078588Y-054178
X078816Y-039802
X078895Y-035237
X07945Y-0508
X080061Y-057252
X080193Y-067788
X0803Y-0489
X080691Y-035342
X08075Y-0508
X081Y-0398
X08105Y-0525
X081481Y-06778
X081585Y-054102
X081747Y-021069
X08195Y-05085
X082Y-0525
X0824Y-0412
X0824Y-0429
X0824Y-0448
X0824Y-0468
X0824Y-0486
X082612Y-06059
X0827Y-067772
X082804Y-054102
X0829Y-0525
X082977Y-025552
X083577Y-028168
X083588Y-062534
X0839Y-0525
X084087Y-035223
X0842Y-0513
X084673Y-041214
X084696Y-044818
X085288Y-025471
X085428Y-035326
X085496Y-054178
X0855Y-0368
X085568Y-032634
X085839Y-047092
X086346Y-046318
X086403Y-0394
X086407Y-049511
X086479Y-04836
X0865Y-0515
X086517Y-050546
X086556Y-045389
X086558Y-04351
X086567Y-04196
X086591Y-037404
X086624Y-038476
X086681Y-044463
X0869Y-0567
X087046Y-034757
X08844Y-032771
X089916Y-056947
X0907Y-0628
X09079Y-028104
X092304Y-052045
X092329Y-049098
X092329Y-050825
X095429Y-062602
X09705Y-06519
X097738Y-062591
X09796Y-0449
X097978Y-053969
X098826Y-029083
X09906Y-0652
X099065Y-021336
X09911Y-06983
X09912Y-06779
X100405Y-055195
X100696Y-062555
X100968Y-053185
X100995Y-049408
X101Y-0419
X101Y-047
X101Y-0483
X101006Y-050724
X101796Y-062454
X1036Y-0418
X1036Y-046
X1036Y-0494
X10402Y-03768
X10423Y-06726
X1047Y-0418
X1049Y-0384
X105Y-0535
X105Y-05988
X105471Y-062728
X1058Y-0416
X1058Y-0543
X1059Y-0438
X1064Y-0535
X1072Y-0416
X10798Y-06844
X108265Y-041567
X108306Y-05856
X1097Y-044
X109899Y-062678
X1107Y-0417
X11109Y-06807
X111115Y-054258
X1117Y-06284
X1121Y-0373
X1121Y-044
X1122Y-0427
X1123Y-0417
X113132Y-046914
X113881Y-0494
X114971Y-056319
X114984Y-041084
X114996Y-055321
X11525Y-06333
X11851Y-05304
X11855Y-05545
X1188Y-0502
X11925Y-05991
X119421Y-045027
X120564Y-043632
X1217Y-04821
X12171Y-05992
T3
X103861Y-069097
X103861Y-070197
T4
X026185Y-035889
X026185Y-043509
X033805Y-035889
X033805Y-043509
T5
X08332Y-02032
X08332Y-02286
X08586Y-02032
X08586Y-02286
X0884Y-02032
X0884Y-02286
X09094Y-02032
X09094Y-02286
X09348Y-02032
X09348Y-02286
T6
X046736Y-050292
X014616Y-053575
X014616Y-055865
X014616Y-058155
X014616Y-060445
X014616Y-062735
X017156Y-054715
X017156Y-057005
X017156Y-059295
X017156Y-061585
X017156Y-063875
X019695Y-053575
X019695Y-055865
X019695Y-058155
X019695Y-060445
X019695Y-062735
X0773Y-0447
X12254Y-06487
X12254Y-06817
X12504Y-06487
X12504Y-06817
X12754Y-06487
X12754Y-06817
T7
X037165Y-032898
X038353Y-034188
X116459Y-018773
X116459Y-025273
X120959Y-018773
X120959Y-025273
X103696Y-018735
X103696Y-025235
X108196Y-018735
X108196Y-025235
T9
X07656Y-076741
X078465Y-081821
X08037Y-076741
X082275Y-081821
X08418Y-076741
X086085Y-081821
X08799Y-076741
X089895Y-081821
X0918Y-076741
X093705Y-081821
X09561Y-076741
X097515Y-081821
X09942Y-076741
X101325Y-081821
X10323Y-076741
X105135Y-081821
X10704Y-076741
X108945Y-081821
X11085Y-076741
X112755Y-081821
X11466Y-076741
T10
X1244Y-04655
X1244Y-06105
X12935Y-04595
X12935Y-06165
T11
X010266Y-038298
X014966Y-038298
X019666Y-038298
T12
X01113Y-0822
X1283Y-0822
X1283Y-0206
X01113Y-0206
T13
X017156Y-045915
X017156Y-070915
T6
G00X015203Y-027649
M15
G01X015203Y-029649
M16
G05
G00X017202Y-033348
M15
G01X019202Y-033348
M16
G05
G00X021202Y-027649
M15
G01X021202Y-029649
M16
G05
G00X122798Y-038426
M15
G01X122798Y-036926
M16
G05
G00X128298Y-038426
M15
G01X128298Y-036926
M16
G05
G00X130698Y-036426
M15
G01X130698Y-034926
M16
G05
G00X130706Y-07558
M15
G01X130706Y-07408
M16
G05
G00X122806Y-07758
M15
G01X122806Y-07608
M16
G05
G00X128306Y-07758
M15
G01X128306Y-07608
M16
G05
T8
G00X025446Y-076376
M15
G01X025446Y-078176
M16
G05
G00X028386Y-081776
M15
G01X030006Y-081776
M16
G05
G00X032946Y-076376
M15
G01X032946Y-078176
M16
G05
G00X040446Y-076376
M15
G01X040446Y-078176
M16
G05
G00X043386Y-081776
M15
G01X045006Y-081776
M16
G05
G00X047946Y-076376
M15
G01X047946Y-078176
M16
G05
G00X055446Y-076376
M15
G01X055446Y-078176
M16
G05
G00X058386Y-081776
M15
G01X060006Y-081776
M16
G05
G00X062946Y-076376
M15
G01X062946Y-078176
M16
G05
T0
M30
